<?xml version="1.0" encoding="UTF-8" standalone="no"?>
<svg width="100px" height="100px" viewBox="0 0 100 100" version="1.1" xmlns="http://www.w3.org/2000/svg" xmlns:xlink="http://www.w3.org/1999/xlink">
    <!-- Generator: sketchtool 3.7.2 (28276) - http://www.bohemiancoding.com/sketch -->
    <title>DB7F9735-18AD-49D7-85A7-A2D0C4932861</title>
    <desc>Created with sketchtool.</desc>
    <defs>
        <polygon id="path-1" points="0.494216279 0.466017391 0.494216279 37.6922557 47.2538907 37.6922557 47.2538907 0.466017391"></polygon>
    </defs>
    <g id="Page-1" stroke="none" stroke-width="1" fill="none" fill-rule="evenodd">
        <g id="Desktop-Copy-13" transform="translate(-462.000000, -118.000000)">
            <g id="icn_support_color" transform="translate(462.000000, 118.000000)">
                <g id="Group-4" fill="#6AA52A">
                    <ellipse id="Oval-171-Copy" cx="50" cy="50" rx="50" ry="50"></ellipse>
                </g>
                <g id="Page-1" transform="translate(26.000000, 17.000000)">
                    <path d="M0,59.1110922 C0,59.1110922 8.83424419,65.533753 25.2327209,65.533753 C41.6311977,65.533753 48.9139651,59.1110922 48.9139651,59.1110922 C48.9139651,48.0196487 41.6363256,38.6430574 31.6300698,35.5554052 C29.4723605,36.6573183 27.0360349,37.2828835 24.4566977,37.2828835 C21.8767907,37.2828835 19.4398953,36.6578922 17.2833256,35.5559791 C16.1033372,35.9204139 14.9626628,36.374953 13.8658605,36.9069704 C16.1511977,38.4800661 18.7954884,39.5601704 21.6488837,39.991753 C22.067093,38.830727 23.162186,37.9968313 24.4566977,37.9968313 C26.1130116,37.9968313 27.4542442,39.3478226 27.4542442,41.0156139 C27.4542442,42.6788139 26.1130116,44.0338226 24.4566977,44.0338226 C23.0419651,44.0338226 21.861407,43.0386574 21.5474651,41.7100487 C18.0724535,41.2107443 14.881186,39.8276139 12.1924535,37.7999791 C4.90284884,42.064153 0,50.0088313 0,59.1110922" id="Fill-1" fill="#7ED223"></path>
                    <path d="M31.6298988,35.5554052 C36.8119337,32.9085183 40.3746895,27.4925009 40.3746895,21.2494748 C40.3746895,12.4071965 33.2326547,5.21606609 24.4565267,5.21606609 C15.6786895,5.21606609 8.54007326,12.4071965 8.54007326,21.2494748 C8.54007326,27.4925009 12.1011198,32.9090922 17.2831547,35.5559791 C19.5519686,34.8552313 21.9598058,34.4764487 24.4565267,34.4764487 C26.9526779,34.4764487 29.3610849,34.8552313 31.6298988,35.5554052" id="Fill-3" fill="#7ED223"></path>
                    <path d="M31.6298988,35.5554052 C29.3610849,34.8552313 26.9526779,34.4764487 24.4565267,34.4764487 C21.9598058,34.4764487 19.5519686,34.8552313 17.2831547,35.5559791 C19.4397244,36.6578922 21.8766198,37.2828835 24.4565267,37.2828835 C27.035864,37.2828835 29.4721895,36.6573183 31.6298988,35.5554052" id="Fill-5" fill="#189F17"></path>
                    <path d="M24.4565837,41.9250939 C23.468607,41.9250939 22.4988628,41.8464678 21.5479209,41.7098765 C21.861293,43.0384852 23.0424209,44.0336504 24.4565837,44.0336504 C26.1128977,44.0336504 27.4541302,42.6786417 27.4541302,41.0154417 C27.4541302,39.3482243 26.1128977,37.9966591 24.4565837,37.9966591 C23.1626419,37.9966591 22.0675488,38.8305548 21.6487698,39.9915809 C22.5655256,40.1304678 23.502793,40.2033548 24.4565837,40.2033548 L24.4565837,41.9250939 Z" id="Fill-7" fill="#FFFFFF"></path>
                    <g id="Group-11" transform="translate(0.569767, 0.107896)">
                        <mask id="mask-2" fill="white">
                            <use xlink:href="#path-1"></use>
                        </mask>
                        <g id="Clip-10"></g>
                        <path d="M5.0700186,21.1423252 C5.0700186,10.6907948 13.5111233,2.18769913 23.8865884,2.18769913 C34.1435419,2.18769913 42.5043093,10.4985339 42.6951814,20.7847774 C42.6946116,20.7974035 42.691193,20.8100296 42.691193,20.8226557 C42.691193,21.0929687 42.6963209,21.3558209 42.7020186,21.619247 C42.7339256,23.202673 42.7629837,24.6982904 41.5938209,27.9776296 C41.4371349,28.4178209 41.6587744,28.9004817 42.0883791,29.0692122 C42.0866698,29.0743774 42.0849605,29.0801165 42.0826814,29.0858557 C42.1407977,29.1076643 42.2114488,29.116273 42.2929256,29.1111078 C42.3282512,29.1156991 42.363007,29.129473 42.3983326,29.129473 C42.6159837,29.129473 42.8193907,29.037073 42.9772163,28.8884296 C44.5366698,28.113073 47.2538907,25.3192643 47.2538907,21.1428991 C47.2538907,16.8959426 44.4386698,14.0625339 42.8917512,13.3411252 C39.8286814,5.79703826 32.4661465,0.46596 23.8865884,0.46596 C15.3127279,0.46596 7.95361163,5.79129913 4.88712326,13.329647 C3.34761163,14.0258035 0.494216279,16.8660991 0.494216279,21.1428991 C0.494216279,25.4191252 3.34533256,28.2490904 4.88256512,28.9429513 C6.30356512,32.442673 8.65898372,35.4557165 11.622914,37.6922557 C12.1676116,37.37316 12.725414,37.0752991 13.2963209,36.798673 C8.33421628,33.3821687 5.0700186,27.6395948 5.0700186,21.1423252" id="Fill-9" fill="#189F17" mask="url(#mask-2)"></path>
                    </g>
                    <path d="M21.4597779,41.0154417 C21.4597779,40.6538765 21.5332779,40.3123983 21.6489407,39.9915809 C18.7955453,39.5599983 16.1512547,38.4798939 13.8659174,36.9067983 C13.2950105,37.1828504 12.7372081,37.4812852 12.1925105,37.799807 C14.881243,39.8280157 18.0725105,41.2105722 21.5475221,41.7098765 C21.4951035,41.4854765 21.4597779,41.2553374 21.4597779,41.0154417" id="Fill-12" fill="#FFFFFF"></path>
                    <path d="M21.547693,41.7098765 C22.4992047,41.8464678 23.4683791,41.9250939 24.4563558,41.9250939 L24.4563558,40.2033548 C23.5031349,40.2033548 22.5652977,40.1304678 21.6491116,39.9915809 C21.5334488,40.3123983 21.4599488,40.6538765 21.4599488,41.0154417 C21.4599488,41.2553374 21.4947047,41.4854765 21.547693,41.7098765" id="Fill-14" fill="#FFFFFF"></path>
                </g>
            </g>
        </g>
    </g>
</svg>