<?xml version="1.0" encoding="UTF-8" standalone="no"?>
<svg width="100px" height="100px" viewBox="0 0 100 100" version="1.1" xmlns="http://www.w3.org/2000/svg" xmlns:xlink="http://www.w3.org/1999/xlink">
    <!-- Generator: sketchtool 3.7.2 (28276) - http://www.bohemiancoding.com/sketch -->
    <title>D475C3AA-0774-40BC-83CF-F25AA889AE51</title>
    <desc>Created with sketchtool.</desc>
    <defs>
        <polygon id="path-1" points="8.42452591 6.59824821 8.42452591 0.134390406 0.241068869 0.134390406 0.241068869 6.59824821 8.42452591 6.59824821"></polygon>
    </defs>
    <g id="Page-1" stroke="none" stroke-width="1" fill="none" fill-rule="evenodd">
        <g id="Desktop-Copy-11" transform="translate(-462.000000, -118.000000)">
            <g id="icn_chauffeur_color" transform="translate(462.000000, 118.000000)">
                <ellipse id="Oval-171" fill="#2DA190" cx="50" cy="50" rx="50" ry="50"></ellipse>
                <g id="Page-1" transform="translate(15.533981, 17.961165)">
                    <path d="M34.3178477,25.8322383 L34.2218583,25.8322383 L34.2109065,25.8322383 L34.114917,25.8322383 L9.66916795,25.8322383 C10.469295,23.5566473 11.4768624,20.7409656 12.7459849,17.1856363 C14.879657,11.2060141 16.8561383,7.18784192 18.4138735,4.65153968 C22.4106433,4.49768784 27.5322294,4.39597826 34.114917,4.39597826 L34.2109065,4.39597826 L34.2218583,4.39597826 L34.3178477,4.39597826 C40.744633,4.39597826 45.7786045,4.49382545 49.7334997,4.64059624 C51.3021867,7.17174863 53.5041466,11.1397098 55.6622992,17.1856363 C56.9307776,20.7409656 57.938345,23.5566473 58.7378278,25.8322383 L34.3178477,25.8322383 Z M63.5199074,28.3460099 C63.2809001,27.5870504 63.016768,26.758568 62.7172035,25.8322383 C61.9254514,23.5727406 60.9101533,20.7390344 59.6171944,17.1167571 C57.4732148,11.1081669 55.5837038,7.27989553 54.0485165,4.84272794 L54.0478722,4.84272794 C52.3387442,2.13004327 51.0696216,1.1425591 50.3809455,0.803312579 C49.0789674,0.163443436 34.3436167,0.00122308991 34.2218583,-6.43731532e-05 L34.2167045,-6.43731532e-05 L34.2160602,-6.43731532e-05 L34.2109065,-6.43731532e-05 C34.089148,0.00122308991 19.3531531,0.163443436 18.0518193,0.803312579 C17.3689411,1.13934044 16.1165684,2.11394998 14.4312767,4.76998628 L14.4306324,4.76998628 C14.4299882,4.76998628 14.3842483,4.84272794 14.3842483,4.84272794 C12.8490609,7.27989553 10.9589057,11.1081669 8.81492605,17.1167571 C7.52196715,20.7390344 6.50731331,23.5727406 5.7155612,25.8322383 C5.41535251,26.758568 5.1512204,27.5870504 4.91221305,28.3460099 C3.57222575,32.6152374 3.15090282,34.4479411 3.15090282,35.9800222 C3.15090282,36.6282598 3.17345069,37.8848238 3.20759459,39.4059614 C3.30680519,43.8039352 3.49942836,50.441451 3.49942836,51.218435 C3.49942836,51.4939521 4.54178387,51.91624 6.35785319,52.3868077 L6.35785319,45.46605 C6.35785319,44.403893 7.22691226,43.5348554 8.29052718,43.5348554 L13.1222121,43.5348554 C14.1851828,43.5348554 15.0548861,44.403893 15.0548861,45.46605 L15.0548861,54.0231733 C20.4618637,54.791145 27.2384629,55.3975401 34.2109065,55.3975401 L34.2160602,55.3975401 L34.2167045,55.3975401 L34.2218583,55.3975401 C41.1943018,55.3975401 47.9702568,54.791145 53.3778786,54.0231733 L53.3778786,45.46605 C53.3778786,44.403893 54.2482261,43.5348554 55.3105526,43.5348554 L60.1422375,43.5348554 C61.204564,43.5348554 62.0749115,44.403893 62.0749115,45.46605 L62.0749115,52.3868077 C63.8896924,51.91624 64.9326921,51.4939521 64.9326921,51.218435 C64.9326921,50.441451 65.1253153,43.8039352 65.2245259,39.4059614 C65.2586698,37.8848238 65.2812177,36.6282598 65.2812177,35.9800222 C65.2812177,34.4479411 64.8598947,32.6152374 63.5199074,28.3460099 L63.5199074,28.3460099 Z" id="Fill-1" fill="#5FC1A6"></path>
                    <path id="Fill-3" fill="#5FC1A6"></path>
                    <path d="M6.35765992,57.2141505 C6.35765992,58.2763075 7.22736322,59.1453451 8.29033391,59.1453451 L13.1220189,59.1453451 C14.1849896,59.1453451 15.0546929,58.2763075 15.0546929,57.2141505 L15.0546929,54.0231733 C11.4103139,53.5049694 8.39598675,52.9153113 6.35765992,52.3868077 L6.35765992,57.2141505 Z" id="Fill-5" fill="#5FC1A6"></path>
                    <path d="M13.1220189,43.5348554 L8.29033391,43.5348554 C7.22736322,43.5348554 6.35765992,44.403893 6.35765992,45.46605 L6.35765992,52.3868077 C8.39598675,52.9153113 11.4103139,53.5049694 15.0546929,54.0231733 L15.0546929,45.46605 C15.0546929,44.403893 14.1849896,43.5348554 13.1220189,43.5348554" id="Fill-7" fill="#2DA87C"></path>
                    <path d="M57.0833944,19.8336904 L56.4475447,18.0518415 C52.4559287,6.86893732 49.5066682,4.23478789 48.7967326,3.6798913 C46.9342791,3.40437421 39.8767979,3.17134339 33.9705462,3.10632651 C28.0688041,3.17069966 21.017121,3.40437421 19.1488694,3.67924757 C18.4208956,4.24830625 16.1416287,7.123855 11.9863796,18.0557039 L11.3505299,19.8375528 C10.5156147,22.1736545 10.0884938,23.2570547 9.31027039,25.8384181 L59.218355,25.8345557 C58.6243798,24.1473354 57.9176654,22.1697921 57.0833944,19.8336904" id="Fill-9" fill="#FFFFFF"></path>
                    <path d="M62.0749115,57.2141505 C62.0749115,58.2763075 61.204564,59.1453451 60.1422375,59.1453451 L55.3105526,59.1453451 C54.2482261,59.1453451 53.3778786,58.2763075 53.3778786,57.2141505 L53.3778786,54.0231733 C57.0222575,53.5049694 60.0365847,52.9153113 62.0749115,52.3868077 L62.0749115,57.2141505 Z" id="Fill-11" fill="#5FC1A6"></path>
                    <path d="M55.3105526,43.5348554 L60.1422375,43.5348554 C61.204564,43.5348554 62.0749115,44.403893 62.0749115,45.46605 L62.0749115,52.3868077 C60.0365847,52.9153113 57.0222575,53.5049694 53.3778786,54.0231733 L53.3778786,45.46605 C53.3778786,44.403893 54.2482261,43.5348554 55.3105526,43.5348554" id="Fill-13" fill="#2DA87C"></path>
                    <path d="M47.3105707,9.25743879 L42.5768079,9.25743879 C41.1421196,10.0788402 40.1738499,11.621221 40.1738499,13.3921264 C40.1738499,16.0249884 42.3094547,18.1583147 44.9436893,18.1583147 C47.577924,18.1583147 49.7135287,16.0249884 49.7135287,13.3921264 C49.7135287,11.621221 48.7459033,10.0788402 47.3105707,9.25743879" id="Fill-15" fill="#2DA87C"></path>
                    <path d="M44.9438182,19.606775 C39.8550876,19.606775 35.7294728,22.3947763 35.7294728,25.8329464 L54.1575193,25.8329464 C54.1575193,22.3947763 50.0325488,19.606775 44.9438182,19.606775" id="Fill-17" fill="#2DA87C"></path>
                    <path d="M40.9494964,9.7923797 L43.2596861,10.8184878 C43.4213864,10.889942 43.6990473,10.9491653 43.8762091,10.9491653 L45.808883,10.9491653 C45.9847564,10.9491653 46.2630614,10.889942 46.425406,10.8184878 L48.7355957,9.7923797 C48.8972961,9.7209255 49.0300064,9.5168626 49.0300064,9.33983643 C49.0300064,9.16216653 48.8837674,9.01797066 48.707894,9.01797066 L40.9771981,9.01797066 C40.8000363,9.01797066 40.6550857,9.16216653 40.6550857,9.33983643 C40.6550857,9.5168626 40.7871518,9.7209255 40.9494964,9.7923797" id="Fill-19" fill="#5FC1A6"></path>
                    <path d="M40.5103285,8.08623364 C40.5895681,8.2445916 40.7995853,8.37398164 40.9773913,8.37398164 L44.520627,8.37398164 L45.1648516,8.37398164 L48.7080873,8.37398164 C48.8839606,8.37398164 49.0939779,8.2445916 49.1732175,8.08623364 L49.5294737,7.3749103 C49.6087134,7.21590861 49.5707041,6.98416526 49.4463688,6.85928134 L48.612742,6.02693647 C48.4884067,5.90140882 48.239736,5.79905551 48.0638626,5.79905551 L45.1648516,5.79905551 L44.520627,5.79905551 L41.621616,5.79905551 C41.44381,5.79905551 41.1957835,5.90140882 41.0714481,6.02693647 L40.2378214,6.85928134 C40.1134861,6.98416526 40.0748326,7.21590861 40.1540722,7.3749103 L40.5103285,8.08623364 Z" id="Fill-21" fill="#5FC1A6"></path>
                    <path d="M18.4305589,36.1935479 C18.23858,37.8427881 16.833526,39.0343352 15.2918964,38.8560215 L8.82259232,38.1041431 C7.28096271,37.9251857 6.18706923,36.4433157 6.37969241,34.7934318 C6.57102713,33.1441916 7.97543689,31.9520008 9.51771073,32.1303145 L15.9870148,32.8821929 C17.5286444,33.0611503 18.6231821,34.543664 18.4305589,36.1935479" id="Fill-23" fill="#FFFFFF"></path>
                    <path d="M50.0010462,36.1935479 C50.1930251,37.8427881 51.5980791,39.0343352 53.1397087,38.8560215 L59.6090128,38.1041431 C61.1506424,37.9251857 62.2445359,36.4433157 62.0525569,34.7934318 C61.860578,33.1441916 60.4561682,31.9520008 58.9138944,32.1303145 L52.4445903,32.8821929 C50.9029607,33.0611503 49.8090672,34.543664 50.0010462,36.1935479" id="Fill-25" fill="#FFFFFF"></path>
                    <path d="M5.90560748,23.2830614 L5.90560748,20.7589901 C5.90560748,19.8680656 5.12996098,19.2404274 4.25574812,19.4271095 L1.51457218,20.0141927 C0.679012794,20.1937938 0,21.0338634 0,21.8868077 L0,24.2460838 C0,25.1337896 0.722820071,25.8554126 1.61056166,25.8554126 L3.92332819,25.8554126 L3.92332819,25.8579875 L8.18358588,25.8579875 L8.18358588,23.2830614 L5.90560748,23.2830614 Z" id="Fill-27" fill="#5FC1A6"></path>
                    <g id="Group-31" transform="translate(59.912894, 19.233990)">
                        <mask id="mask-2" fill="white">
                            <use xlink:href="#path-1"></use>
                        </mask>
                        <g id="Clip-30"></g>
                        <path d="M2.51904727,4.02332208 L2.51904727,1.49925074 C2.51904727,0.608326298 3.29469377,-0.019311946 4.16890663,0.167370198 L6.91008257,0.754453356 C7.74564196,0.934054453 8.42465475,1.7741241 8.42465475,2.62706838 L8.42465475,4.98634445 C8.42465475,5.87405023 7.70183468,6.59567328 6.8140931,6.59567328 L4.50132656,6.59567328 L4.50132656,6.59824821 L0.241068869,6.59824821 L0.241068869,4.02332208 L2.51904727,4.02332208 Z" id="Fill-29" fill="#5FC1A6" mask="url(#mask-2)"></path>
                    </g>
                </g>
            </g>
        </g>
    </g>
</svg>