<?xml version="1.0" encoding="UTF-8" standalone="no"?>
<svg width="100px" height="100px" viewBox="0 0 100 100" version="1.1" xmlns="http://www.w3.org/2000/svg" xmlns:xlink="http://www.w3.org/1999/xlink">
    <!-- Generator: Sketch 3.7.2 (28276) - http://www.bohemiancoding.com/sketch -->
    <title>icn_shuttle_color</title>
    <desc>Created with Sketch.</desc>
    <defs>
        <polygon id="path-1" points="0 53.5407767 72.6179612 53.5407767 72.6179612 0 0 0"></polygon>
    </defs>
    <g id="Page-1" stroke="none" stroke-width="1" fill="none" fill-rule="evenodd">
        <g id="Desktop-Copy-12" transform="translate(-462.000000, -118.000000)">
            <g id="icn_shuttle_color" transform="translate(462.000000, 118.000000)">
                <ellipse id="Oval-171-Copy" fill="#21A073" cx="50" cy="50" rx="50" ry="50"></ellipse>
                <g id="Page-1" transform="translate(16.563107, 23.300971)">
                    <path d="M2.35941748,52.084466 C2.35941748,52.8854369 3.01475728,53.5407767 3.81572816,53.5407767 L7.45650485,53.5407767 C8.25747573,53.5407767 8.91281553,52.8854369 8.91281553,52.084466 L8.91281553,49.6781553 C6.16669903,49.2873786 3.89533981,48.8427184 2.35941748,48.4441748 L2.35941748,52.084466 L2.35941748,52.084466 Z" id="Fill-1" fill="#5FC1A6"></path>
                    <path d="M7.45650485,41.768932 L3.81572816,41.768932 C3.01475728,41.768932 2.35941748,42.4242718 2.35941748,43.2252427 L2.35941748,48.4441748 C3.89533981,48.8427184 6.16669903,49.2873786 8.91281553,49.6781553 L8.91281553,43.2252427 C8.91281553,42.4242718 8.25747573,41.768932 7.45650485,41.768932" id="Fill-3" fill="#2DA87C"></path>
                    <path d="M43.7926699,52.084466 C43.7926699,52.8854369 43.1368447,53.5407767 42.3363592,53.5407767 L38.6955825,53.5407767 C37.8950971,53.5407767 37.2392718,52.8854369 37.2392718,52.084466 L37.2392718,49.6781553 C39.9853883,49.2873786 42.2567476,48.8427184 43.7926699,48.4441748 L43.7926699,52.084466 Z" id="Fill-5" fill="#5FC1A6"></path>
                    <path d="M38.6958252,41.768932 L42.3366019,41.768932 C43.1370874,41.768932 43.7929126,42.4242718 43.7929126,43.2252427 L43.7929126,48.4441748 C42.2569903,48.8427184 39.9856311,49.2873786 37.2395146,49.6781553 L37.2395146,43.2252427 C37.2395146,42.4242718 37.8953398,41.768932 38.6958252,41.768932" id="Fill-7" fill="#2DA87C"></path>
                    <mask id="mask-2" fill="white">
                        <use xlink:href="#path-1"></use>
                    </mask>
                    <g id="Clip-10"></g>
                    <polygon id="Fill-9" fill="#5FC1A6" mask="url(#mask-2)" points="59.75 51.3572816 62.1771845 51.3572816 62.1771845 20.9359223 59.75 20.9359223"></polygon>
                    <path d="M3.07572816,30.3150485 L42.876699,30.3150485 L42.876699,9.38737864 L3.07572816,9.38737864 L3.07572816,30.3150485 Z M46.0839806,47.442233 L46.0645631,6.30631068 C46.0645631,6.30631068 40.568932,0.00582524272 22.8368932,0.000485436893 L22.8368932,0 L22.826699,0 L22.815534,0 L22.815534,0.000485436893 C5.08203883,0.00582524272 0,6.30631068 0,6.30631068 L0.00873786408,47.4927184 L0.0131067961,47.4927184 C0.0111650485,47.515534 0.0067961165,47.5466019 0.0067961165,47.5631068 C0.0067961165,47.7708738 0.991262136,48.0893204 2.3592233,48.4441748 L2.3592233,43.2252427 C2.3592233,42.4242718 3.01456311,41.768932 3.81553398,41.768932 L7.45631068,41.768932 C8.25728155,41.768932 8.91262136,42.4242718 8.91262136,43.2252427 L8.91262136,49.6781553 C12.9873786,50.2572816 17.6800971,50.7145631 22.934466,50.7145631 L22.9378641,50.7145631 L22.9383495,50.7145631 L22.942233,50.7145631 C28.1961165,50.7145631 33.1645631,50.2572816 37.2393204,49.6781553 L37.2393204,43.2252427 C37.2393204,42.4242718 37.8946602,41.768932 38.6956311,41.768932 L42.3364078,41.768932 C43.1368932,41.768932 43.7927184,42.4242718 43.7927184,43.2252427 L43.7927184,48.4441748 C45.1601942,48.0893204 46.0597087,47.7694175 46.0839806,47.5631068 C46.0868932,47.5373786 46.0868932,47.4966019 46.0839806,47.442233 L46.0839806,47.442233 Z" id="Fill-11" fill="#5FC1A6" mask="url(#mask-2)"></path>
                    <polygon id="Fill-12" fill="#5FC1A6" mask="url(#mask-2)" points="57.018932 52.0893204 64.9087379 52.0893204 64.9087379 49.4432039 57.018932 49.4432039"></polygon>
                    <path d="M10.126165,36.5101942 C10.126165,37.3815534 9.45140777,38.0878641 8.61936893,38.0878641 L3.86597087,38.0878641 C3.03393204,38.0878641 2.35917476,37.3815534 2.35917476,36.5101942 C2.35917476,35.638835 3.03393204,34.9325243 3.86597087,34.9325243 L8.61936893,34.9325243 C9.45140777,34.9325243 10.126165,35.638835 10.126165,36.5101942" id="Fill-13" fill="#FFFFFF" mask="url(#mask-2)"></path>
                    <path d="M43.7929126,36.5101942 C43.7929126,37.3815534 43.1181553,38.0878641 42.2861165,38.0878641 L37.5327184,38.0878641 C36.7006796,38.0878641 36.0259223,37.3815534 36.0259223,36.5101942 C36.0259223,35.638835 36.7006796,34.9325243 37.5327184,34.9325243 L42.2861165,34.9325243 C43.1181553,34.9325243 43.7929126,35.638835 43.7929126,36.5101942" id="Fill-14" fill="#FFFFFF" mask="url(#mask-2)"></path>
                    <polygon id="Fill-15" fill="#FFFFFF" mask="url(#mask-2)" points="3.11941748 30.2402913 42.8441748 30.2402913 42.8441748 9.36650485 3.11941748 9.36650485"></polygon>
                    <polygon id="Fill-16" fill="#FFFFFF" mask="url(#mask-2)" points="60.9645146 21.1700971 51.7407282 11.9472816 60.9640291 2.72349515 70.1873301 11.9472816"></polygon>
                    <path d="M68.4719417,12.6137864 L61.6549515,19.4302913 C61.4709709,19.6142718 61.2258252,19.7152427 60.9641748,19.7152427 C60.7020388,19.7152427 60.4568932,19.6142718 60.2738835,19.4302913 L53.4564078,12.6137864 C53.2729126,12.4302913 53.1719417,12.1851456 53.1719417,11.9230097 C53.1719417,11.6613592 53.2729126,11.4162136 53.4564078,11.2327184 L60.2738835,4.41524272 C60.6413592,4.04776699 61.2869903,4.04776699 61.6549515,4.41524272 L68.4719417,11.2327184 C68.6559223,11.4162136 68.7564078,11.6613592 68.7564078,11.9230097 C68.7564078,12.1851456 68.6559223,12.4302913 68.4719417,12.6137864 M72.1695146,10.8419417 L62.0496117,0.721553398 C61.7602913,0.43223301 61.3748544,0.273495146 60.9641748,0.273495146 C60.5530097,0.273495146 60.1680583,0.43223301 59.8782524,0.721553398 L49.7583495,10.8419417 C49.4690291,11.1307767 49.3102913,11.5162136 49.3102913,11.9273786 C49.3102913,12.3385437 49.4690291,12.7239806 49.7583495,13.0128155 L59.8782524,23.1332039 C60.1680583,23.4215534 60.5530097,23.5812621 60.9641748,23.5812621 C61.3748544,23.5812621 61.7602913,23.4215534 62.0496117,23.1332039 L72.1695146,13.0128155 C72.458835,12.7239806 72.6180583,12.3385437 72.6180583,11.9273786 C72.6180583,11.5162136 72.458835,11.1307767 72.1695146,10.8419417" id="Fill-17" fill="#2DA87C" mask="url(#mask-2)"></path>
                </g>
            </g>
        </g>
    </g>
</svg>