<?xml version="1.0" encoding="UTF-8" standalone="no"?>
<svg width="219px" height="36px" viewBox="0 0 219 36" version="1.1" xmlns="http://www.w3.org/2000/svg" xmlns:xlink="http://www.w3.org/1999/xlink" xmlns:sketch="http://www.bohemiancoding.com/sketch/ns">
    <!-- Generator: Sketch 3.4.2 (15855) - http://www.bohemiancoding.com/sketch -->
    <title>Group Copy 5</title>
    <desc>Created with Sketch.</desc>
    <defs></defs>
    <g id="Page-1" stroke="none" stroke-width="1" fill="none" fill-rule="evenodd" sketch:type="MSPage">
        <g id="Group-Copy-5" sketch:type="MSLayerGroup">
            <path d="M152.055032,27.2217259 C151.675796,27.2217259 151.367894,26.9145043 151.367894,26.5358989 L151.367894,9.65226719 C151.367894,9.2727582 151.675796,8.96644024 152.055032,8.96644024 C152.436073,8.96644024 152.74217,9.2727582 152.74217,9.65226719 L152.74217,26.5358989 C152.74217,26.9145043 152.436073,27.2217259 152.055032,27.2217259" id="Fill-57" fill="#FFFFFF" sketch:type="MSShapeGroup"></path>
            <path d="M174.224676,21.130426 C174.13077,21.130426 174.102779,21.1692805 174.095555,21.1927739 C173.418349,22.9602014 171.537523,24.1005356 169.308161,24.1005356 C165.930258,24.1005356 163.476064,21.4240937 163.476064,17.7338206 C163.476064,13.9983679 165.854411,11.3887919 169.260305,11.3887919 C171.20524,11.3887919 173.030987,12.378226 173.919481,13.9134302 C173.949279,13.9568026 174.006164,13.9568026 174.02332,13.9568026 C174.221064,13.9568026 174.974117,13.6983751 174.974117,12.9248996 C174.974117,12.0384751 172.988549,9.88069545 169.308161,9.88069545 C164.838602,9.88069545 161.714426,13.1291116 161.714426,17.7808074 C161.714426,22.3900344 164.808805,25.6113428 169.239537,25.6113428 C173.145661,25.6113428 175.25132,23.1517631 175.25132,22.1496787 C175.25132,21.4331296 174.516326,21.130426 174.224676,21.130426" id="Fill-58" fill="#FFFFFF" sketch:type="MSShapeGroup"></path>
            <path d="M184.612021,24.1006259 C181.246759,24.1006259 178.805206,21.424184 178.805206,17.733911 C178.805206,13.9984583 181.174524,11.3888822 184.565971,11.3888822 C187.929426,11.3888822 190.370076,14.0761672 190.370076,17.7808978 C190.370076,21.5000858 188.003468,24.1006259 184.612021,24.1006259 M184.612021,9.88078581 C180.156006,9.88078581 177.042665,13.1282984 177.042665,17.7808978 C177.042665,22.3892211 180.136141,25.6114331 184.565971,25.6114331 C189.021985,25.6114331 192.135326,22.3711493 192.135326,17.733911 C192.135326,13.1102265 189.040947,9.88078581 184.612021,9.88078581" id="Fill-59" fill="#FFFFFF" sketch:type="MSShapeGroup"></path>
            <path d="M203.748414,14.6199494 C203.748414,16.4940009 202.477073,17.5240967 200.172767,17.5240967 L196.642267,17.5240967 L196.642267,11.7139949 L200.078861,11.7139949 C202.514094,11.7139949 203.748414,12.6916823 203.748414,14.6199494 M205.511858,14.572059 C205.511858,11.6859835 203.616585,10.1589117 200.032811,10.1589117 L195.900049,10.1589117 C195.375441,10.1589117 194.948349,10.5863111 194.948349,11.1103949 L194.948349,24.6353722 C194.948349,25.1504201 195.203882,25.4233051 195.692373,25.4233051 L195.876573,25.4233051 C196.340685,25.4233051 196.642267,25.1151799 196.642267,24.6353722 L196.642267,19.0096033 L198.424673,19.0096033 L203.277982,24.8413913 C203.605749,25.2335506 203.941644,25.4233051 204.303723,25.4233051 C204.817496,25.4233051 205.17777,25.0627716 205.296055,24.8169943 C205.349329,24.7094668 205.352941,24.6209147 205.309599,24.5657955 L200.596246,19.0059889 C203.722229,18.914726 205.511858,17.3045237 205.511858,14.572059" id="Fill-60" fill="#FFFFFF" sketch:type="MSShapeGroup"></path>
            <path d="M212.875705,17.9439963 L209.832793,17.9439963 L209.832793,11.7137238 L212.943425,11.7137238 C215.470758,11.7137238 216.753837,12.7618915 216.753837,14.8284083 C216.753837,16.894925 215.449087,17.9439963 212.875705,17.9439963 M212.921755,10.1595442 L209.068002,10.1595442 C208.544296,10.1595442 208.116302,10.58604 208.116302,11.1110274 L208.116302,24.6351011 C208.116302,25.1510526 208.372737,25.423034 208.859422,25.423034 L209.068002,25.423034 C209.532114,25.423034 209.832793,25.1158125 209.832793,24.6351011 L209.832793,19.4746825 L212.735749,19.4746825 C216.516364,19.4746825 218.517281,17.8527334 218.517281,14.782325 C218.517281,11.8429376 216.477537,10.1595442 212.921755,10.1595442" id="Fill-61" fill="#FFFFFF" sketch:type="MSShapeGroup"></path>
            <path d="M43.3246612,16.7924576 L53.3789112,16.7924576 C53.1938082,13.8910211 51.4032759,12.0088372 48.6592376,12.0088372 C45.8854024,12.0088372 43.75717,13.9840911 43.3246612,16.7924576 M41.2596347,18.0267654 C41.2596347,13.5512702 44.4045788,10.2513492 48.6592376,10.2513492 C52.7929024,10.2513492 55.5062406,13.1826043 55.5062406,17.6562923 L55.5062406,17.843336 C55.5062406,18.3972384 55.2904376,18.5210307 54.6728259,18.5210307 L43.2632612,18.5210307 C43.4167612,21.6682444 45.6993965,23.8892756 48.8452435,23.8892756 C51.7120818,23.8892756 53.0096082,22.6558714 53.8710141,21.2679528 C53.93422,21.1739792 55.0430318,21.4504786 55.0430318,22.4100941 C55.0430318,23.4275396 52.8236024,25.6801965 48.8452435,25.6801965 C44.3738788,25.6801965 41.2596347,22.5329828 41.2596347,18.0267654" id="Fill-62" fill="#FFFFFF" sketch:type="MSShapeGroup"></path>
            <path d="M68.2093588,19.4767608 L68.2093588,18.1195644 L67.34705,18.1511901 C62.3212794,18.3355231 59.7307412,19.2309835 59.7307412,21.5441811 C59.7307412,23.0269769 60.9316529,23.9820746 62.9370853,23.9820746 C65.9601324,23.9820746 68.2093588,22.0998907 68.2093588,19.4767608 M57.6937059,21.5441811 C57.6937059,18.1195644 61.1176588,16.7000201 67.9014559,16.5455057 L68.2093588,16.5455057 L68.2093588,16.0214219 C68.2093588,13.491362 66.7303412,12.1025398 64.0784029,12.1025398 C61.7045706,12.1025398 60.1930471,13.3061254 59.3903324,14.8187398 C59.3903324,14.8485584 58.2508206,14.7247662 58.2508206,13.6449728 C58.2508206,12.5949979 60.3465471,10.2510781 64.2328059,10.2510781 C67.9637588,10.2510781 70.1849941,12.4115686 70.1849941,15.959074 L70.1849941,25.2172859 C70.1849941,25.2787302 69.8752853,25.4341482 69.5050794,25.4341482 C68.8269706,25.4341482 68.2418647,25.0934937 68.2418647,23.4887129 L68.2418647,22.9339069 C67.0698471,24.6308542 65.0951147,25.6492033 62.7501765,25.6492033 C59.5447353,25.6492033 57.6937059,24.0137003 57.6937059,21.5441811" id="Fill-63" fill="#FFFFFF" sketch:type="MSShapeGroup"></path>
            <path d="M73.0811779,22.6861417 C73.0811779,21.8530292 74.0987926,21.5440004 74.1592897,21.6072519 C75.1471074,22.9653519 76.7507309,23.9827974 79.1868662,23.9827974 C81.6230015,23.9827974 82.9801221,22.9951705 82.9801221,21.5141819 C82.9801221,19.7548866 81.4388015,19.3862208 78.6640632,18.7979819 C76.3823309,18.3037166 73.5136868,17.6567441 73.5136868,14.6929597 C73.5136868,12.0707334 75.7340191,10.2508974 79.1254662,10.2508974 C82.7029191,10.2508974 84.5530456,11.9478447 84.5530456,13.0592639 C84.5530456,13.829125 83.5047309,14.2005016 83.4424279,14.1074316 C82.6117221,12.841498 81.1299956,11.9478447 79.1254662,11.9478447 C76.7191279,11.9478447 75.4252132,12.9670974 75.4252132,14.4164603 C75.4252132,15.9896154 76.8130338,16.4215328 79.527275,17.0088681 C81.9002044,17.5347591 84.9214456,18.180828 84.9214456,21.2060567 C84.9214456,23.9213531 82.7029191,25.6797447 79.1254662,25.6797447 C75.2094103,25.6797447 73.0811779,23.7975609 73.0811779,22.6861417" id="Fill-64" fill="#FFFFFF" sketch:type="MSShapeGroup"></path>
            <path d="M88.3464821,24.4765205 L88.3464821,11.4548445 C88.3464821,10.7120912 88.715785,10.4979397 89.2385879,10.4979397 L89.4552938,10.4979397 C89.9799026,10.4979397 90.3501085,10.7120912 90.3501085,11.4548445 L90.3501085,24.4765205 C90.3501085,25.2165631 89.9799026,25.4343289 89.4552938,25.4343289 L89.2385879,25.4343289 C88.715785,25.4343289 88.3464821,25.2165631 88.3464821,24.4765205" id="Fill-65" fill="#FFFFFF" sketch:type="MSShapeGroup"></path>
            <path d="M97.47296,24.7235628 L93.9253041,11.0820221 C93.8955071,10.9609407 94.4508159,10.4983011 95.0982247,10.4983011 C95.5596276,10.4983011 96.0851394,10.8371484 96.3018453,11.9178454 L98.9835806,23.4576293 L102.127622,13.5515413 C102.313628,12.9669167 102.621531,12.7193323 103.640048,12.7193323 C104.657663,12.7193323 104.966469,12.9669167 105.150669,13.5515413 L108.264913,23.4576293 L110.917754,11.9178454 C111.101954,10.8371484 111.657263,10.4983011 112.121375,10.4983011 C112.736278,10.4983011 113.261789,10.9907592 113.228381,11.0820221 L109.715939,24.7235628 C109.591334,25.2485502 109.375531,25.4952311 108.234213,25.4952311 C107.217501,25.4952311 107.063098,25.2485502 106.877995,24.7235628 L103.640048,14.663864 L100.310001,24.7235628 C100.124898,25.2485502 99.9704953,25.4952311 98.9528806,25.4952311 C97.8124659,25.4952311 97.59576,25.2485502 97.47296,24.7235628" id="Fill-66" fill="#FFFFFF" sketch:type="MSShapeGroup"></path>
            <path d="M125.626305,19.4767608 L125.626305,18.1195644 L124.76219,18.1511901 C119.736419,18.3355231 117.145881,19.2309835 117.145881,21.5441811 C117.145881,23.0269769 118.348599,23.9820746 120.352225,23.9820746 C123.375272,23.9820746 125.626305,22.0998907 125.626305,19.4767608 M115.111555,21.5441811 C115.111555,18.1195644 118.533702,16.7000201 125.318402,16.5455057 L125.626305,16.5455057 L125.626305,16.0214219 C125.626305,13.491362 124.146384,12.1025398 121.493543,12.1025398 C119.119711,12.1025398 117.607284,13.3061254 116.805472,14.8187398 C116.805472,14.8485584 115.664155,14.7247662 115.664155,13.6449728 C115.664155,12.5949979 117.760784,10.2510781 121.647946,10.2510781 C125.378899,10.2510781 127.598328,12.4115686 127.598328,15.959074 L127.598328,25.2172859 C127.598328,25.2787302 127.290425,25.4341482 126.921122,25.4341482 C126.243916,25.4341482 125.655199,25.0934937 125.655199,23.4887129 L125.655199,22.9339069 C124.484987,24.6308542 122.511158,25.6492033 120.168025,25.6492033 C116.961681,25.6492033 115.111555,24.0137003 115.111555,21.5441811" id="Fill-67" fill="#FFFFFF" sketch:type="MSShapeGroup"></path>
            <path d="M142.294599,10.4982108 C141.648093,10.4982108 141.184884,10.8668766 140.815581,11.9475737 L137.016908,21.9006485 L131.839443,11.8852257 C131.406934,10.8063359 131.035825,10.4982108 130.327919,10.4982108 C129.619111,10.4982108 129.310305,10.9608503 129.342811,11.0819317 L136.048052,24.1361371 L133.473766,30.8642892 C133.442164,30.9573593 133.844875,31.2654844 134.398378,31.2654844 C134.922987,31.2654844 135.415993,31.0197072 135.815996,29.9390102 L143.191219,10.8985024 C143.219211,10.8063359 142.850811,10.4982108 142.294599,10.4982108" id="Fill-68" fill="#FFFFFF" sketch:type="MSShapeGroup"></path>
            <path d="M19.4496324,20.1668346 L4.96103824,5.66778431 C1.93708824,8.88096036 0.0860588235,13.2073628 0.0860588235,17.9711041 C0.0860588235,18.8521071 0.149264706,19.7195562 0.272967647,20.5671262 C2.74070588,22.5640663 6.14750294,23.6709675 9.60396176,23.6709675 C13.3033118,23.6709675 16.9033382,22.5640663 19.4496324,20.1668346" id="Fill-69" fill="#FFFFFF" sketch:type="MSShapeGroup"></path>
            <path d="M25.1044821,1.48170988 C22.9311026,0.544684132 20.5346968,0.0242146707 18.013685,0.0242146707 C12.8687262,0.0242146707 8.23122029,2.19464461 4.96076735,5.66805539 L19.4493615,20.1671057 L30.3081321,31.0355201 C33.7817468,27.7627069 35.9488056,23.120047 35.9488056,17.9713751 C35.9488056,10.5808895 31.4819556,4.23405359 25.1044821,1.48170988" id="Fill-70" fill="#FFFFFF" sketch:type="MSShapeGroup"></path>
            <path d="M9.57985324,23.4538342 C6.12610324,23.4538342 2.921565,22.3894019 0.272335588,20.5677587 C1.52922971,29.2467677 8.99565029,35.9152827 18.0142268,35.9152827 C22.7745326,35.9152827 27.0987179,34.0611102 30.3077709,31.0358815 L19.4499032,20.1665635 C16.7004474,22.2321767 13.282815,23.4538342 9.57985324,23.4538342" id="Fill-71" fill="#0E174E" sketch:type="MSShapeGroup"></path>
            <path d="M23.9210874,24.6309446 C25.5806932,21.6129446 29.4172903,19.2672176 29.4172903,19.2672176 C28.6037403,18.2326038 27.503055,17.7030984 26.2569962,17.7320134 C24.8763991,17.7654463 23.9770697,18.0554996 22.1468079,18.9211416 C21.270955,19.3367943 20.3734315,19.7632901 19.4569462,20.1599673 L4.96112853,5.66543497 C3.64102853,7.40485114 2.85456676,9.57347389 2.85456676,11.9237188 C2.85456676,15.469417 4.63245794,18.5967517 7.34308735,20.4635745 C8.146705,21.0662709 8.98644029,21.4746949 9.85326382,21.7277008 C10.9033844,22.0864272 12.0293521,22.2816032 13.2031756,22.2816032 C15.5499197,22.2816032 17.7232991,21.4963811 19.4569462,20.1789428 L23.911155,24.6327517 C23.3720991,25.384541 23.0723226,26.3287954 23.0723226,27.3254583 C23.0723226,29.8519038 25.1183874,31.9030595 27.6448168,31.9030595 C28.6434697,31.9030595 29.5689844,31.5795733 30.3202315,31.0356104 L23.9210874,24.6309446 Z" id="Fill-72" fill="#293A8F" sketch:type="MSShapeGroup"></path>
            <path d="M27.2763265,19.043488 C27.2122176,19.3344449 26.9268882,19.5214886 26.6325294,19.4609479 C26.3444912,19.3986 26.1575824,19.1112575 26.2198853,18.8203006 C26.2812853,18.5266329 26.5657118,18.3395892 26.8582647,18.4028407 C27.1508176,18.464285 27.3359206,18.7516275 27.2763265,19.043488" id="Fill-73" fill="#FFFFFF" sketch:type="MSShapeGroup"></path>
            <path d="M27.3785394,18.9702066 C27.3162365,19.2629707 27.0309071,19.4491108 26.7365482,19.3894737 C26.44851,19.3271258 26.2606982,19.0379761 26.3239041,18.7488264 C26.3834982,18.4569659 26.6697306,18.2672114 26.9613806,18.3304629 C27.2530306,18.3937144 27.4399394,18.6801534 27.3785394,18.9702066" id="Fill-74" fill="#FFFFFF" sketch:type="MSShapeGroup"></path>
        </g>
    </g>
</svg>