<?xml version="1.0" encoding="utf-8"?>
<!-- Generator: Adobe Illustrator 16.0.0, SVG Export Plug-In . SVG Version: 6.00 Build 0)  -->
<!DOCTYPE svg PUBLIC "-//W3C//DTD SVG 1.1//EN" "http://www.w3.org/Graphics/SVG/1.1/DTD/svg11.dtd">
<svg version="1.1" id="Layer_1" xmlns="http://www.w3.org/2000/svg" xmlns:xlink="http://www.w3.org/1999/xlink" x="0px" y="0px"
	 width="80px" height="80px" viewBox="0 0 80 80" enable-background="new 0 0 80 80" xml:space="preserve">
<g>
	<circle fill="#FFFFFF" cx="40" cy="34.022" r="18.666"/>
	<g>
		<path fill="#FFFFFF" d="M40,62.373c-4.973,0-9.645-1.284-13.709-3.534c-5.523,2.078-10.45,5.374-14.457,9.559
			C19.062,75.568,29.013,80,40,80s20.938-4.432,28.166-11.604c-4.006-4.185-8.934-7.479-14.457-9.558
			C49.645,61.089,44.973,62.373,40,62.373z"/>
		<path fill="#5FC1A6" d="M53.709,58.839c-4.265-1.604-8.883-2.483-13.709-2.483s-9.444,0.879-13.709,2.483
			c4.064,2.25,8.736,3.534,13.709,3.534S49.645,61.089,53.709,58.839z"/>
	</g>
	<path fill="#2DA87C" d="M40,56.355c11.076,0,21.066,4.626,28.166,12.041C75.473,61.149,80,51.104,80,40C80,17.908,62.092,0,40,0
		S0,17.908,0,40c0,11.104,4.527,21.149,11.834,28.397C18.934,60.981,28.924,56.355,40,56.355z M40,15.356
		c10.309,0,18.666,8.357,18.666,18.666S50.309,52.688,40,52.688s-18.666-8.357-18.666-18.666S29.691,15.356,40,15.356z"/>
</g>
</svg>
