<?xml version="1.0" encoding="UTF-8" standalone="no"?>
<svg width="375px" height="165px" viewBox="0 0 375 165" version="1.1" xmlns="http://www.w3.org/2000/svg" xmlns:xlink="http://www.w3.org/1999/xlink">
    <!-- Generator: Sketch 3.7.2 (28276) - http://www.bohemiancoding.com/sketch -->
    <title>footerillu-sm</title>
    <desc>Created with Sketch.</desc>
    <defs></defs>
    <g id="Page-1" stroke="none" stroke-width="1" fill="none" fill-rule="evenodd">
        <g id="footerillu-sm">
            <rect id="path-1" fill="#FFFFFF" x="0" y="0" width="375" height="165"></rect>
            <path d="M145.0303,80.9992 C144.8933,88.3032 150.7063,94.3342 158.0083,94.4692 C165.3113,94.6032 171.3423,88.7912 171.4793,81.4872 C171.6143,74.1832 165.8013,68.1522 158.4973,68.0182 C151.1933,67.8832 145.1613,73.6952 145.0303,80.9992 L145.0303,80.9992 L145.0303,80.9992 Z" id="Stroke-1" stroke="#C4C4C4" stroke-width="0.7"></path>
            <path d="M158.251,114.7922 L158.251,81.2692" id="Stroke-3" stroke="#C4C4C4" stroke-width="0.7"></path>
            <polyline id="Stroke-5" stroke="#C4C4C4" stroke-width="0.7" points="62.6982 114.0705 62.6982 35.8035 89.9322 35.8035 89.9322 114.3255"></polyline>
            <path d="M66.0537,39.7077 L86.5787,39.7077" id="Stroke-7" stroke="#C4C4C4" stroke-width="0.7"></path>
            <path d="M66.0527,43.3381 L86.5777,43.3381" id="Stroke-9" stroke="#C4C4C4" stroke-width="0.7"></path>
            <path d="M66.0537,46.9689 L86.5787,46.9689" id="Stroke-11" stroke="#C4C4C4" stroke-width="0.7"></path>
            <path d="M66.0537,50.5998 L86.5787,50.5998" id="Stroke-13" stroke="#C4C4C4" stroke-width="0.7"></path>
            <path d="M66.0537,54.2307 L86.5787,54.2307" id="Stroke-15" stroke="#C4C4C4" stroke-width="0.7"></path>
            <path d="M66.0537,57.861 L86.5787,57.861" id="Stroke-17" stroke="#C4C4C4" stroke-width="0.7"></path>
            <path d="M66.0537,61.4924 L86.5787,61.4924" id="Stroke-19" stroke="#C4C4C4" stroke-width="0.7"></path>
            <path d="M66.0537,65.1228 L86.5787,65.1228" id="Stroke-21" stroke="#C4C4C4" stroke-width="0.7"></path>
            <path d="M66.0537,68.7531 L86.5787,68.7531" id="Stroke-23" stroke="#C4C4C4" stroke-width="0.7"></path>
            <path d="M66.0537,72.384 L86.5787,72.384" id="Stroke-25" stroke="#C4C4C4" stroke-width="0.7"></path>
            <path d="M66.0537,76.0148 L86.5787,76.0148" id="Stroke-27" stroke="#C4C4C4" stroke-width="0.7"></path>
            <path d="M66.0537,79.6457 L86.5787,79.6457" id="Stroke-29" stroke="#C4C4C4" stroke-width="0.7"></path>
            <path d="M66.0537,83.2761 L86.5787,83.2761" id="Stroke-31" stroke="#C4C4C4" stroke-width="0.7"></path>
            <path d="M66.0537,86.9074 L86.5787,86.9074" id="Stroke-33" stroke="#C4C4C4" stroke-width="0.7"></path>
            <path d="M66.0537,90.5378 L86.5787,90.5378" id="Stroke-35" stroke="#C4C4C4" stroke-width="0.7"></path>
            <path d="M66.0537,94.1682 L86.5787,94.1682" id="Stroke-37" stroke="#C4C4C4" stroke-width="0.7"></path>
            <path d="M66.0537,97.799 L86.5787,97.799" id="Stroke-39" stroke="#C4C4C4" stroke-width="0.7"></path>
            <path d="M66.0537,101.4299 L86.5787,101.4299" id="Stroke-41" stroke="#C4C4C4" stroke-width="0.7"></path>
            <path d="M66.0537,105.0607 L86.5787,105.0607" id="Stroke-43" stroke="#C4C4C4" stroke-width="0.7"></path>
            <path d="M66.0537,108.6911 L86.5787,108.6911" id="Stroke-45" stroke="#C4C4C4" stroke-width="0.7"></path>
            <polyline id="Stroke-47" stroke="#C4C4C4" stroke-width="0.7" points="71.4434 35.781 71.4434 31.779 62.6984 31.779 62.6984 35.781"></polyline>
            <polyline id="Stroke-49" stroke="#C4C4C4" stroke-width="0.7" points="69.2754 31.7102 69.2754 25.3662 64.8674 25.3662 64.8674 31.7102"></polyline>
            <path d="M67.0928,25.3576 L67.0928,0.3486" id="Stroke-51" stroke="#C4C4C4" stroke-width="0.7"></path>
            <polyline id="Stroke-53" stroke="#C4C4C4" stroke-width="0.7" points="89.9326 35.781 89.9326 31.779 81.1906 31.779 81.1906 35.781"></polyline>
            <polyline id="Stroke-55" stroke="#C4C4C4" stroke-width="0.7" points="87.7666 31.7102 87.7666 25.3662 83.3516 25.3662 83.3516 31.7102"></polyline>
            <path d="M85.5791,25.3576 L85.5791,0.3486" id="Stroke-57" stroke="#C4C4C4" stroke-width="0.7"></path>
            <path d="M8.3496,115.0637 L366.1726,115.0637" id="Stroke-59" stroke="#C4C4C4" stroke-width="0.7"></path>
            <path d="M60.3271,132.2077 L82.2721,132.2077" id="Stroke-61" stroke="#C4C4C4" stroke-width="0.7"></path>
            <path d="M21.4932,142.1008 L35.4342,142.1008" id="Stroke-63" stroke="#C4C4C4" stroke-width="0.7"></path>
            <path d="M45.1143,147.8083 L54.8723,147.8083" id="Stroke-65" stroke="#C4C4C4" stroke-width="0.7"></path>
            <path d="M98.1201,126.8469 L175.3401,126.8469" id="Stroke-67" stroke="#C4C4C4" stroke-width="0.7"></path>
            <path d="M137.8057,141.4919 L185.7337,141.4919" id="Stroke-69" stroke="#C4C4C4" stroke-width="0.7"></path>
            <path d="M193.2666,150.3737 L209.1626,150.3737" id="Stroke-71" stroke="#C4C4C4" stroke-width="0.7"></path>
            <path d="M266.5576,133.0373 L309.3996,133.0373" id="Stroke-73" stroke="#C4C4C4" stroke-width="0.7"></path>
            <path d="M325.2568,152.3576 L341.1468,152.3576" id="Stroke-75" stroke="#C4C4C4" stroke-width="0.7"></path>
            <path d="M321.8271,125.9021 L360.6841,125.9021" id="Stroke-77" stroke="#C4C4C4" stroke-width="0.7"></path>
            <path d="M248.0381,145.7434 L264.7871,145.7434" id="Stroke-79" stroke="#C4C4C4" stroke-width="0.7"></path>
            <path d="M297.4043,145.7434 L308.9563,145.7434" id="Stroke-81" stroke="#C4C4C4" stroke-width="0.7"></path>
            <path d="M336.1953,138.4992 L349.6593,138.4992" id="Stroke-83" stroke="#C4C4C4" stroke-width="0.7"></path>
            <path d="M205.9932,129.632 L232.6632,129.632" id="Stroke-88" stroke="#C4C4C4" stroke-width="0.7"></path>
            <path d="M239.0615,129.632 L245.8895,129.632" id="Stroke-90" stroke="#C4C4C4" stroke-width="0.7"></path>
            <path d="M109.6172,136.9245 L116.4462,136.9245" id="Stroke-92" stroke="#C4C4C4" stroke-width="0.7"></path>
            <path d="M29.708,125.509 L36.538,125.509" id="Stroke-94" stroke="#C4C4C4" stroke-width="0.7"></path>
            <path d="M83.4756,150.9392 L99.7526,150.9392" id="Stroke-96" stroke="#C4C4C4" stroke-width="0.7"></path>
            <path d="M117.4893,150.9392 L125.7363,150.9392" id="Stroke-98" stroke="#C4C4C4" stroke-width="0.7"></path>
            <path d="M316.6641,40.1418 L316.6641,114.3738" id="Stroke-100" stroke="#D6D6D6" stroke-width="0.7"></path>
            <polyline id="Stroke-102" stroke="#C4C4C4" stroke-width="0.7" points="274.5566 30.7644 262.4216 37.4914 274.6036 48.7204 248.6346 62.9804 248.6346 114.3244 262.3356 96.8964 274.5566 114.3244 274.5566 30.7644 262.2536 18.0484 262.2536 114.3244 274.5236 98.0844 262.0586 73.3564 248.7536 80.4094"></polyline>
            <polyline id="Stroke-104" stroke="#C4C4C4" stroke-width="0.7" points="262.4219 55.3713 274.6039 66.5993 262.2989 73.3563 248.6349 62.9803"></polyline>
            <path d="M262.1279,90.6442 L248.6349,80.4082" id="Stroke-106" stroke="#C4C4C4" stroke-width="0.7"></path>
            <polyline id="Stroke-108" stroke="#C4C4C4" stroke-width="0.7" points="262.2383 90.6716 248.7543 97.4946 262.1303 114.3186"></polyline>
            <polyline id="Stroke-110" stroke="#C4C4C4" stroke-width="0.7" points="262.3359 96.8962 274.5099 82.7572 262.2989 73.3562"></polyline>
            <path d="M268.3662,24.0627 L268.3662,3.4507" id="Stroke-112" stroke="#C4C4C4" stroke-width="0.7"></path>
            <path d="M263.4297,19.0398 L263.4297,5.0818" id="Stroke-114" stroke="#C4C4C4" stroke-width="0.7"></path>
            <polygon id="Stroke-116" stroke="#C4C4C4" stroke-width="0.7" points="280.772 40.046 319.195 40.046 319.195 37.212 280.772 37.212"></polygon>
            <path d="M283.3672,40.1418 L283.3672,114.3738" id="Stroke-118" stroke="#C4C4C4" stroke-width="0.7"></path>
            <polygon id="Stroke-119" stroke="#C4C4C4" stroke-width="0.7" points="286.758 76.065 313.211 76.065 313.211 70.397 286.758 70.397"></polygon>
            <path d="M299.9844,70.239 L299.9844,76.223" id="Stroke-120" stroke="#C4C4C4" stroke-width="0.7"></path>
            <polygon id="Stroke-121" stroke="#C4C4C4" stroke-width="0.7" points="286.758 84.354 313.211 84.354 313.211 78.686 286.758 78.686"></polygon>
            <path d="M299.9844,78.5275 L299.9844,84.5115" id="Stroke-122" stroke="#C4C4C4" stroke-width="0.7"></path>
            <polygon id="Stroke-123" stroke="#C4C4C4" stroke-width="0.7" points="286.758 92.644 313.211 92.644 313.211 86.974 286.758 86.974"></polygon>
            <path d="M299.9844,86.8166 L299.9844,92.8006" id="Stroke-124" stroke="#C4C4C4" stroke-width="0.7"></path>
            <polygon id="Stroke-125" stroke="#C4C4C4" stroke-width="0.7" points="286.758 51.199 313.211 51.199 313.211 45.53 286.758 45.53"></polygon>
            <path d="M299.9844,45.3718 L299.9844,51.3558" id="Stroke-126" stroke="#C4C4C4" stroke-width="0.7"></path>
            <polygon id="Stroke-127" stroke="#C4C4C4" stroke-width="0.7" points="286.758 59.488 313.211 59.488 313.211 53.82 286.758 53.82"></polygon>
            <path d="M299.9844,53.6604 L299.9844,59.6444" id="Stroke-128" stroke="#C4C4C4" stroke-width="0.7"></path>
            <polygon id="Stroke-129" stroke="#C4C4C4" stroke-width="0.7" points="286.758 67.777 313.211 67.777 313.211 62.108 286.758 62.108"></polygon>
            <path d="M299.9844,61.9494 L299.9844,67.9334" id="Stroke-130" stroke="#C4C4C4" stroke-width="0.7"></path>
            <polygon id="Stroke-131" stroke="#C4C4C4" stroke-width="0.7" points="286.758 100.933 313.211 100.933 313.211 95.264 286.758 95.264"></polygon>
            <path d="M299.9844,95.1047 L299.9844,101.0887" id="Stroke-132" stroke="#C4C4C4" stroke-width="0.7"></path>
            <polygon id="Stroke-133" stroke="#C4C4C4" stroke-width="0.7" points="286.758 109.221 313.211 109.221 313.211 103.551 286.758 103.551"></polygon>
            <path d="M299.9844,103.3947 L299.9844,109.3787" id="Stroke-134" stroke="#C4C4C4" stroke-width="0.7"></path>
            <path d="M49.6104,88.5539 C46.0554,88.4979 41.7164,88.5489 37.3884,88.6459 L37.3884,87.1579 C41.7164,87.0579 46.0534,87.0059 49.6104,87.0629 L49.6104,88.5539 L49.6104,88.5539 Z M49.6104,91.1269 C46.0594,91.0819 41.7244,91.1329 37.3884,91.2179 L37.3884,89.7259 C41.7224,89.6389 46.0554,89.5899 49.6104,89.6349 L49.6104,91.1269 L49.6104,91.1269 Z M49.6104,93.7029 C46.0634,93.6689 41.7264,93.7109 37.3884,93.7909 L37.3884,92.2959 C41.7264,92.2189 46.0624,92.1749 49.6104,92.2059 L49.6104,93.7029 L49.6104,93.7029 Z M49.6104,96.2779 C46.0634,96.2539 41.7264,96.2939 37.3884,96.3619 L37.3884,94.8629 C41.7264,94.7959 46.0624,94.7579 49.6104,94.7819 L49.6104,96.2779 L49.6104,96.2779 Z M49.6104,98.8579 C46.0624,98.8399 41.7294,98.8729 37.3884,98.9299 L37.3884,97.4299 C41.7264,97.3749 46.0594,97.3419 49.6104,97.3559 L49.6104,98.8579 L49.6104,98.8579 Z M49.6104,101.4359 C46.0594,101.4239 41.7294,101.4549 37.3884,101.4979 L37.3884,99.9959 C41.7264,99.9509 46.0554,99.9219 49.6104,99.9329 L49.6104,101.4359 L49.6104,101.4359 Z M49.6104,104.0139 C46.0554,104.0089 41.7264,104.0299 37.3884,104.0629 L37.3884,102.5599 C41.7264,102.5249 46.0554,102.5039 49.6104,102.5099 L49.6104,104.0139 L49.6104,104.0139 Z M49.6104,106.5969 C46.0474,106.5929 41.7244,106.6069 37.3884,106.6309 L37.3884,105.1239 C41.7244,105.1009 46.0474,105.0859 49.6104,105.0869 L49.6104,106.5969 L49.6104,106.5969 Z M49.6104,109.1749 C46.0404,109.1739 41.7224,109.1829 37.3884,109.1929 L37.3884,107.6839 C41.7224,107.6719 46.0404,107.6669 49.6104,107.6669 L49.6104,109.1749 L49.6104,109.1749 Z M37.3884,111.7549 L49.6104,111.7549 L49.6104,110.2429 L37.3884,110.2429 L37.3884,111.7549 L37.3884,111.7549 Z M36.5654,57.7029 C33.3574,57.8599 30.3054,58.1189 27.6784,58.3949 C27.6924,57.9099 27.7124,57.4189 27.7334,56.9289 C30.3444,56.6559 33.3794,56.3969 36.5654,56.2409 L36.5654,57.7029 L36.5654,57.7029 Z M36.5654,60.2919 C33.3374,60.4459 30.2504,60.6929 27.5894,60.9579 C27.6024,60.4709 27.6184,59.9819 27.6334,59.4919 C30.2854,59.2279 33.3554,58.9819 36.5654,58.8289 L36.5654,60.2919 L36.5654,60.2919 Z M36.5654,62.8789 C33.3254,63.0279 30.2224,63.2639 27.5344,63.5129 C27.5444,63.0269 27.5514,62.5399 27.5654,62.0459 C30.2424,61.7989 33.3374,61.5639 36.5654,61.4139 L36.5654,62.8789 L36.5654,62.8789 Z M36.5654,65.4649 C33.3254,65.6119 30.2104,65.8329 27.5034,66.0649 C27.5084,65.5789 27.5124,65.0929 27.5184,64.5959 C30.2144,64.3659 33.3314,64.1419 36.5654,63.9969 L36.5654,65.4649 L36.5654,65.4649 Z M36.5654,68.0489 C33.3374,68.1879 30.2144,68.3959 27.5014,68.6109 L27.5014,67.1409 C30.2144,66.9239 33.3334,66.7169 36.5654,66.5779 L36.5654,68.0489 L36.5654,68.0489 Z M36.5654,70.6309 C33.3444,70.7619 30.2264,70.9589 27.5014,71.1579 L27.5014,69.6859 C30.2224,69.4839 33.3424,69.2929 36.5654,69.1569 L36.5654,70.6309 L36.5654,70.6309 Z M36.5654,73.2109 C33.3554,73.3359 30.2344,73.5169 27.5014,73.7019 L27.5014,72.2269 C30.2344,72.0429 33.3534,71.8619 36.5654,71.7349 L36.5654,73.2109 L36.5654,73.2109 Z M36.5654,75.7919 C33.3614,75.9089 30.2424,76.0749 27.5014,76.2449 L27.5014,74.7659 C30.2424,74.5959 33.3594,74.4299 36.5654,74.3119 L36.5654,75.7919 L36.5654,75.7919 Z M36.5654,78.3679 C33.3714,78.4789 30.2504,78.6319 27.5014,78.7869 L27.5014,77.3069 C30.2484,77.1519 33.3694,76.9969 36.5654,76.8869 L36.5654,78.3679 L36.5654,78.3679 Z M36.5654,80.9449 C33.3734,81.0459 30.2564,81.1849 27.5014,81.3269 L27.5014,79.8459 C30.2564,79.7049 33.3734,79.5649 36.5654,79.4629 L36.5654,80.9449 L36.5654,80.9449 Z M36.5654,83.5189 C33.3794,83.6149 30.2654,83.7409 27.5014,83.8669 L27.5014,82.3819 C30.2614,82.2539 33.3794,82.1269 36.5654,82.0329 L36.5654,83.5189 L36.5654,83.5189 Z M36.5654,86.0919 C33.3884,86.1789 30.2684,86.2919 27.5014,86.4069 L27.5014,84.9179 C30.2684,84.8049 33.3844,84.6919 36.5654,84.6059 L36.5654,86.0919 L36.5654,86.0919 Z M36.5654,88.6659 C33.3964,88.7439 30.2734,88.8429 27.5014,88.9459 L27.5014,87.4559 C30.2734,87.3549 33.3924,87.2519 36.5654,87.1749 L36.5654,88.6659 L36.5654,88.6659 Z M36.5654,91.2379 C33.4004,91.3059 30.2814,91.3949 27.5014,91.4829 L27.5014,89.9899 C30.2774,89.9019 33.4004,89.8119 36.5654,89.7439 L36.5654,91.2379 L36.5654,91.2379 Z M36.5654,93.8049 C33.4054,93.8659 30.2854,93.9419 27.5014,94.0169 L27.5014,92.5239 C30.2854,92.4479 33.4034,92.3729 36.5654,92.3119 L36.5654,93.8049 L36.5654,93.8049 Z M36.5654,96.3749 C33.4074,96.4259 30.2854,96.4909 27.5014,96.5549 L27.5014,95.0579 C30.2854,94.9929 33.4054,94.9269 36.5654,94.8759 L36.5654,96.3749 L36.5654,96.3749 Z M36.5654,98.9429 C33.4114,98.9849 30.2944,99.0379 27.5014,99.0899 L27.5014,97.5909 C30.2924,97.5399 33.4094,97.4849 36.5654,97.4439 L36.5654,98.9429 L36.5654,98.9429 Z M36.5654,101.5069 C33.4134,101.5419 30.2964,101.5829 27.5014,101.6239 L27.5014,100.1229 C30.2964,100.0819 33.4114,100.0399 36.5654,100.0049 L36.5654,101.5069 L36.5654,101.5069 Z M36.5654,104.0699 C33.4194,104.0949 30.2994,104.1259 27.5014,104.1569 L27.5014,102.6519 C30.2994,102.6229 33.4194,102.5939 36.5654,102.5639 L36.5654,104.0699 L36.5654,104.0699 Z M36.5654,106.6349 C33.4194,106.6509 30.3054,106.6719 27.5014,106.6899 L27.5014,105.1849 C30.3054,105.1649 33.4194,105.1449 36.5654,105.1279 L36.5654,106.6349 L36.5654,106.6349 Z M36.5654,109.1959 C33.4214,109.2049 30.3054,109.2139 27.5014,109.2239 L27.5014,107.7149 C30.3054,107.7039 33.4214,107.6969 36.5654,107.6879 L36.5654,109.1959 L36.5654,109.1959 Z M27.5014,111.7549 L36.5654,111.7549 L36.5654,110.2429 L27.5014,110.2429 L27.5014,111.7549 L27.5014,111.7549 Z M37.3884,84.5869 C41.7084,84.4759 46.0384,84.4229 49.6004,84.4939 C49.6044,84.9929 49.6064,85.4879 49.6064,85.9839 C46.0464,85.9109 41.7104,85.9609 37.3884,86.0729 L37.3884,84.5869 L37.3884,84.5869 Z M37.3884,82.0119 C41.6864,81.8909 46.0054,81.8369 49.5754,81.9279 C49.5854,82.4239 49.5904,82.9179 49.5924,83.4169 C46.0204,83.3249 41.6984,83.3789 37.3884,83.4979 L37.3884,82.0119 L37.3884,82.0119 Z M37.3884,79.4379 C41.6594,79.3099 45.9564,79.2569 49.5374,79.3629 C49.5454,79.8569 49.5554,80.3479 49.5654,80.8469 C45.9834,80.7389 41.6734,80.7899 37.3884,80.9189 L37.3884,79.4379 L37.3884,79.4379 Z M37.3884,76.8599 C41.6264,76.7239 45.8954,76.6729 49.4824,76.7979 C49.4924,77.2909 49.5064,77.7819 49.5164,78.2829 C45.9244,78.1539 41.6434,78.2059 37.3884,78.3429 L37.3884,76.8599 L37.3884,76.8599 Z M37.3884,74.2829 C41.5854,74.1399 45.8204,74.0919 49.4114,74.2369 C49.4264,74.7299 49.4424,75.2199 49.4564,75.7209 C45.8584,75.5709 41.6004,75.6199 37.3884,75.7619 L37.3884,74.2829 L37.3884,74.2829 Z M37.3884,71.7049 C41.5324,71.5569 45.7354,71.5119 49.3334,71.6769 C49.3484,72.1699 49.3664,72.6569 49.3814,73.1579 C45.7774,72.9889 41.5554,73.0329 37.3884,73.1809 L37.3884,71.7049 L37.3884,71.7049 Z M37.3884,69.1269 C41.4794,68.9719 45.6344,68.9319 49.2394,69.1189 C49.2584,69.6119 49.2764,70.0949 49.2944,70.6009 C45.6824,70.4069 41.5014,70.4439 37.3884,70.5979 L37.3884,69.1269 L37.3884,69.1269 Z M37.3884,66.5419 C41.4144,66.3859 45.5264,66.3529 49.1314,66.5629 C49.1554,67.0509 49.1774,67.5319 49.1974,68.0409 C45.5774,67.8259 41.4414,67.8559 37.3884,68.0139 L37.3884,66.5419 L37.3884,66.5419 Z M37.3884,63.9589 C41.3464,63.8009 45.4034,63.7749 49.0164,64.0069 C49.0404,64.4829 49.0634,64.9769 49.0894,65.4839 C45.4634,65.2439 41.3744,65.2679 37.3884,65.4289 L37.3884,63.9589 L37.3884,63.9589 Z M37.3884,61.3739 C41.2714,61.2139 45.2764,61.1999 48.8894,61.4519 C48.9114,61.9179 48.9404,62.4129 48.9654,62.9279 C45.3354,62.6669 41.3044,62.6789 37.3884,62.8409 L37.3884,61.3739 L37.3884,61.3739 Z M37.3884,58.7859 C41.1984,58.6279 45.1384,58.6219 48.7474,58.8959 C48.7744,59.3409 48.8034,59.8349 48.8314,60.3709 C45.2014,60.0899 41.2214,60.0909 37.3884,60.2539 L37.3884,58.7859 L37.3884,58.7859 Z M37.3884,56.2019 C41.1134,56.0439 44.9874,56.0459 48.5954,56.3399 C48.6134,56.6059 48.6454,57.1129 48.6864,57.8139 C45.0534,57.5109 41.1444,57.5049 37.3884,57.6619 L37.3884,56.2019 L37.3884,56.2019 Z M50.4324,88.5719 L50.4324,87.0799 C52.1224,87.1169 53.6304,87.1789 54.8024,87.2789 L54.8024,86.2439 C53.6224,86.1239 52.1184,86.0499 50.4324,86.0059 C50.4304,85.5079 50.4264,85.0129 50.4244,84.5159 C52.1084,84.5609 53.6144,84.6359 54.7954,84.7529 C54.7954,84.4079 54.7934,84.0639 54.7914,83.7199 C53.6004,83.5839 52.0944,83.4959 50.4184,83.4429 C50.4164,82.9439 50.4084,82.4479 50.3994,81.9509 C52.0794,82.0079 53.5844,82.0949 54.7794,82.2289 C54.7734,81.8869 54.7694,81.5399 54.7654,81.1969 C53.5644,81.0419 52.0574,80.9429 50.3874,80.8749 C50.3804,80.3789 50.3724,79.8859 50.3604,79.3909 C52.0324,79.4559 53.5414,79.5549 54.7474,79.7089 C54.7434,79.3639 54.7394,79.0229 54.7314,78.6789 C53.5084,78.5049 52.0044,78.3919 50.3404,78.3169 C50.3334,77.8159 50.3194,77.3249 50.3074,76.8299 C51.9704,76.9039 53.4794,77.0169 54.7084,77.1889 C54.7004,76.8449 54.6924,76.5069 54.6864,76.1639 C53.4444,75.9729 51.9344,75.8449 50.2804,75.7589 C50.2644,75.2569 50.2544,74.7689 50.2374,74.2759 C51.8954,74.3599 53.4114,74.4859 54.6574,74.6759 C54.6494,74.3309 54.6394,73.9929 54.6314,73.6529 C53.3644,73.4409 51.8544,73.2999 50.2064,73.2039 C50.1924,72.6999 50.1764,72.2119 50.1604,71.7189 C51.8034,71.8139 53.3194,71.9549 54.5924,72.1619 C54.5834,71.8169 54.5694,71.4769 54.5574,71.1349 C53.2684,70.9089 51.7584,70.7559 50.1204,70.6469 C50.1004,70.1409 50.0834,69.6549 50.0634,69.1669 C51.7024,69.2739 53.2134,69.4239 54.5084,69.6469 C54.4994,69.3029 54.4854,68.9599 54.4724,68.6179 C53.1574,68.3779 51.6454,68.2099 50.0244,68.0929 C50.0054,67.5829 49.9834,67.0989 49.9604,66.6129 C51.5814,66.7269 53.0904,66.8919 54.4154,67.1279 C54.3974,66.7839 54.3854,66.4409 54.3704,66.0989 C53.0304,65.8459 51.5204,65.6669 49.9134,65.5369 C49.8914,65.0279 49.8684,64.5379 49.8454,64.0599 C51.4504,64.1829 52.9574,64.3609 54.2994,64.6099 C54.2824,64.2639 54.2644,63.9209 54.2494,63.5759 C52.8894,63.3109 51.3824,63.1209 49.7934,62.9849 C49.7644,62.4719 49.7434,61.9739 49.7154,61.5099 C51.3054,61.6399 52.8074,61.8279 54.1664,62.0869 C54.1484,61.7409 54.1284,61.3959 54.1044,61.0519 C52.7294,60.7799 51.2334,60.5759 49.6604,60.4319 C49.6314,59.8969 49.6024,59.4039 49.5794,58.9559 C51.1434,59.0959 52.6364,59.2929 54.0124,59.5609 C53.9914,59.2129 53.9654,58.8639 53.9444,58.5219 C52.5514,58.2409 51.0644,58.0309 49.5164,57.8799 C49.4734,57.1969 49.4424,56.7019 49.4244,56.4049 C50.9654,56.5529 52.4454,56.7549 53.8354,57.0289 C53.8074,56.6829 53.7804,56.3339 53.7554,55.9879 C45.6764,54.3399 35.0474,55.0179 27.7794,55.8279 C27.8004,55.3409 27.8254,54.8539 27.8424,54.3659 C35.0634,53.5599 45.5834,52.8889 53.6304,54.4969 C53.6004,54.1449 53.5684,53.7979 53.5414,53.4489 C45.2644,51.7519 34.9694,52.4209 27.8994,53.2579 C27.9234,52.7699 27.9484,52.2829 27.9734,51.7969 C34.9934,50.9699 45.1704,50.3069 53.3994,51.9539 C53.3644,51.6009 53.3254,51.2539 53.2924,50.9039 C44.8504,49.1689 34.8974,49.8269 28.0364,50.6799 C28.0634,50.1919 28.0914,49.7039 28.1204,49.2189 C34.9214,48.3749 44.7474,47.7269 53.1304,49.4079 C53.0874,49.0509 53.0484,48.7039 53.0054,48.3519 C44.4244,46.5939 34.8314,47.2299 28.1864,48.0969 C28.2154,47.6069 28.2474,47.1209 28.2804,46.6379 C34.8664,45.7829 44.3194,45.1549 52.8214,46.8509 C52.7764,46.4949 52.7294,46.1439 52.6824,45.7929 C44.0054,44.0249 34.7804,44.6339 28.3504,45.5079 C28.3844,45.0169 28.4164,44.5319 28.4504,44.0519 C34.8094,43.1889 43.8904,42.5879 52.4664,44.2869 C52.4174,43.9309 52.3644,43.5709 52.3064,43.2229 C43.5744,41.4589 34.7274,42.0339 28.5304,42.9129 C28.5634,42.4199 28.6004,41.9359 28.6304,41.4559 C34.7584,40.5929 43.4504,40.0249 52.0614,41.7099 C51.9984,41.3509 51.9404,40.9909 51.8794,40.6379 C43.1434,38.9019 34.6844,39.4419 28.7164,40.3109 C28.7534,39.8179 28.7924,39.3309 28.8274,38.8559 C34.7124,37.9999 43.0024,37.4679 51.5984,39.1229 C51.5284,38.7559 51.4504,38.3999 51.3794,38.0409 C42.6984,36.3469 34.6384,36.8429 28.9154,37.7019 C28.9544,37.2059 28.9944,36.7159 29.0334,36.2479 C34.6674,35.4069 42.5444,34.9169 51.0484,36.5139 C50.9654,36.1519 50.8844,35.7859 50.7974,35.4299 C42.2344,33.7969 34.5894,34.2489 29.1284,35.0879 C29.1674,34.5829 29.2104,34.1009 29.2474,33.6369 C34.6114,32.8199 42.0554,32.3759 50.4104,33.9039 C50.3094,33.5289 50.2104,33.1659 50.1054,32.8019 C41.7544,31.2609 34.5444,31.6589 29.3484,32.4679 C29.3934,31.9489 29.4324,31.4569 29.4754,31.0159 C34.5614,30.2359 41.5634,29.8529 49.6484,31.2739 C49.5454,30.9509 49.4424,30.6339 49.3374,30.3219 C44.1094,29.0879 35.7554,29.0869 30.7454,29.6289 C28.0794,29.9159 26.2604,30.3269 25.0484,30.7039 C24.8564,31.2939 24.7154,31.7509 24.6484,31.9729 C25.7664,31.6969 27.1064,31.4089 28.6354,31.1519 C28.5964,31.5969 28.5534,32.0779 28.5064,32.6009 C26.8284,32.8879 25.3814,33.2099 24.2104,33.5119 C24.1124,33.8949 24.0174,34.2969 23.9204,34.6899 C25.1264,34.3909 26.6414,34.0609 28.4104,33.7679 C28.3714,34.2289 28.3334,34.7189 28.2884,35.2209 C26.3874,35.5379 24.7844,35.8949 23.5424,36.2109 C23.4594,36.5769 23.3884,36.9739 23.3074,37.3529 C24.5734,37.0459 26.2324,36.6939 28.1984,36.3779 C28.1594,36.8459 28.1204,37.3359 28.0794,37.8339 C26.0124,38.1699 24.2784,38.5439 22.9994,38.8579 C22.9234,39.2329 22.8464,39.6009 22.7794,39.9839 C24.0754,39.6809 25.8584,39.3149 27.9914,38.9809 C27.9544,39.4589 27.9174,39.9449 27.8814,40.4409 C25.6654,40.7889 23.8254,41.1699 22.5224,41.4779 C22.4614,41.8469 22.3954,42.2089 22.3354,42.5849 C23.6454,42.2929 25.5284,41.9219 27.7974,41.5789 C27.7634,42.0579 27.7274,42.5429 27.6964,43.0369 C25.3444,43.3929 23.4164,43.7769 22.1024,44.0719 C22.0514,44.4269 22.0034,44.7979 21.9504,45.1599 C23.2654,44.8849 25.2294,44.5129 27.6164,44.1689 C27.5814,44.6519 27.5494,45.1369 27.5184,45.6289 C25.0574,45.9849 23.0494,46.3679 21.7424,46.6449 C21.6954,46.9979 21.6534,47.3609 21.6084,47.7189 C22.9184,47.4599 24.9564,47.0969 27.4454,46.7529 C27.4174,47.2369 27.3854,47.7199 27.3544,48.2109 C24.8034,48.5649 22.7374,48.9359 21.4364,49.1949 C21.3954,49.5509 21.3524,49.9009 21.3114,50.2609 C22.6184,50.0199 24.7124,49.6669 27.2894,49.3279 C27.2564,49.8129 27.2314,50.2999 27.2064,50.7879 C24.5754,51.1359 22.4464,51.4969 21.1554,51.7369 C21.1214,52.0839 21.0894,52.4419 21.0574,52.7899 C22.3534,52.5669 24.4964,52.2269 27.1424,51.8979 C27.1194,52.3849 27.0924,52.8699 27.0694,53.3599 C24.3734,53.6949 22.1994,54.0429 20.9194,54.2659 C20.8834,54.6179 20.8484,54.9569 20.8174,55.3129 C22.1024,55.1059 24.3014,54.7799 27.0124,54.4619 C26.9954,54.9499 26.9714,55.4379 26.9484,55.9249 C24.1944,56.2479 21.9794,56.5779 20.7064,56.7839 C20.6784,57.1299 20.6544,57.4779 20.6254,57.8239 C21.9134,57.6319 24.1414,57.3239 26.9074,57.0199 C26.8834,57.5099 26.8644,57.9969 26.8434,58.4849 C24.0454,58.7949 21.7924,59.1079 20.5164,59.2979 C20.4944,59.6409 20.4704,59.9859 20.4484,60.3309 C21.7374,60.1539 24.0064,59.8629 26.8104,59.5739 C26.7944,60.0659 26.7784,60.5549 26.7664,61.0409 C23.9264,61.3329 21.6434,61.6259 20.3604,61.8069 C20.3404,62.1489 20.3184,62.4899 20.2984,62.8359 C21.6004,62.6709 23.8974,62.3969 26.7374,62.1249 C26.7274,62.6179 26.7154,63.1039 26.7094,63.5919 C23.8314,63.8669 21.5064,64.1429 20.2144,64.3079 C20.1924,64.6459 20.1824,64.9949 20.1664,65.3329 C21.4874,65.1799 23.8154,64.9249 26.6934,64.6679 C26.6864,65.1639 26.6804,65.6519 26.6804,66.1359 C23.7694,66.3959 21.4154,66.6549 20.0984,66.8079 C20.0854,67.1469 20.0654,67.4849 20.0534,67.8279 C21.3954,67.6849 23.7624,67.4469 26.6784,67.2059 L26.6784,68.6779 C23.7274,68.9209 21.3354,69.1609 19.9884,69.3049 C19.9784,69.6409 19.9654,69.9869 19.9564,70.3249 C21.3294,70.1919 23.7314,69.9699 26.6784,69.7479 L26.6784,71.2189 C23.7064,71.4439 21.2824,71.6679 19.9074,71.8009 C19.8974,72.1419 19.8834,72.4759 19.8754,72.8189 C21.2784,72.6939 23.7084,72.4899 26.6784,72.2829 L26.6784,73.7579 C23.6884,73.9659 21.2384,74.1709 19.8314,74.2979 C19.8214,74.6319 19.8174,74.9739 19.8074,75.3089 C21.2464,75.1939 23.6984,75.0079 26.6784,74.8169 L26.6784,76.2969 C23.6804,76.4869 21.2164,76.6749 19.7764,76.7909 C19.7684,77.1289 19.7604,77.4629 19.7514,77.8059 C21.2224,77.6969 23.6904,77.5279 26.6784,77.3549 L26.6784,78.8329 C23.6764,79.0079 21.1984,79.1789 19.7254,79.2849 C19.7194,79.6189 19.7194,79.9599 19.7144,80.2959 C21.2164,80.1979 23.6944,80.0449 26.6784,79.8889 L26.6784,81.3679 C23.6864,81.5259 21.2024,81.6779 19.6974,81.7779 C19.6904,82.1139 19.6864,82.4479 19.6864,82.7859 C21.2204,82.6979 23.7014,82.5609 26.6784,82.4199 L26.6784,83.9029 C23.6984,84.0449 21.2134,84.1829 19.6734,84.2709 C19.6664,84.6059 19.6664,84.9449 19.6664,85.2809 C21.2364,85.1989 23.7154,85.0789 26.6784,84.9519 L26.6784,86.4409 C23.7154,86.5649 21.2344,86.6869 19.6604,86.7679 C19.6604,87.1019 19.6554,87.4369 19.6554,87.7729 C21.2564,87.6999 23.7374,87.5929 26.6784,87.4839 L26.6784,88.9749 C23.7374,89.0839 21.2564,89.1899 19.6514,89.2619 L19.6514,90.2659 C21.2804,90.2029 23.7564,90.1099 26.6784,90.0149 L26.6784,91.5089 C23.7584,91.6029 21.2824,91.6969 19.6514,91.7589 L19.6514,92.7609 C21.3034,92.7059 23.7824,92.6259 26.6784,92.5479 L26.6784,94.0379 C23.7824,94.1189 21.3094,94.1989 19.6514,94.2539 L19.6514,95.2559 C21.3314,95.2089 23.8014,95.1439 26.6784,95.0779 L26.6784,96.5729 C23.8054,96.6399 21.3314,96.7059 19.6514,96.7529 L19.6514,97.7529 C21.3524,97.7139 23.8214,97.6619 26.6784,97.6059 L26.6784,99.1089 C23.8234,99.1609 21.3524,99.2139 19.6514,99.2529 L19.6514,100.2499 C21.3744,100.2179 23.8394,100.1789 26.6784,100.1369 L26.6784,101.6379 C23.8394,101.6789 21.3744,101.7199 19.6514,101.7509 L19.6514,102.7479 C21.3954,102.7229 23.8544,102.6929 26.6784,102.6619 L26.6784,104.1669 C23.8544,104.1989 21.3954,104.2289 19.6514,104.2489 L19.6514,105.2459 C21.4134,105.2329 23.8694,105.2119 26.6784,105.1909 L26.6784,106.6969 C23.8694,106.7179 21.4134,106.7359 19.6514,106.7509 L19.6514,107.7449 C21.4284,107.7399 23.8834,107.7299 26.6784,107.7199 L26.6784,109.2259 C23.8834,109.2359 21.4284,109.2459 19.6514,109.2539 L19.6514,110.2429 L26.6784,110.2429 L26.6784,111.7549 L19.6514,111.7549 L19.6514,112.6899 L54.8084,112.6899 L54.8084,111.7549 L50.4324,111.7549 L50.4324,110.2429 L54.8084,110.2429 L54.8084,109.1849 C53.6104,109.1819 52.1064,109.1779 50.4324,109.1749 L50.4324,107.6669 C52.1064,107.6679 53.6104,107.6699 54.8084,107.6769 L54.8084,106.6179 C53.6164,106.6059 52.1104,106.5999 50.4324,106.5969 L50.4324,105.0879 C52.1104,105.0909 53.6164,105.0979 54.8084,105.1099 L54.8084,104.0539 C53.6244,104.0329 52.1204,104.0209 50.4324,104.0159 L50.4324,102.5119 C52.1204,102.5149 53.6244,102.5269 54.8084,102.5489 L54.8084,101.4949 C53.6304,101.4649 52.1224,101.4499 50.4324,101.4399 L50.4324,99.9389 C52.1224,99.9459 53.6304,99.9609 54.8084,99.9919 L54.8084,98.9399 C53.6314,98.8969 52.1304,98.8729 50.4324,98.8619 L50.4324,97.3619 C52.1304,97.3749 53.6314,97.3979 54.8084,97.4399 L54.8084,96.3899 C53.6394,96.3339 52.1304,96.3039 50.4324,96.2849 L50.4324,94.7899 C52.1304,94.8059 53.6394,94.8369 54.8084,94.8909 L54.8084,93.8439 C53.6394,93.7759 52.1314,93.7349 50.4324,93.7109 L50.4324,92.2189 C52.1304,92.2419 53.6394,92.2799 54.8084,92.3479 L54.8084,91.3049 C53.6394,91.2209 52.1304,91.1709 50.4324,91.1419 L50.4324,89.6469 C52.1304,89.6769 53.6394,89.7259 54.8084,89.8099 L54.8084,88.8199 L54.8084,88.7719 C53.6314,88.6709 52.1264,88.6099 50.4324,88.5719 L50.4324,88.5719 L50.4324,88.5719 Z" id="Fill-135" fill="#C4C4C4"></path>
            <path d="M25.8887,31.1418 L25.0357,30.7678 C25.1317,30.5428 27.4757,25.2308 29.4737,23.5158 C32.9557,20.5308 42.7507,21.4898 45.3327,22.9148 C47.9077,24.3358 49.2957,30.1538 49.3547,30.4008 L48.4497,30.6138 C48.0777,29.0428 46.7187,24.7438 44.8837,23.7308 C42.5887,22.4668 33.1667,21.5748 30.0817,24.2228 C28.2447,25.7998 25.9107,31.0888 25.8887,31.1418" id="Fill-136" fill="#C4C4C4"></path>
            <path d="M116.501,114.3742 L116.501,56.0482" id="Stroke-137" stroke="#C4C4C4" stroke-width="0.7"></path>
            <path d="M116.7383,56.0295 L134.2173,51.4635" id="Stroke-138" stroke="#C4C4C4" stroke-width="0.7"></path>
            <polyline id="Stroke-139" stroke="#C4C4C4" stroke-width="0.7" points="129.3369 52.9592 129.6919 54.6712 134.1789 53.4892 133.6479 51.6592"></polyline>
            <path d="M116.6211,56.0295 L99.1401,51.4635" id="Stroke-140" stroke="#C4C4C4" stroke-width="0.7"></path>
            <polyline id="Stroke-141" stroke="#C4C4C4" stroke-width="0.7" points="104.0234 52.9592 103.6694 54.6712 99.1814 53.4892 99.7134 51.6592"></polyline>
            <path d="M343.8916,114.3742 L343.8916,56.0482" id="Stroke-142" stroke="#C4C4C4" stroke-width="0.7"></path>
            <path d="M344.127,56.0295 L361.61,51.4635" id="Stroke-143" stroke="#C4C4C4" stroke-width="0.7"></path>
            <polyline id="Stroke-144" stroke="#C4C4C4" stroke-width="0.7" points="356.7275 52.9592 357.0815 54.6712 361.5715 53.4892 361.0375 51.6592"></polyline>
            <path d="M344.0107,56.0295 L326.5307,51.4635" id="Stroke-145" stroke="#C4C4C4" stroke-width="0.7"></path>
            <polyline id="Stroke-146" stroke="#C4C4C4" stroke-width="0.7" points="331.4141 52.9592 331.0591 54.6712 326.5711 53.4892 327.1021 51.6592"></polyline>
            <path d="M225.8467,103.6848 L224.3677,98.5368 L219.4227,97.0068 L214.9387,95.6308 L209.2287,92.8778 L200.8687,88.7488 L192.9657,87.1688 L174.1567,86.9138 L153.8187,86.8628 L154.1237,87.8828 L155.4487,88.4948 L153.0537,96.7008 L152.1347,102.9708 L152.0837,109.5478 L155.1937,110.3128 L160.0377,111.1288 L163.3427,111.1288 C163.9087,112.7368 165.4387,113.8918 167.2397,113.8918 C169.0427,113.8918 170.5737,112.7368 171.1377,111.1288 L209.5277,111.1288 C210.0907,112.7368 211.6217,113.8918 213.4247,113.8918 C215.2297,113.8918 216.7587,112.7368 217.3237,111.1288 L223.1977,111.1288 L226.1527,110.7708 L226.2397,108.0708 L225.8467,103.6848 L225.8467,103.6848 Z" id="Fill-147" fill="#FFFFFF"></path>
            <path d="M218.3115,111.1481 C218.3115,111.1481 225.2175,111.2591 226.1445,110.6061 C226.1445,110.6061 226.1465,106.8401 225.8735,105.1501 C225.6005,103.4581 224.4575,98.8751 224.4575,98.8751 C223.6925,97.8921 221.3485,97.4541 219.2765,96.9081 C217.2045,96.3611 214.3135,95.5971 208.8015,92.7021 C203.2935,89.8081 202.0955,89.0431 196.5295,87.7321 C190.9655,86.4201 158.6945,86.8741 153.5415,86.9461 C153.5415,86.9461 153.7045,88.2031 155.5565,88.5311 L152.7705,96.9311 C152.7705,96.9311 153.0445,97.3681 152.9895,97.8591 C152.9325,98.3501 152.0065,100.0411 152.0005,109.7511 L160.6215,111.1201 L162.2765,111.1201" id="Stroke-148" stroke="#C4C4C4" stroke-width="0.7"></path>
            <path d="M172.8506,106.5266 C173.3136,108.1856 172.0906,111.1796 172.0906,111.1796 L208.1546,111.0866" id="Stroke-149" stroke="#C4C4C4" stroke-width="0.7"></path>
            <path d="M220.6396,97.2902 C220.6396,97.2902 194.6186,95.2592 189.9806,95.2582 C185.3416,95.2562 162.8116,95.2442 159.1026,95.2422 C155.3916,95.2412 153.3686,96.4942 152.9896,97.8592" id="Stroke-150" stroke="#C4C4C4" stroke-width="0.7"></path>
            <path d="M173.6709,86.7941 C173.6709,86.7941 168.9209,91.5381 169.9029,98.1381 C170.6319,103.0531 172.0499,103.2801 172.8249,106.4231" id="Stroke-151" stroke="#C4C4C4" stroke-width="0.7"></path>
            <path d="M190.2549,87.1281 C190.2549,87.1281 189.4369,93.2941 189.7069,98.4211 C189.9759,103.5501 190.2489,104.9141 190.2429,111.0801" id="Stroke-152" stroke="#C4C4C4" stroke-width="0.7"></path>
            <path d="M171.2041,109.7556 C171.2041,111.9856 169.3951,113.7936 167.1651,113.7906 C164.9361,113.7886 163.1301,111.9806 163.1321,109.7516 C163.1321,107.5216 164.9401,105.7146 167.1691,105.7156 C169.4011,105.7166 171.2071,107.5256 171.2041,109.7556 L171.2041,109.7556 L171.2041,109.7556 Z" id="Stroke-153" stroke="#C4C4C4" stroke-width="0.7"></path>
            <path d="M217.3604,109.7771 C217.3604,112.0071 215.5514,113.8141 213.3234,113.8141 C211.0894,113.8121 209.2834,112.0031 209.2834,109.7741 C209.2894,107.5431 211.0954,105.7361 213.3274,105.7381 C215.5534,105.7391 217.3604,107.5471 217.3604,109.7771 L217.3604,109.7771 L217.3604,109.7771 Z" id="Stroke-154" stroke="#C4C4C4" stroke-width="0.7"></path>
            <path d="M185.6758,98.0666 L188.6278,98.0676" id="Stroke-155" stroke="#C4C4C4" stroke-width="0.7"></path>
            <path d="M190.876,98.0686 L193.825,98.0716" id="Stroke-156" stroke="#C4C4C4" stroke-width="0.7"></path>
            <path d="M154.124,93.049 C154.124,93.049 157.423,92.187 160.321,95.171" id="Stroke-157" stroke="#C4C4C4" stroke-width="0.7"></path>
            <path d="M212.6875,96.7409 C212.6875,96.7409 214.9665,102.3309 225.6725,104.6269" id="Stroke-158" stroke="#C4C4C4" stroke-width="0.7"></path>
            <path d="M141.8789,102.5266 L140.7569,96.7506 L137.1079,85.0786 L134.1009,80.5866 L129.3649,78.7816 L108.1339,78.7816 L108.1339,77.6956 L63.9649,77.6956 L63.9649,78.7816 L32.9459,78.7816 L30.5009,80.8676 L29.4969,83.9156 L29.1369,87.9266 L28.6099,104.8916 L28.9779,108.4216 L31.9029,110.0266 L35.8879,109.9106 L58.5259,109.9106 C58.8939,112.1406 60.8279,113.8436 63.1629,113.8436 C65.4979,113.8436 67.4309,112.1406 67.7989,109.9106 L115.1049,109.9106 C115.4749,112.1406 117.4059,113.8436 119.7399,113.8436 C122.0769,113.8436 124.0089,112.1406 124.3779,109.9106 L137.8289,109.9106 L141.0789,109.7456 L141.9639,106.3366 L141.8789,102.5266 L141.8789,102.5266 Z" id="Fill-159" fill="#FFFFFF"></path>
            <path d="M125.8408,110.1633 C126.3208,110.1633 137.7768,110.0883 138.9588,110.0803 C140.1438,110.0723 142.0818,110.1663 141.9388,104.6763 C141.9088,103.5323 141.7408,102.0983 141.4678,100.5053 L141.3408,99.7873 C140.9168,97.4933 140.2958,94.9273 139.5698,92.4453 L138.8258,90.0383 C137.8288,86.9963 136.7078,84.2833 135.6548,82.6443 C134.9298,81.5173 134.2058,80.7303 133.3198,80.1843 C131.2338,78.8963 128.2458,78.9473 122.2098,79.0463 C120.8238,79.0693 119.2788,79.0933 117.5418,79.1053 C116.0788,79.1153 113.8088,79.1193 110.9388,79.1203 L69.9558,79.0363 C63.2408,79.0143 56.7468,78.9923 51.1498,78.9743 C40.8318,78.9373 33.5578,78.9103 33.5578,78.9103 C32.5128,78.9153 31.4668,79.4173 30.5458,80.8673 C30.3288,81.2083 30.1168,81.6023 29.9148,82.0553 C29.4928,83.0043 29.2098,86.8453 29.0188,91.2133 C28.9188,93.5863 28.8418,96.1133 28.7918,98.4193 C28.7878,98.4803 28.7878,98.5403 28.7858,98.5993 C28.6988,102.5983 28.6758,105.8953 28.6798,106.5053 C28.6908,108.1213 28.9188,110.2733 36.7798,110.2203 C38.5298,110.2073 55.0168,110.1923 56.9868,110.1903" id="Stroke-160" stroke="#C4C4C4" stroke-width="0.7"></path>
            <path d="M69.3486,110.1906 L113.5886,110.1636" id="Stroke-161" stroke="#C4C4C4" stroke-width="0.7"></path>
            <path d="M63.126,104.4035 C60.51,104.4205 58.405,106.5545 58.423,109.1705 C58.44,111.7865 60.573,113.8935 63.192,113.8765 C65.808,113.8595 67.913,111.7235 67.896,109.1085 C67.878,106.4915 65.743,104.3845 63.126,104.4035 L63.126,104.4035 L63.126,104.4035 Z" id="Stroke-162" stroke="#C4C4C4" stroke-width="0.7"></path>
            <path d="M119.6846,104.4025 C117.0666,104.4205 114.9616,106.5545 114.9776,109.1715 C114.9936,111.7865 117.1316,113.8925 119.7456,113.8765 C122.3616,113.8585 124.4656,111.7245 124.4506,109.1085 C124.4346,106.4915 122.2996,104.3845 119.6846,104.4025 L119.6846,104.4025 L119.6846,104.4025 Z" id="Stroke-163" stroke="#C4C4C4" stroke-width="0.7"></path>
            <path d="M29.6943,82.9982 L135.5983,83.0972" id="Stroke-164" stroke="#C4C4C4" stroke-width="0.7"></path>
            <path d="M29.1025,92.986 L122.4995,92.928" id="Stroke-165" stroke="#C4C4C4" stroke-width="0.7"></path>
            <path d="M28.9053,99.5105 L127.2373,99.5255" id="Stroke-166" stroke="#C4C4C4" stroke-width="0.7"></path>
            <path d="M121.0645,83.196 C121.8335,88.162 120.1775,103.532 141.7155,103.388" id="Stroke-167" stroke="#C4C4C4" stroke-width="0.7"></path>
            <path d="M138.165,98.9802 C138.167,99.1782 138.007,99.3392 137.808,99.3412 L135.731,99.8652 C135.536,99.8662 135.374,99.7072 135.374,99.5102 L135.333,93.3792 C135.331,93.1822 135.489,93.0222 135.688,93.0182 L137.761,93.3902 C137.958,93.3882 138.122,93.5472 138.122,93.7452 L138.165,98.9802 L138.165,98.9802 L138.165,98.9802 Z" id="Stroke-168" stroke="#C4C4C4" stroke-width="0.7"></path>
            <path d="M71.7305,99.9865 L71.7995,109.9935" id="Stroke-169" stroke="#C4C4C4" stroke-width="0.7"></path>
            <path d="M102.9355,99.7785 L103.0065,110.1815" id="Stroke-170" stroke="#C4C4C4" stroke-width="0.7"></path>
            <polyline id="Stroke-171" stroke="#C4C4C4" stroke-width="0.7" points="108.1396 79.1057 108.1296 77.5397 63.9396 77.5857 63.9516 79.0287"></polyline>
            <path d="M328.5254,111.5803 L327.8374,110.0413 L328.4734,107.7593 L327.9954,105.4763 L322.7944,102.5563 L316.2634,101.2823 L309.8384,100.4853 L304.9034,97.8313 L296.0914,94.7523 L287.1204,94.3273 L275.4394,96.0793 L266.6794,99.0523 L262.1144,99.4243 L261.5304,104.6263 L260.7354,107.1223 L261.0534,110.4133 L267.6374,112.4933 L270.8794,112.4933 C271.6454,113.2423 272.6924,113.7053 273.8464,113.7053 C275.0014,113.7053 276.0474,113.2423 276.8144,112.4933 L314.7784,112.4933 C315.5554,113.3423 316.6694,113.8763 317.9094,113.8763 C319.1494,113.8763 320.2614,113.3423 321.0384,112.4933 L325.3404,112.4933 L328.5254,111.5803 L328.5254,111.5803 Z" id="Fill-172" fill="#FFFFFF"></path>
            <path d="M322.5186,112.5427 L323.9906,112.5447 C323.9906,112.5447 327.2336,112.2317 327.8176,111.8077 L328.4036,111.3827 C328.4036,111.3827 327.8216,110.4257 327.9266,109.9477 C328.0336,109.4677 328.4076,108.5657 328.4076,108.1407 C328.4096,107.7157 328.4636,106.2797 327.7756,105.5877 C327.0856,104.8977 325.0126,103.4597 322.2526,102.4967 C319.4896,101.5367 313.7506,100.8367 310.1396,100.6177 C310.1396,100.6177 300.5286,95.0757 293.4066,94.5847 C286.2856,94.0957 277.2506,95.1457 270.0186,97.7907 C262.7846,100.4357 262.0436,99.3187 262.0436,99.3187 C262.0436,99.3187 261.9296,104.0477 261.0756,105.7477 C260.2236,107.4467 261.1746,110.2647 261.1746,110.2647 C261.1746,110.2647 265.8486,112.2927 267.3366,112.3477 C267.8916,112.3667 269.0036,112.3667 269.3416,112.3567" id="Stroke-173" stroke="#C4C4C4" stroke-width="0.7"></path>
            <path d="M278.375,112.4719 L313.368,112.5279" id="Stroke-174" stroke="#C4C4C4" stroke-width="0.7"></path>
            <path d="M278.1064,109.4816 C278.1024,111.8106 276.2104,113.6966 273.8814,113.6926 C271.5544,113.6886 269.6694,111.7976 269.6714,109.4676 C269.6774,107.1406 271.5694,105.2566 273.8954,105.2596 C276.2234,105.2626 278.1084,107.1546 278.1064,109.4816 L278.1064,109.4816 L278.1064,109.4816 Z" id="Stroke-175" stroke="#C4C4C4" stroke-width="0.7"></path>
            <path d="M322.1455,109.6599 C322.1435,111.9889 320.2535,113.8729 317.9225,113.8699 C315.5955,113.8649 313.7075,111.9749 313.7135,109.6449 C313.7155,107.3189 315.6085,105.4319 317.9375,105.4359 C320.2675,105.4409 322.1495,107.3319 322.1455,109.6599 L322.1455,109.6599 L322.1455,109.6599 Z" id="Stroke-176" stroke="#C4C4C4" stroke-width="0.7"></path>
            <path d="M301.7666,100.6408 C298.6806,100.6488 295.4036,100.6518 293.2036,100.6488 C287.8916,100.6388 273.8976,99.5548 272.4836,96.9308" id="Stroke-177" stroke="#C4C4C4" stroke-width="0.7"></path>
            <path id="Stroke-178" stroke="#C4C4C4" stroke-width="0.7"></path>
            <path d="M290.0264,94.4426 C290.0264,94.4426 291.0144,98.2006 291.5424,100.6816 C292.0694,103.1626 291.8154,105.6426 291.8134,106.4216 C291.8134,107.2006 291.7344,112.4806 291.7344,112.4806" id="Stroke-179" stroke="#C4C4C4" stroke-width="0.7"></path>
            <path d="M305.501,100.4558 C305.501,100.4558 305.009,99.5338 304.157,99.2148 C303.31,98.8938 302.386,98.9628 302.069,99.3518 C301.747,99.7408 301.853,100.6628 301.853,100.6628 L305.82,101.3058 L305.501,100.4558 L305.501,100.4558 L305.501,100.4558 Z" id="Stroke-180" stroke="#C4C4C4" stroke-width="0.7"></path>
            <path d="M319.9033,104.3298 C319.9033,104.3298 320.9913,103.5998 321.3473,103.5998 C321.7003,103.5998 324.2763,103.4628 325.2443,103.8178" id="Stroke-181" stroke="#C4C4C4" stroke-width="0.7"></path>
            <path d="M322.0322,103.5534 C322.0322,103.5534 324.5092,105.2814 325.5952,105.5664 C326.6842,105.8524 326.9742,105.7724 327.7752,105.5884" id="Stroke-182" stroke="#C4C4C4" stroke-width="0.7"></path>
            <path d="M261.9209,99.2873 C261.9209,99.2873 266.6649,102.0583 266.5949,102.3773 C266.5219,102.6953 263.8289,103.1173 261.7749,102.8303" id="Stroke-183" stroke="#C4C4C4" stroke-width="0.7"></path>
            <path d="M158.542,84.2395 L162.928,80.1375" id="Stroke-184" stroke="#C4C4C4" stroke-width="0.7"></path>
            <path d="M220.0176,86.466 C219.8956,93.029 225.1186,98.448 231.6786,98.57 C238.2426,98.69 243.6616,93.467 243.7846,86.904 C243.9056,80.341 238.6826,74.922 232.1186,74.801 C225.5556,74.68 220.1356,79.903 220.0176,86.466 L220.0176,86.466 L220.0176,86.466 Z" id="Stroke-185" stroke="#C4C4C4" stroke-width="0.7"></path>
            <path d="M231.8975,114.7927 L231.8975,88.0877" id="Stroke-186" stroke="#C4C4C4" stroke-width="0.7"></path>
            <path d="M232.1885,92.821 L236.5745,88.719" id="Stroke-187" stroke="#C4C4C4" stroke-width="0.7"></path>
            <path d="M231.7598,94.7155 L227.9218,90.0415" id="Stroke-188" stroke="#C4C4C4" stroke-width="0.7"></path>
        </g>
    </g>
</svg>