<?xml version="1.0" encoding="UTF-8" standalone="no"?>
<svg width="925px" height="270px" viewBox="0 0 925 270" version="1.1" xmlns="http://www.w3.org/2000/svg" xmlns:xlink="http://www.w3.org/1999/xlink">
    <!-- Generator: Sketch 3.7.2 (28276) - http://www.bohemiancoding.com/sketch -->
    <title>img_line_illust</title>
    <desc>Created with Sketch.</desc>
    <defs></defs>
    <g id="Page-1" stroke="none" stroke-width="1" fill="none" fill-rule="evenodd">
        <g id="Desktop-Copy-10" transform="translate(-50.000000, -5114.000000)">
            <g id="img_line_illust" transform="translate(50.000000, 5114.000000)">
                <path d="M276.3164,155.4291 C276.0804,168.2261 286.2634,178.7921 299.0574,179.0281 C311.8534,179.2631 322.4204,169.0801 322.6564,156.2831 C322.8914,143.4871 312.7104,132.9221 299.9144,132.6851 C287.1174,132.4491 276.5504,142.6321 276.3164,155.4291 L276.3164,155.4291 Z" id="Stroke-1" stroke="#D6D6D6" stroke-linecap="round" stroke-linejoin="round"></path>
                <path d="M300.0391,201.0033 L300.0391,162.6283" id="Stroke-3" stroke="#D6D6D6" stroke-linecap="round" stroke-linejoin="round"></path>
                <polyline id="Stroke-5" stroke="#D6D6D6" stroke-linecap="round" stroke-linejoin="round" points="103.8887 199.7372 103.8887 62.6162 151.6007 62.6162 151.6007 200.1842"></polyline>
                <path d="M109.7637,69.4559 L145.7257,69.4559" id="Stroke-7" stroke="#D6D6D6" stroke-linecap="round" stroke-linejoin="round"></path>
                <path d="M109.7637,75.8163 L145.7257,75.8163" id="Stroke-9" stroke="#D6D6D6" stroke-linecap="round" stroke-linejoin="round"></path>
                <path d="M109.7637,82.1776 L145.7257,82.1776" id="Stroke-11" stroke="#D6D6D6" stroke-linecap="round" stroke-linejoin="round"></path>
                <path d="M109.7637,88.5389 L145.7267,88.5389" id="Stroke-13" stroke="#D6D6D6" stroke-linecap="round" stroke-linejoin="round"></path>
                <path d="M109.7637,94.8993 L145.7257,94.8993" id="Stroke-15" stroke="#D6D6D6" stroke-linecap="round" stroke-linejoin="round"></path>
                <path d="M109.7637,101.2601 L145.7247,101.2601" id="Stroke-17" stroke="#D6D6D6" stroke-linecap="round" stroke-linejoin="round"></path>
                <path d="M109.7637,107.621 L145.7257,107.621" id="Stroke-19" stroke="#D6D6D6" stroke-linecap="round" stroke-linejoin="round"></path>
                <path d="M109.7637,113.9823 L145.7267,113.9823" id="Stroke-21" stroke="#D6D6D6" stroke-linecap="round" stroke-linejoin="round"></path>
                <path d="M109.7637,120.3427 L145.7257,120.3427" id="Stroke-23" stroke="#D6D6D6" stroke-linecap="round" stroke-linejoin="round"></path>
                <path d="M109.7637,126.704 L145.7257,126.704" id="Stroke-25" stroke="#D6D6D6" stroke-linecap="round" stroke-linejoin="round"></path>
                <path d="M109.7637,133.0643 L145.7257,133.0643" id="Stroke-27" stroke="#D6D6D6" stroke-linecap="round" stroke-linejoin="round"></path>
                <path d="M109.7637,139.4257 L145.7257,139.4257" id="Stroke-29" stroke="#D6D6D6" stroke-linecap="round" stroke-linejoin="round"></path>
                <path d="M109.7637,145.7865 L145.7257,145.7865" id="Stroke-31" stroke="#D6D6D6" stroke-linecap="round" stroke-linejoin="round"></path>
                <path d="M109.7637,152.1473 L145.7257,152.1473" id="Stroke-33" stroke="#D6D6D6" stroke-linecap="round" stroke-linejoin="round"></path>
                <path d="M109.7637,158.5077 L145.7257,158.5077" id="Stroke-35" stroke="#D6D6D6" stroke-linecap="round" stroke-linejoin="round"></path>
                <path d="M109.7637,164.869 L145.7247,164.869" id="Stroke-37" stroke="#D6D6D6" stroke-linecap="round" stroke-linejoin="round"></path>
                <path d="M109.7637,171.2299 L145.7257,171.2299" id="Stroke-39" stroke="#D6D6D6" stroke-linecap="round" stroke-linejoin="round"></path>
                <path d="M109.7637,177.5907 L145.7257,177.5907" id="Stroke-41" stroke="#D6D6D6" stroke-linecap="round" stroke-linejoin="round"></path>
                <path d="M109.7637,183.9515 L145.7257,183.9515" id="Stroke-43" stroke="#D6D6D6" stroke-linecap="round" stroke-linejoin="round"></path>
                <path d="M109.7637,190.3124 L145.7257,190.3124" id="Stroke-45" stroke="#D6D6D6" stroke-linecap="round" stroke-linejoin="round"></path>
                <polyline id="Stroke-47" stroke="#D6D6D6" stroke-linecap="round" stroke-linejoin="round" points="119.207 62.5765 119.207 55.5625 103.889 55.5625 103.889 62.5765"></polyline>
                <polyline id="Stroke-49" stroke="#D6D6D6" stroke-linecap="round" stroke-linejoin="round" points="115.4111 55.4437 115.4111 44.3287 107.6841 44.3287 107.6841 55.4437"></polyline>
                <path d="M111.584,44.3143 L111.584,0.5003" id="Stroke-51" stroke="#D6D6D6" stroke-linecap="round" stroke-linejoin="round"></path>
                <polyline id="Stroke-53" stroke="#D6D6D6" stroke-linecap="round" stroke-linejoin="round" points="151.6006 62.5765 151.6006 55.5625 136.2826 55.5625 136.2826 62.5765"></polyline>
                <polyline id="Stroke-55" stroke="#D6D6D6" stroke-linecap="round" stroke-linejoin="round" points="147.8057 55.4437 147.8057 44.3287 140.0717 44.3287 140.0717 55.4437"></polyline>
                <path d="M143.9717,44.3143 L143.9717,0.5003" id="Stroke-57" stroke="#D6D6D6" stroke-linecap="round" stroke-linejoin="round"></path>
                <path d="M0.5,200.89 L923.594,200.89" id="Stroke-59" stroke="#D6D6D6" stroke-linecap="round" stroke-linejoin="round"></path>
                <path d="M99.7324,231.514 L138.1804,231.514" id="Stroke-61" stroke="#D6D6D6" stroke-linecap="round" stroke-linejoin="round"></path>
                <path d="M15.0801,248.8471 L39.5081,248.8471" id="Stroke-63" stroke="#D6D6D6" stroke-linecap="round" stroke-linejoin="round"></path>
                <path d="M73.0801,258.8471 L90.1751,258.8471" id="Stroke-65" stroke="#D6D6D6" stroke-linecap="round" stroke-linejoin="round"></path>
                <path d="M165.9463,222.122 L301.2343,222.122" id="Stroke-67" stroke="#D6D6D6" stroke-linecap="round" stroke-linejoin="round"></path>
                <path d="M674.6289,256.7885 L758.8419,256.7885" id="Stroke-69" stroke="#D6D6D6" stroke-linecap="round" stroke-linejoin="round"></path>
                <path d="M235.4727,247.7802 L319.4437,247.7802" id="Stroke-71" stroke="#D6D6D6" stroke-linecap="round" stroke-linejoin="round"></path>
                <path d="M332.6406,263.3412 L360.4926,263.3412" id="Stroke-73" stroke="#D6D6D6" stroke-linecap="round" stroke-linejoin="round"></path>
                <path d="M474.4316,232.9681 L549.4926,232.9681" id="Stroke-75" stroke="#D6D6D6" stroke-linecap="round" stroke-linejoin="round"></path>
                <path d="M563.8848,266.8178 L615.7538,266.8178" id="Stroke-77" stroke="#D6D6D6" stroke-linecap="round" stroke-linejoin="round"></path>
                <path d="M618.7549,220.4667 L686.8319,220.4667" id="Stroke-79" stroke="#D6D6D6" stroke-linecap="round" stroke-linejoin="round"></path>
                <path d="M428.5996,255.2294 L457.9456,255.2294" id="Stroke-81" stroke="#D6D6D6" stroke-linecap="round" stroke-linejoin="round"></path>
                <path d="M528.4717,255.2294 L548.7107,255.2294" id="Stroke-83" stroke="#D6D6D6" stroke-linecap="round" stroke-linejoin="round"></path>
                <path d="M611.2041,242.5375 L634.7931,242.5375" id="Stroke-85" stroke="#D6D6D6" stroke-linecap="round" stroke-linejoin="round"></path>
                <path d="M862.8271,233.87 L901.4651,233.87" id="Stroke-87" stroke="#D6D6D6" stroke-linecap="round" stroke-linejoin="round"></path>
                <path d="M754.5713,239.871 L767.3643,239.871" id="Stroke-89" stroke="#D6D6D6" stroke-linecap="round" stroke-linejoin="round"></path>
                <path d="M494.5371,268.766 L506.4991,268.766" id="Stroke-91" stroke="#D6D6D6" stroke-linecap="round" stroke-linejoin="round"></path>
                <path d="M792.5088,260.266 L827.4928,260.266" id="Stroke-94" stroke="#D6D6D6" stroke-linecap="round" stroke-linejoin="round"></path>
                <path d="M354.9355,227.0018 L401.6625,227.0018" id="Stroke-96" stroke="#D6D6D6" stroke-linecap="round" stroke-linejoin="round"></path>
                <path d="M412.873,227.0018 L424.838,227.0018" id="Stroke-98" stroke="#D6D6D6" stroke-linecap="round" stroke-linejoin="round"></path>
                <path d="M186.0879,239.7787 L198.0519,239.7787" id="Stroke-100" stroke="#D6D6D6" stroke-linecap="round" stroke-linejoin="round"></path>
                <path d="M46.0879,219.7787 L58.0519,219.7787" id="Stroke-102" stroke="#D6D6D6" stroke-linecap="round" stroke-linejoin="round"></path>
                <path d="M140.2891,264.3339 L168.8051,264.3339" id="Stroke-104" stroke="#D6D6D6" stroke-linecap="round" stroke-linejoin="round"></path>
                <path d="M807.6348,223.0009 L827.5058,223.0009" id="Stroke-106" stroke="#D6D6D6" stroke-linecap="round" stroke-linejoin="round"></path>
                <path d="M855.6348,253.0009 L868.1598,253.0009" id="Stroke-108" stroke="#D6D6D6" stroke-linecap="round" stroke-linejoin="round"></path>
                <path d="M199.8818,264.3339 L214.3278,264.3339" id="Stroke-110" stroke="#D6D6D6" stroke-linecap="round" stroke-linejoin="round"></path>
                <path d="M610.1055,70.2157 L610.1055,200.2707" id="Stroke-112" stroke="#D6D6D6" stroke-linecap="round" stroke-linejoin="round"></path>
                <polyline id="Stroke-114" stroke="#D6D6D6" stroke-linecap="round" stroke-linejoin="round" points="535.875 53.7865 514.616 65.5715 535.957 85.2445 490.46 110.2295 490.46 200.1825 514.463 169.6485 535.875 200.1825 535.875 53.7865 514.32 31.5065 514.32 200.1825 535.818 171.7305 513.98 128.4085 490.67 140.7645"></polyline>
                <polyline id="Stroke-116" stroke="#D6D6D6" stroke-linecap="round" stroke-linejoin="round" points="514.6162 96.8983 535.9572 116.5693 514.3982 128.4083 490.4602 110.2293"></polyline>
                <path d="M514.0986,158.6952 L490.4596,140.7612" id="Stroke-118" stroke="#D6D6D6" stroke-linecap="round" stroke-linejoin="round"></path>
                <polyline id="Stroke-120" stroke="#D6D6D6" stroke-linecap="round" stroke-linejoin="round" points="514.29 158.7431 490.67 170.6981 514.102 200.1731"></polyline>
                <polyline id="Stroke-122" stroke="#D6D6D6" stroke-linecap="round" stroke-linejoin="round" points="514.4629 169.6488 535.7929 144.8778 514.3989 128.4088"></polyline>
                <path d="M525.0273,42.0443 L525.0273,5.9343" id="Stroke-124" stroke="#D6D6D6" stroke-linecap="round" stroke-linejoin="round"></path>
                <path d="M516.3818,33.246 L516.3818,8.791" id="Stroke-126" stroke="#D6D6D6" stroke-linecap="round" stroke-linejoin="round"></path>
                <polygon id="Stroke-128" stroke="#D6D6D6" stroke-linecap="round" stroke-linejoin="round" points="546.765 70.048 614.086 70.048 614.086 65.082 546.765 65.082"></polygon>
                <path d="M551.3135,70.2157 L551.3135,200.2707" id="Stroke-130" stroke="#D6D6D6" stroke-linecap="round" stroke-linejoin="round"></path>
                <polygon id="Stroke-131" stroke="#D6D6D6" stroke-linecap="round" stroke-linejoin="round" points="557.25 133.154 603.6 133.154 603.6 123.222 557.25 123.222"></polygon>
                <path d="M580.4248,122.9452 L580.4248,133.4292" id="Stroke-132" stroke="#D6D6D6" stroke-linejoin="round"></path>
                <polygon id="Stroke-133" stroke="#D6D6D6" stroke-linecap="round" stroke-linejoin="round" points="557.25 147.676 603.6 147.676 603.6 137.744 557.25 137.744"></polygon>
                <path d="M580.4248,137.4672 L580.4248,147.9512" id="Stroke-134" stroke="#D6D6D6" stroke-linejoin="round"></path>
                <polygon id="Stroke-135" stroke="#D6D6D6" stroke-linecap="round" stroke-linejoin="round" points="557.25 162.198 603.6 162.198 603.6 152.265 557.25 152.265"></polygon>
                <path d="M580.4248,151.9896 L580.4248,162.4736" id="Stroke-136" stroke="#D6D6D6" stroke-linejoin="round"></path>
                <polygon id="Stroke-137" stroke="#D6D6D6" stroke-linecap="round" stroke-linejoin="round" points="557.25 89.588 603.6 89.588 603.6 79.655 557.25 79.655"></polygon>
                <path d="M580.4248,79.3793 L580.4248,89.8633" id="Stroke-138" stroke="#D6D6D6" stroke-linejoin="round"></path>
                <polygon id="Stroke-139" stroke="#D6D6D6" stroke-linecap="round" stroke-linejoin="round" points="557.25 104.11 603.6 104.11 603.6 94.178 557.25 94.178"></polygon>
                <path d="M580.4248,93.9013 L580.4248,104.3853" id="Stroke-140" stroke="#D6D6D6" stroke-linejoin="round"></path>
                <polygon id="Stroke-141" stroke="#D6D6D6" stroke-linecap="round" stroke-linejoin="round" points="557.25 118.632 603.6 118.632 603.6 108.7 557.25 108.7"></polygon>
                <path d="M580.4248,108.4232 L580.4248,118.9072" id="Stroke-142" stroke="#D6D6D6" stroke-linejoin="round"></path>
                <polygon id="Stroke-143" stroke="#D6D6D6" stroke-linecap="round" stroke-linejoin="round" points="557.25 176.72 603.6 176.72 603.6 166.788 557.25 166.788"></polygon>
                <path d="M580.4248,166.5111 L580.4248,176.9951" id="Stroke-144" stroke="#D6D6D6" stroke-linejoin="round"></path>
                <polygon id="Stroke-145" stroke="#D6D6D6" stroke-linecap="round" stroke-linejoin="round" points="557.25 191.242 603.6 191.242 603.6 181.31 557.25 181.31"></polygon>
                <path d="M580.4248,181.0341 L580.4248,191.5181" id="Stroke-146" stroke="#D6D6D6" stroke-linejoin="round"></path>
                <path d="M80.957,155.0331 C74.728,154.9361 67.127,155.0241 59.543,155.1961 L59.543,152.5861 C67.127,152.4121 74.723,152.3221 80.957,152.4201 L80.957,155.0331 Z M80.957,159.5401 C74.735,159.4631 67.14,159.5511 59.543,159.7011 L59.543,157.0871 C67.137,156.9331 74.728,156.8471 80.957,156.9281 L80.957,159.5401 Z M80.957,164.0541 C74.742,163.9941 67.144,164.0701 59.543,164.2071 L59.543,161.5901 C67.144,161.4541 74.74,161.3761 80.957,161.4311 L80.957,164.0541 Z M80.957,168.5661 C74.742,168.5231 67.144,168.5941 59.543,168.7131 L59.543,166.0871 C67.144,165.9691 74.74,165.9021 80.957,165.9451 L80.957,168.5661 Z M80.957,173.0841 C74.74,173.0551 67.15,173.1121 59.543,173.2121 L59.543,170.5851 C67.144,170.4881 74.735,170.4291 80.957,170.4551 L80.957,173.0841 Z M80.957,177.6021 C74.735,177.5821 67.15,177.6361 59.543,177.7121 L59.543,175.0801 C67.144,175.0011 74.728,174.9511 80.957,174.9691 L80.957,177.6021 Z M80.957,182.1201 C74.728,182.1111 67.144,182.1471 59.543,182.2051 L59.543,179.5721 C67.144,179.5111 74.728,179.4741 80.957,179.4841 L80.957,182.1201 Z M80.957,186.6441 C74.713,186.6371 67.14,186.6621 59.543,186.7021 L59.543,184.0641 C67.14,184.0241 74.713,183.9971 80.957,184.0001 L80.957,186.6441 Z M80.957,191.1621 C74.703,191.1591 67.137,191.1751 59.543,191.1911 L59.543,188.5491 C67.137,188.5271 74.703,188.5201 80.957,188.5201 L80.957,191.1621 Z M59.543,195.6811 L80.957,195.6811 L80.957,193.0341 L59.543,193.0341 L59.543,195.6811 Z M58.101,100.9831 C52.482,101.2571 47.133,101.7121 42.529,102.1951 C42.557,101.3451 42.588,100.4861 42.627,99.6271 C47.203,99.1481 52.52,98.6951 58.101,98.4221 L58.101,100.9831 Z M58.101,105.5191 C52.445,105.7881 47.039,106.2201 42.379,106.6851 C42.4,105.8321 42.427,104.9751 42.455,104.1151 C47.1,103.6541 52.476,103.2231 58.101,102.9561 L58.101,105.5191 Z M58.101,110.0511 C52.428,110.3131 46.989,110.7261 42.278,111.1611 C42.297,110.3111 42.311,109.4571 42.331,108.5921 C47.022,108.1591 52.445,107.7471 58.101,107.4851 L58.101,110.0511 Z M58.101,114.5841 C52.428,114.8391 46.967,115.2271 42.227,115.6341 C42.23,114.7831 42.24,113.9291 42.252,113.0591 C46.977,112.6551 52.434,112.2641 58.101,112.0091 L58.101,114.5841 Z M58.101,119.1091 C52.445,119.3521 46.977,119.7171 42.221,120.0951 L42.221,117.5181 C46.977,117.1391 52.439,116.7751 58.101,116.5321 L58.101,119.1091 Z M58.101,123.6331 C52.459,123.8641 46.994,124.2071 42.221,124.5551 L42.221,121.9761 C46.989,121.6241 52.453,121.2871 58.101,121.0491 L58.101,123.6331 Z M58.101,128.1541 C52.476,128.3731 47.01,128.6891 42.221,129.0131 L42.221,126.4281 C47.01,126.1061 52.473,125.7901 58.101,125.5661 L58.101,128.1541 Z M58.101,132.6731 C52.486,132.8791 47.025,133.1701 42.221,133.4701 L42.221,130.8781 C47.022,130.5791 52.485,130.2891 58.101,130.0811 L58.101,132.6731 Z M58.101,137.1871 C52.504,137.3831 47.039,137.6511 42.221,137.9211 L42.221,135.3291 C47.034,135.0571 52.5,134.7861 58.101,134.5931 L58.101,137.1871 Z M58.101,141.7011 C52.511,141.8781 47.047,142.1231 42.221,142.3711 L42.221,139.7761 C47.047,139.5301 52.511,139.2851 58.101,139.1051 L58.101,141.7011 Z M58.101,146.2131 C52.52,146.3801 47.064,146.5991 42.221,146.8221 L42.221,144.2201 C47.06,143.9961 52.52,143.7731 58.101,143.6081 L58.101,146.2131 Z M58.101,150.7191 C52.537,150.8711 47.069,151.0711 42.221,151.2721 L42.221,148.6631 C47.069,148.4651 52.531,148.2681 58.101,148.1171 L58.101,150.7191 Z M58.101,155.2311 C52.549,155.3661 47.077,155.5401 42.221,155.7201 L42.221,153.1101 C47.077,152.9331 52.541,152.7521 58.101,152.6161 L58.101,155.2311 Z M58.101,159.7351 C52.555,159.8551 47.093,160.0121 42.221,160.1651 L42.221,157.5481 C47.086,157.3941 52.555,157.2401 58.101,157.1181 L58.101,159.7351 Z M58.101,164.2341 C52.562,164.3411 47.1,164.4721 42.221,164.6041 L42.221,161.9891 C47.1,161.8561 52.559,161.7241 58.101,161.6171 L58.101,164.2341 Z M58.101,168.7361 C52.568,168.8261 47.102,168.9391 42.221,169.0501 L42.221,166.4271 C47.102,166.3151 52.562,166.1991 58.101,166.1111 L58.101,168.7361 Z M58.101,173.2341 C52.576,173.3091 47.115,173.4011 42.221,173.4931 L42.221,170.8661 C47.111,170.7771 52.572,170.6821 58.101,170.6071 L58.101,173.2341 Z M58.101,177.7261 C52.579,177.7871 47.118,177.8611 42.221,177.9331 L42.221,175.3021 C47.118,175.2301 52.576,175.1581 58.101,175.0961 L58.101,177.7261 Z M58.101,182.2181 C52.586,182.2621 47.125,182.3161 42.221,182.3691 L42.221,179.7331 C47.125,179.6811 52.586,179.6301 58.101,179.5801 L58.101,182.2181 Z M58.101,186.7101 C52.589,186.7381 47.133,186.7761 42.221,186.8071 L42.221,184.1711 C47.133,184.1361 52.589,184.0991 58.101,184.0711 L58.101,186.7101 Z M58.101,191.1971 C52.592,191.2151 47.135,191.2301 42.221,191.2471 L42.221,188.6031 C47.135,188.5871 52.592,188.5711 58.101,188.5561 L58.101,191.1971 Z M42.221,195.6811 L58.101,195.6811 L58.101,193.0341 L42.221,193.0341 L42.221,195.6811 Z M59.543,148.0821 C67.112,147.8881 74.7,147.7951 80.939,147.9221 C80.947,148.7941 80.951,149.6601 80.951,150.5291 C74.708,150.4041 67.115,150.4911 59.543,150.6851 L59.543,148.0821 Z M59.543,143.5701 C67.076,143.3591 74.643,143.2661 80.895,143.4241 C80.914,144.2921 80.924,145.1601 80.927,146.0331 C74.67,145.8721 67.094,145.9671 59.543,146.1751 L59.543,143.5701 Z M59.543,139.0621 C67.026,138.8371 74.557,138.7441 80.826,138.9291 C80.844,139.7961 80.861,140.6571 80.875,141.5311 C74.602,141.3401 67.052,141.4311 59.543,141.6581 L59.543,139.0621 Z M59.543,134.5471 C66.969,134.3071 74.449,134.2171 80.73,134.4381 C80.751,135.3001 80.775,136.1611 80.793,137.0381 C74.502,136.8131 66.996,136.9021 59.543,137.1431 L59.543,134.5471 Z M59.543,130.0311 C66.895,129.7811 74.318,129.6961 80.607,129.9491 C80.635,130.8141 80.665,131.6721 80.686,132.5511 C74.381,132.2861 66.924,132.3731 59.543,132.6221 L59.543,130.0311 Z M59.543,125.5151 C66.805,125.2541 74.167,125.1751 80.469,125.4651 C80.497,126.3281 80.529,127.1821 80.555,128.0611 C74.24,127.7631 66.844,127.8401 59.543,128.0991 L59.543,125.5151 Z M59.543,120.9951 C66.711,120.7251 73.993,120.6551 80.307,120.9841 C80.343,121.8451 80.371,122.6941 80.404,123.5791 C74.072,123.2411 66.75,123.3051 59.543,123.5751 L59.543,120.9951 Z M59.543,116.4691 C66.598,116.1951 73.804,116.1371 80.119,116.5061 C80.159,117.3611 80.197,118.2021 80.232,119.0951 C73.889,118.7181 66.644,118.7701 59.543,119.0461 L59.543,116.4691 Z M59.543,111.9451 C66.478,111.6651 73.588,111.6201 79.918,112.0271 C79.957,112.8621 79.998,113.7261 80.041,114.6151 C73.688,114.1951 66.527,114.2361 59.543,114.5191 L59.543,111.9451 Z M59.543,107.4161 C66.349,107.1351 73.365,107.1091 79.695,107.5521 C79.73,108.3671 79.779,109.2341 79.826,110.1371 C73.465,109.6801 66.404,109.7001 59.543,109.9851 L59.543,107.4161 Z M59.543,102.8821 C66.217,102.6041 73.124,102.5941 79.446,103.0741 C79.494,103.8521 79.543,104.7191 79.592,105.6571 C73.232,105.1641 66.262,105.1671 59.543,105.4521 L59.543,102.8821 Z M59.543,98.3521 C66.07,98.0751 72.857,98.0811 79.178,98.5951 C79.209,99.0581 79.266,99.9491 79.34,101.1781 C72.974,100.6461 66.125,100.6361 59.543,100.9111 L59.543,98.3521 Z M82.398,155.0641 L82.398,152.4501 C85.358,152.5151 88,152.6231 90.057,152.7991 L90.057,150.9871 C87.984,150.7771 85.35,150.6481 82.398,150.5691 C82.393,149.6961 82.389,148.8291 82.385,147.9601 C85.336,148.0361 87.971,148.1681 90.043,148.3741 C90.041,147.7701 90.037,147.1661 90.031,146.5651 C87.947,146.3251 85.309,146.1721 82.372,146.0771 C82.369,145.2051 82.355,144.3361 82.34,143.4651 C85.281,143.5641 87.92,143.7171 90.012,143.9511 C90.002,143.3511 89.992,142.7461 89.989,142.1441 C87.883,141.8711 85.246,141.6981 82.32,141.5811 C82.305,140.7101 82.292,139.8461 82.271,138.9791 C85.201,139.0921 87.841,139.2661 89.957,139.5361 C89.951,138.9311 89.943,138.3361 89.931,137.7331 C87.788,137.4281 85.152,137.2301 82.236,137.0981 C82.221,136.2211 82.199,135.3611 82.179,134.4931 C85.092,134.6231 87.738,134.8211 89.889,135.1201 C89.876,134.5191 89.86,133.9281 89.851,133.3271 C87.672,132.9921 85.031,132.7671 82.131,132.6161 C82.103,131.7361 82.084,130.8831 82.056,130.0181 C84.961,130.1661 87.613,130.3861 89.8,130.7191 C89.785,130.1151 89.768,129.5221 89.754,128.9261 C87.531,128.5561 84.888,128.3091 82,128.1411 C81.975,127.2571 81.945,126.4021 81.919,125.5391 C84.801,125.7071 87.451,125.9521 89.685,126.3131 C89.669,125.7101 89.644,125.1151 89.624,124.5151 C87.365,124.1201 84.719,123.8491 81.849,123.6611 C81.818,122.7741 81.785,121.9231 81.752,121.0671 C84.621,121.2531 87.269,121.5181 89.541,121.9071 C89.52,121.3051 89.498,120.7061 89.476,120.1061 C87.172,119.6851 84.522,119.3901 81.68,119.1851 C81.646,118.2911 81.609,117.4441 81.569,116.5931 C84.41,116.7941 87.057,117.0811 89.373,117.4951 C89.345,116.8921 89.324,116.2921 89.294,115.6921 C86.947,115.2491 84.306,114.9351 81.488,114.7091 C81.447,113.8161 81.408,112.9581 81.367,112.1201 C84.18,112.3361 86.821,112.6471 89.172,113.0821 C89.143,112.4771 89.113,111.8761 89.082,111.2731 C86.701,110.8081 84.064,110.4741 81.277,110.2361 C81.227,109.3381 81.188,108.4651 81.144,107.6511 C83.926,107.8821 86.557,108.2101 88.938,108.6631 C88.906,108.0561 88.871,107.4521 88.832,106.8511 C86.422,106.3731 83.8,106.0171 81.047,105.7651 C80.992,104.8271 80.944,103.9611 80.902,103.1781 C83.642,103.4231 86.258,103.7671 88.67,104.2371 C88.632,103.6281 88.587,103.0161 88.547,102.4181 C86.109,101.9251 83.504,101.5571 80.793,101.2931 C80.717,100.0951 80.665,99.2281 80.633,98.7081 C83.332,98.9671 85.925,99.3231 88.359,99.8031 C88.311,99.1951 88.264,98.5861 88.219,97.9781 C74.063,95.0921 55.443,96.2781 42.709,97.6991 C42.746,96.8451 42.787,95.9911 42.822,95.1361 C55.47,93.7241 73.902,92.5501 88.002,95.3651 C87.947,94.7491 87.892,94.1401 87.841,93.5301 C73.344,90.5561 55.305,91.7301 42.918,93.1941 C42.961,92.3401 43.006,91.4881 43.051,90.6361 C55.346,89.1861 73.18,88.0261 87.596,90.9101 C87.531,90.2911 87.465,89.6851 87.406,89.0721 C72.618,86.0331 55.182,87.1831 43.159,88.6791 C43.205,87.8221 43.258,86.9701 43.307,86.1191 C55.223,84.6411 72.436,83.5061 87.124,86.4501 C87.051,85.8241 86.979,85.2171 86.904,84.6001 C71.875,81.5181 55.066,82.6341 43.422,84.1531 C43.475,83.2961 43.529,82.4441 43.584,81.5971 C55.123,80.1001 71.686,78.9971 86.582,81.9701 C86.502,81.3471 86.422,80.7311 86.338,80.1161 C71.136,77.0181 54.975,78.0851 43.711,79.6191 C43.769,78.7591 43.824,77.9071 43.885,77.0661 C55.026,75.5541 70.934,74.5011 85.961,77.4781 C85.873,76.8551 85.779,76.2221 85.684,75.6141 C70.383,72.5241 54.881,73.5321 44.023,75.0701 C44.082,74.2071 44.146,73.3581 44.202,72.5191 C54.934,71.0071 70.164,70.0121 85.253,72.9621 C85.143,72.3331 85.039,71.7041 84.932,71.0851 C69.627,68.0431 54.805,68.9881 44.351,70.5121 C44.416,69.6471 44.484,68.7951 44.544,67.9631 C54.854,66.4641 69.381,65.5311 84.441,68.4291 C84.313,67.7871 84.18,67.1641 84.055,66.5341 C68.847,63.5671 54.727,64.4351 44.699,65.9421 C44.768,65.0721 44.836,64.2141 44.904,63.3931 C54.774,61.9191 68.576,61.0611 83.475,63.8611 C83.332,63.2251 83.187,62.5851 83.035,61.9601 C68.033,59.0991 54.639,59.8911 45.07,61.3631 C45.139,60.4771 45.217,59.6331 45.283,58.8201 C54.679,57.3871 67.719,56.6101 82.359,59.2881 C82.184,58.6311 82.005,57.9921 81.822,57.3551 C67.191,54.6561 54.561,55.3541 45.459,56.7721 C45.534,55.8611 45.607,54.9981 45.68,54.2271 C54.593,52.8611 66.857,52.1901 81.023,54.6791 C80.844,54.1131 80.662,53.5581 80.477,53.0101 C71.321,50.8511 56.681,50.8481 47.906,51.7971 C43.236,52.3021 40.048,53.0221 37.922,53.6811 C37.588,54.7151 37.34,55.5151 37.225,55.9051 C39.182,55.4191 41.528,54.9161 44.212,54.4651 C44.141,55.2461 44.066,56.0891 43.986,57.0041 C41.043,57.5091 38.508,58.0711 36.457,58.6031 C36.283,59.2711 36.115,59.9761 35.947,60.6641 C38.062,60.1391 40.717,59.5631 43.816,59.0491 C43.746,59.8561 43.679,60.7141 43.602,61.5941 C40.273,62.1501 37.462,62.7751 35.285,63.3301 C35.139,63.9711 35.014,64.6671 34.873,65.3281 C37.092,64.7921 39.998,64.1751 43.439,63.6211 C43.371,64.4431 43.307,65.3011 43.236,66.1711 C39.611,66.7611 36.578,67.4151 34.332,67.9681 C34.201,68.6231 34.066,69.2681 33.949,69.9381 C36.221,69.4091 39.346,68.7661 43.08,68.1821 C43.016,69.0191 42.95,69.8701 42.889,70.7401 C39.003,71.3501 35.781,72.0171 33.5,72.5561 C33.391,73.2021 33.275,73.8371 33.172,74.4951 C35.469,73.9851 38.768,73.3341 42.74,72.7341 C42.682,73.5721 42.617,74.4241 42.562,75.2861 C38.441,75.9121 35.062,76.5851 32.766,77.1001 C32.673,77.7241 32.588,78.3741 32.496,79.0081 C34.803,78.5261 38.242,77.8761 42.424,77.2711 C42.361,78.1161 42.309,78.9681 42.252,79.8281 C37.939,80.4531 34.422,81.1241 32.133,81.6101 C32.051,82.2271 31.978,82.8621 31.896,83.4901 C34.191,83.0371 37.762,82.3991 42.123,81.7991 C42.072,82.6451 42.019,83.4921 41.965,84.3541 C37.496,84.9731 33.875,85.6221 31.596,86.0771 C31.524,86.7001 31.451,87.3141 31.381,87.9441 C33.665,87.5211 37.334,86.9041 41.85,86.3091 C41.795,87.1591 41.748,88.0121 41.701,88.8691 C37.096,89.4771 33.368,90.1091 31.103,90.5311 C31.043,91.1381 30.988,91.7641 30.933,92.3761 C33.204,91.9841 36.959,91.3881 41.596,90.8131 C41.553,91.6661 41.505,92.5171 41.467,93.3741 C36.739,93.9611 32.933,94.5711 30.688,94.9611 C30.629,95.5781 30.57,96.1721 30.515,96.7951 C32.766,96.4331 36.617,95.8611 41.369,95.3041 C41.332,96.1601 41.291,97.0131 41.254,97.8671 C36.43,98.4341 32.55,99.0131 30.316,99.3731 C30.268,99.9781 30.225,100.5881 30.176,101.1941 C32.43,100.8581 36.339,100.3181 41.178,99.7861 C41.141,100.6441 41.105,101.4981 41.072,102.3521 C36.168,102.8951 32.22,103.4441 29.982,103.7771 C29.943,104.3791 29.904,104.9821 29.865,105.5881 C32.124,105.2771 36.098,104.7671 41.012,104.2601 C40.984,105.1231 40.956,105.9801 40.934,106.8321 C35.961,107.3421 31.959,107.8561 29.711,108.1721 C29.676,108.7711 29.637,109.3691 29.603,109.9751 C31.883,109.6861 35.908,109.2061 40.885,108.7291 C40.863,109.5941 40.846,110.4461 40.833,111.3001 C35.789,111.7811 31.719,112.2671 29.452,112.5541 C29.417,113.1471 29.397,113.7601 29.369,114.3511 C31.684,114.0821 35.765,113.6361 40.807,113.1851 C40.793,114.0541 40.785,114.9111 40.781,115.7581 C35.685,116.2121 31.559,116.6671 29.252,116.9331 C29.228,117.5311 29.193,118.1211 29.173,118.7221 C31.524,118.4711 35.672,118.0541 40.778,117.6331 L40.778,120.2111 C35.611,120.6371 31.418,121.0581 29.062,121.3101 C29.042,121.8991 29.022,122.5041 29.002,123.0961 C31.41,122.8631 35.619,122.4761 40.778,122.0841 L40.778,124.6621 C35.572,125.0571 31.326,125.4491 28.919,125.6831 C28.898,126.2791 28.877,126.8661 28.859,127.4661 C31.318,127.2461 35.574,126.8891 40.778,126.5261 L40.778,129.1091 C35.541,129.4761 31.25,129.8341 28.783,130.0571 C28.768,130.6421 28.758,131.2411 28.74,131.8301 C31.263,131.6271 35.557,131.3021 40.778,130.9661 L40.778,133.5581 C35.527,133.8921 31.213,134.2211 28.686,134.4261 C28.676,135.0171 28.662,135.6021 28.644,136.2011 C31.221,136.0131 35.543,135.7161 40.778,135.4121 L40.778,138.0031 C35.52,138.3081 31.183,138.6081 28.599,138.7951 C28.589,139.3801 28.589,139.9761 28.576,140.5651 C31.213,140.3941 35.551,140.1271 40.778,139.8521 L40.778,142.4451 C35.537,142.7201 31.187,142.9861 28.547,143.1601 C28.539,143.7511 28.529,144.3361 28.529,144.9281 C31.218,144.7731 35.563,144.5341 40.778,144.2861 L40.778,146.8851 C35.557,147.1341 31.203,147.3741 28.506,147.5301 C28.496,148.1171 28.496,148.7101 28.496,149.2981 C31.246,149.1541 35.592,148.9451 40.778,148.7231 L40.778,151.3311 C35.592,151.5491 31.243,151.7621 28.485,151.9031 C28.484,152.4911 28.478,153.0751 28.476,153.6641 C31.279,153.5361 35.627,153.3491 40.778,153.1591 L40.778,155.7721 C35.627,155.9611 31.279,156.1481 28.471,156.2751 L28.471,158.0331 C31.321,157.9241 35.664,157.7611 40.778,157.5951 L40.778,160.2101 C35.667,160.3751 31.326,160.5391 28.471,160.6481 L28.471,162.4051 C31.366,162.3071 35.705,162.1681 40.778,162.0301 L40.778,164.6431 C35.705,164.7851 31.373,164.9231 28.471,165.0191 L28.471,166.7761 C31.411,166.6921 35.739,166.5801 40.778,166.4631 L40.778,169.0831 C35.744,169.2001 31.414,169.3161 28.471,169.3991 L28.471,171.1501 C31.453,171.0821 35.774,170.9901 40.778,170.8921 L40.778,173.5241 C35.777,173.6181 31.453,173.7081 28.471,173.7771 L28.471,175.5241 C31.486,175.4701 35.805,175.4001 40.778,175.3261 L40.778,177.9551 C35.805,178.0281 31.486,178.1011 28.471,178.1541 L28.471,179.9001 C31.524,179.8591 35.83,179.8051 40.778,179.7511 L40.778,182.3871 C35.83,182.4431 31.524,182.4951 28.471,182.5311 L28.471,184.2771 C31.555,184.2531 35.857,184.2201 40.778,184.1831 L40.778,186.8181 C35.857,186.8551 31.555,186.8881 28.471,186.9151 L28.471,188.6561 C31.583,188.6471 35.883,188.6291 40.778,188.6111 L40.778,191.2521 C35.883,191.2691 31.583,191.2861 28.471,191.3011 L28.471,193.0341 L40.778,193.0341 L40.778,195.6811 L28.471,195.6811 L28.471,197.3191 L90.064,197.3191 L90.064,195.6811 L82.398,195.6811 L82.398,193.0341 L90.064,193.0341 L90.064,191.1791 C87.965,191.1741 85.334,191.1661 82.398,191.1621 L82.398,188.5201 C85.334,188.5211 87.965,188.5241 90.064,188.5371 L90.064,186.6831 C87.975,186.6591 85.34,186.6501 82.398,186.6441 L82.398,184.0011 C85.34,184.0061 87.975,184.0191 90.064,184.0401 L90.064,182.1901 C87.988,182.1531 85.353,182.1331 82.398,182.1231 L82.398,179.4871 C85.353,179.4931 87.988,179.5131 90.064,179.5521 L90.064,177.7061 C88.002,177.6531 85.358,177.6271 82.398,177.6091 L82.398,174.9781 C85.358,174.9921 88.002,175.0181 90.064,175.0741 L90.064,173.2291 C88.005,173.1541 85.366,173.1121 82.398,173.0931 L82.398,170.4651 C85.366,170.4881 88.005,170.5271 90.064,170.6011 L90.064,168.7621 C88.014,168.6641 85.366,168.6101 82.398,168.5791 L82.398,165.9591 C85.366,165.9881 88.014,166.0401 90.064,166.1361 L90.064,164.3021 C88.014,164.1831 85.373,164.1121 82.398,164.0701 L82.398,161.4541 C85.366,161.4931 88.014,161.5611 90.064,161.6811 L90.064,159.8531 C88.014,159.7071 85.366,159.6181 82.398,159.5681 L82.398,156.9491 C85.366,157.0001 88.014,157.0871 90.064,157.2351 L90.064,155.5011 L90.064,155.4141 C88.005,155.2391 85.363,155.1311 82.398,155.0641 L82.398,155.0641 Z" id="Fill-147" fill="#DDDDDD"></path>
                <path d="M39.3945,54.4486 L37.9015,53.7936 C38.0705,53.3986 42.1765,44.0906 45.6775,41.0876 C51.7775,35.8566 68.9375,37.5376 73.4625,40.0346 C77.9725,42.5216 80.4085,52.7166 80.5075,53.1486 L78.9195,53.5226 C78.2735,50.7696 75.8905,43.2396 72.6755,41.4656 C68.6565,39.2496 52.1505,37.6866 46.7425,42.3276 C43.5235,45.0886 39.4365,54.3556 39.3945,54.4486" id="Fill-148" fill="#DDDDDD"></path>
                <path d="M463.3906,133.7518 C463.6346,146.8898 453.1776,157.7358 440.0426,157.9788 C426.9066,158.2208 416.0586,147.7668 415.8156,134.6288 C415.5746,121.4908 426.0276,110.6438 439.1636,110.4008 C452.3026,110.1578 463.1506,120.6138 463.3906,133.7518 L463.3906,133.7518 Z" id="Stroke-149" stroke="#D6D6D6" stroke-linecap="round" stroke-linejoin="round"></path>
                <path d="M439.6035,201.0033 L439.6035,134.1823" id="Stroke-150" stroke="#D6D6D6" stroke-linecap="round" stroke-linejoin="round"></path>
                <path d="M656.002,165.5805 C656.195,175.9695 647.928,184.5465 637.541,184.7375 C627.152,184.9295 618.574,176.6635 618.384,166.2745 C618.191,155.8865 626.458,147.3095 636.846,147.1165 C647.233,146.9255 655.813,155.1915 656.002,165.5805 L656.002,165.5805 Z" id="Stroke-151" stroke="#DDDDDD" stroke-linecap="round" stroke-linejoin="round"></path>
                <path d="M636.7949,200.5038 L636.7949,165.8038" id="Stroke-152" stroke="#D6D6D6" stroke-linecap="round" stroke-linejoin="round"></path>
                <path d="M733.9551,169.2216 C738.6961,172.2876 744.3441,174.0666 750.4091,174.0666 C767.1701,174.0666 780.7561,160.4786 780.7561,143.7186 C780.7561,126.9576 767.1701,113.3706 750.4091,113.3706 C737.3181,113.3706 726.1571,121.6636 721.9021,133.2846" id="Stroke-153" stroke="#D6D6D6" stroke-linecap="round" stroke-linejoin="round"></path>
                <path d="M751.1289,201.0033 L751.1289,143.1593" id="Stroke-154" stroke="#D6D6D6" stroke-linecap="round" stroke-linejoin="round"></path>
                <path d="M691.8164,155.4291 C691.5804,168.2261 701.7634,178.7921 714.5574,179.0281 C727.3534,179.2631 737.9204,169.0801 738.1564,156.2831 C738.3914,143.4871 728.2104,132.9221 715.4144,132.6851 C702.6174,132.4491 692.0504,142.6321 691.8164,155.4291 L691.8164,155.4291 Z" id="Stroke-155" stroke="#D6D6D6" stroke-linecap="round" stroke-linejoin="round"></path>
                <path d="M715.5391,201.0033 L715.5391,162.6283" id="Stroke-156" stroke="#D6D6D6" stroke-linecap="round" stroke-linejoin="round"></path>
                <path d="M751.373,161.369 L760.322,153.178" id="Stroke-157" stroke="#D6D6D6" stroke-linecap="round" stroke-linejoin="round"></path>
                <path d="M750.4219,152.2557 L741.4709,144.0647" id="Stroke-158" stroke="#D6D6D6" stroke-linecap="round" stroke-linejoin="round"></path>
                <path d="M198.1475,200.2704 L198.1475,98.0844" id="Stroke-159" stroke="#D6D6D6" stroke-linecap="round" stroke-linejoin="round"></path>
                <path d="M198.5645,98.0512 L229.1895,90.0512" id="Stroke-160" stroke="#D6D6D6" stroke-linecap="round" stroke-linejoin="round"></path>
                <polyline id="Stroke-161" stroke="#D6D6D6" stroke-linecap="round" stroke-linejoin="round" points="220.6367 92.6718 221.2577 95.6718 229.1207 93.6028 228.1897 90.3958"></polyline>
                <path d="M198.3574,98.0512 L167.7344,90.0512" id="Stroke-162" stroke="#D6D6D6" stroke-linecap="round" stroke-linejoin="round"></path>
                <polyline id="Stroke-163" stroke="#D6D6D6" stroke-linecap="round" stroke-linejoin="round" points="176.2881 92.6718 175.6681 95.6718 167.8051 93.6028 168.7361 90.3958"></polyline>
                <path d="M672.4883,200.2704 L672.4883,98.0844" id="Stroke-164" stroke="#D6D6D6" stroke-linecap="round" stroke-linejoin="round"></path>
                <path d="M672.9043,98.0512 L703.5293,90.0512" id="Stroke-165" stroke="#D6D6D6" stroke-linecap="round" stroke-linejoin="round"></path>
                <polyline id="Stroke-166" stroke="#D6D6D6" stroke-linecap="round" stroke-linejoin="round" points="694.9785 92.6718 695.5975 95.6718 703.4605 93.6028 702.5295 90.3958"></polyline>
                <path d="M672.6982,98.0512 L642.0742,90.0512" id="Stroke-167" stroke="#D6D6D6" stroke-linecap="round" stroke-linejoin="round"></path>
                <polyline id="Stroke-168" stroke="#D6D6D6" stroke-linecap="round" stroke-linejoin="round" points="650.6289 92.6718 650.0079 95.6718 642.1449 93.6028 643.0759 90.3958"></polyline>
                <path d="M461.7754,181.5429 L459.1854,172.5229 L450.5214,169.8439 L442.6634,167.4319 L432.6604,162.6089 L418.0134,155.3759 L404.1704,152.6059 L371.2144,152.1599 L335.5804,152.0709 L336.1164,153.8569 L338.4384,154.9289 L334.2404,169.3079 L332.6324,180.2929 L332.5444,191.8139 L337.9924,193.1529 L346.4774,194.5829 L352.2674,194.5829 C353.2594,197.4009 355.9384,199.4259 359.0974,199.4259 C362.2554,199.4259 364.9354,197.4009 365.9274,194.5829 L433.1814,194.5829 C434.1734,197.4009 436.8534,199.4259 440.0114,199.4259 C443.1714,199.4259 445.8494,197.4009 446.8414,194.5829 L457.1304,194.5829 L462.3104,193.9569 L462.4614,189.2269 L461.7754,181.5429 Z" id="Fill-169" fill="#FFFFFF"></path>
                <path d="M448.5723,194.6185 C448.5723,194.6185 460.6723,194.8145 462.2973,193.6665 C462.2973,193.6665 462.3003,187.0705 461.8223,184.1095 C461.3433,181.1445 459.3423,173.1165 459.3423,173.1165 C458.0043,171.3945 453.8943,170.6275 450.2633,169.6695 C446.6333,168.7125 441.5663,167.3715 431.9133,162.3025 C422.2653,157.2315 420.1623,155.8905 410.4123,153.5935 C400.6643,151.2955 344.1273,152.0895 335.0953,152.2175 C335.0953,152.2175 335.3793,154.4175 338.6293,154.9935 L333.7463,169.7095 C333.7463,169.7095 334.2253,170.4755 334.1293,171.3355 C334.0333,172.1965 332.4063,175.1585 332.3983,192.1705 L347.4983,194.5695 L350.3983,194.5695" id="Stroke-170" stroke="#D6D6D6" stroke-linecap="round" stroke-linejoin="round"></path>
                <path d="M368.9248,186.5204 C369.7388,189.4264 367.5938,194.6734 367.5938,194.6734 L430.7788,194.5114" id="Stroke-171" stroke="#D6D6D6" stroke-linecap="round" stroke-linejoin="round"></path>
                <path d="M452.6533,170.3397 C452.6533,170.3397 407.0623,166.7817 398.9373,166.7777 C390.8123,166.7757 351.3363,166.7547 344.8383,166.7507 C338.3363,166.7487 334.7973,168.9447 334.1293,171.3357" id="Stroke-172" stroke="#D6D6D6" stroke-linecap="round" stroke-linejoin="round"></path>
                <path d="M370.3652,151.9501 C370.3652,151.9501 362.0422,160.2621 363.7602,171.8261 C365.0372,180.4351 367.5232,180.8351 368.8812,186.3411" id="Stroke-173" stroke="#D6D6D6" stroke-linecap="round" stroke-linejoin="round"></path>
                <path d="M399.4199,152.536 C399.4199,152.536 397.9839,163.338 398.4569,172.322 C398.9299,181.307 399.4079,183.697 399.3989,194.498" id="Stroke-174" stroke="#D6D6D6" stroke-linecap="round" stroke-linejoin="round"></path>
                <path d="M366.0439,192.1781 C366.0439,196.0841 362.8739,199.2511 358.9669,199.2481 C355.0609,199.2451 351.8949,196.0781 351.8979,192.1711 C351.8979,188.2641 355.0669,185.0991 358.9749,185.1001 C362.8809,185.1031 366.0469,188.2711 366.0439,192.1781 L366.0439,192.1781 Z" id="Stroke-175" stroke="#D6D6D6" stroke-linecap="round" stroke-linejoin="round"></path>
                <path d="M446.9082,192.2167 C446.9062,196.1237 443.7372,199.2877 439.8322,199.2867 C435.9242,199.2847 432.7592,196.1157 432.7592,192.2107 C432.7622,188.3017 435.9312,185.1377 439.8402,185.1397 C443.7422,185.1417 446.9082,188.3097 446.9082,192.2167 L446.9082,192.2167 Z" id="Stroke-176" stroke="#D6D6D6" stroke-linecap="round" stroke-linejoin="round"></path>
                <path d="M391.3984,171.6991 L396.5674,171.7011" id="Stroke-177" stroke="#D6D6D6" stroke-linecap="round" stroke-linejoin="round"></path>
                <path d="M400.5059,171.7025 L405.6769,171.7065" id="Stroke-178" stroke="#D6D6D6" stroke-linecap="round" stroke-linejoin="round"></path>
                <path d="M336.1152,162.9086 C336.1152,162.9086 341.8982,161.3996 346.9722,166.6266" id="Stroke-179" stroke="#D6D6D6" stroke-linecap="round" stroke-linejoin="round"></path>
                <path d="M438.7187,169.3764 C438.7187,169.3764 442.7137,179.1704 461.4727,183.1924" id="Stroke-180" stroke="#D6D6D6" stroke-linecap="round" stroke-linejoin="round"></path>
                <path d="M293.5371,179.5126 L291.5701,169.3936 L285.1761,148.9456 L279.9061,141.0756 L271.6141,137.9126 L234.4171,137.9126 L234.4171,136.0096 L157.0291,136.0096 L157.0291,137.9126 L102.6871,137.9126 L98.4021,141.5666 L96.6441,146.9076 L96.0131,153.9346 L95.0911,183.6586 L95.7321,189.8416 L100.8611,192.6526 L107.8381,192.4506 L147.5021,192.4506 C148.1481,196.3576 151.5331,199.3406 155.6251,199.3406 C159.7151,199.3406 163.1011,196.3576 163.7481,192.4506 L246.6271,192.4506 C247.2741,196.3576 250.6601,199.3406 254.7501,199.3406 C258.8421,199.3406 262.2271,196.3576 262.8741,192.4506 L286.4411,192.4506 L292.1331,192.1606 L293.6831,186.1876 L293.5371,179.5126 Z" id="Fill-181" fill="#FFFFFF"></path>
                <path d="M265.4375,192.892 C266.2815,192.892 286.3455,192.761 288.4215,192.748 C290.4965,192.733 293.8905,192.899 293.6405,183.28 C293.5875,181.274 293.2965,178.763 292.8155,175.972 L292.8155,175.971 L292.5915,174.714 C291.8495,170.695 290.7615,166.2 289.4915,161.85 L288.1895,157.634 C286.4415,152.304 284.4765,147.551 282.6325,144.682 C281.3615,142.707 280.0925,141.327 278.5415,140.369 C274.8865,138.114 269.6525,138.204 259.0755,138.374 C256.6485,138.416 253.9375,138.459 250.8965,138.48 C248.3365,138.497 244.3575,138.504 239.3265,138.506 L167.5275,138.358 C155.7635,138.32 144.3865,138.281 134.5785,138.249 C116.5025,138.185 103.7555,138.137 103.7555,138.137 C101.9235,138.148 100.0935,139.026 98.4825,141.567 C98.1015,142.164 97.7325,142.855 97.3765,143.649 C96.6365,145.311 96.1385,152.039 95.8065,159.693 C95.6295,163.849 95.4985,168.278 95.4085,172.319 C95.4045,172.424 95.4045,172.528 95.4005,172.632 C95.2465,179.638 95.2035,185.416 95.2105,186.484 C95.2305,189.315 95.6295,193.085 109.4025,192.993 C112.4715,192.972 141.3555,192.944 144.8045,192.942" id="Stroke-182" stroke="#D6D6D6" stroke-linecap="round" stroke-linejoin="round"></path>
                <path d="M166.4609,192.9418 L243.9729,192.8938" id="Stroke-183" stroke="#D6D6D6" stroke-linecap="round" stroke-linejoin="round"></path>
                <path d="M155.5625,182.8007 C150.9805,182.8307 147.2905,186.5697 147.3205,191.1527 C147.3505,195.7377 151.0895,199.4277 155.6755,199.3977 C160.2575,199.3677 163.9495,195.6257 163.9175,191.0427 C163.8855,186.4597 160.1485,182.7687 155.5625,182.8007 L155.5625,182.8007 Z" id="Stroke-184" stroke="#D6D6D6" stroke-linecap="round" stroke-linejoin="round"></path>
                <path d="M254.6504,182.7997 C250.0644,182.8317 246.3774,186.5707 246.4044,191.1537 C246.4334,195.7377 250.1764,199.4267 254.7584,199.3987 C259.3404,199.3657 263.0334,195.6277 263.0024,191.0437 C262.9724,186.4607 259.2324,182.7707 254.6504,182.7997 L254.6504,182.7997 Z" id="Stroke-185" stroke="#D6D6D6" stroke-linecap="round" stroke-linejoin="round"></path>
                <path d="M96.9902,145.3002 L282.5332,145.4732" id="Stroke-186" stroke="#D6D6D6" stroke-linecap="round" stroke-linejoin="round"></path>
                <path d="M95.9521,162.7977 L259.5841,162.6967" id="Stroke-187" stroke="#D6D6D6" stroke-linecap="round" stroke-linejoin="round"></path>
                <path d="M95.6064,174.2294 L267.8864,174.2554" id="Stroke-188" stroke="#D6D6D6" stroke-linecap="round" stroke-linejoin="round"></path>
                <path d="M257.0654,145.6459 C258.4144,154.3469 255.5144,181.2729 293.2534,181.0229" id="Stroke-189" stroke="#D6D6D6" stroke-linecap="round" stroke-linejoin="round"></path>
                <path d="M287.0254,173.3007 C287.0294,173.6467 286.7504,173.9297 286.4024,173.9317 L282.7674,174.8517 C282.4214,174.8527 282.1374,174.5747 282.1364,174.2287 L282.0664,163.4877 C282.0624,163.1407 282.3404,162.8587 282.6884,162.8547 L286.3214,163.5057 C286.6684,163.5017 286.9524,163.7817 286.9544,164.1287 L287.0254,173.3007 L287.0254,173.3007 Z" id="Stroke-190" stroke="#D6D6D6" stroke-linecap="round" stroke-linejoin="round"></path>
                <path d="M170.6348,175.0634 L170.7558,192.5964" id="Stroke-191" stroke="#D6D6D6" stroke-linecap="round" stroke-linejoin="round"></path>
                <path d="M225.3096,174.6991 L225.4316,192.9261" id="Stroke-192" stroke="#D6D6D6" stroke-linecap="round" stroke-linejoin="round"></path>
                <polyline id="Stroke-193" stroke="#D6D6D6" stroke-linecap="round" stroke-linejoin="round" points="234.4219 138.4799 234.4059 135.7369 156.9849 135.8159 157.0059 138.3469"></polyline>
                <path d="M636.7773,177.9735 L630.3053,171.9195" id="Stroke-194" stroke="#C4C5C6" stroke-linecap="round" stroke-linejoin="round"></path>
                <path d="M637.1855,173.6928 L643.6585,167.6378" id="Stroke-195" stroke="#D6D6D6" stroke-linecap="round" stroke-linejoin="round"></path>
                <polygon id="Stroke-196" stroke="#D6D6D6" stroke-linecap="round" stroke-linejoin="round" points="790.097 200.72 828.764 200.72 828.764 77.803 790.097 77.803"></polygon>
                <polygon id="Stroke-197" stroke="#D6D6D6" stroke-linecap="round" stroke-linejoin="round" points="828.825 200.845 884.158 200.845 884.158 50.47 828.825 50.47"></polygon>
                <path d="M795.1582,82.3021 L795.1582,197.4691" id="Stroke-198" stroke="#D6D6D6" stroke-linecap="round" stroke-linejoin="round"></path>
                <path d="M799.9062,82.3021 L799.9062,197.4691" id="Stroke-199" stroke="#D6D6D6" stroke-linecap="round" stroke-linejoin="round"></path>
                <path d="M804.6533,82.3021 L804.6533,197.4691" id="Stroke-200" stroke="#D6D6D6" stroke-linecap="round" stroke-linejoin="round"></path>
                <path d="M809.4014,82.3021 L809.4014,197.4691" id="Stroke-201" stroke="#D6D6D6" stroke-linecap="round" stroke-linejoin="round"></path>
                <path d="M814.1484,82.3021 L814.1484,197.4691" id="Stroke-202" stroke="#D6D6D6" stroke-linecap="round" stroke-linejoin="round"></path>
                <path d="M818.8965,82.3021 L818.8965,197.4691" id="Stroke-203" stroke="#D6D6D6" stroke-linecap="round" stroke-linejoin="round"></path>
                <path d="M823.6455,82.3021 L823.6455,197.4691" id="Stroke-204" stroke="#D6D6D6" stroke-linecap="round" stroke-linejoin="round"></path>
                <path d="M835.2607,56.328 L835.2607,197.47" id="Stroke-205" stroke="#D6D6D6" stroke-linecap="round" stroke-linejoin="round"></path>
                <path d="M840.5371,56.328 L840.5371,197.47" id="Stroke-206" stroke="#D6D6D6" stroke-linecap="round" stroke-linejoin="round"></path>
                <path d="M845.8145,56.328 L845.8145,197.47" id="Stroke-207" stroke="#D6D6D6" stroke-linecap="round" stroke-linejoin="round"></path>
                <path d="M851.0918,56.328 L851.0918,197.47" id="Stroke-208" stroke="#D6D6D6" stroke-linecap="round" stroke-linejoin="round"></path>
                <path d="M856.3682,56.328 L856.3682,197.47" id="Stroke-209" stroke="#D6D6D6" stroke-linecap="round" stroke-linejoin="round"></path>
                <path d="M861.6445,56.328 L861.6445,197.47" id="Stroke-210" stroke="#D6D6D6" stroke-linecap="round" stroke-linejoin="round"></path>
                <path d="M866.9219,56.328 L866.9219,197.47" id="Stroke-211" stroke="#D6D6D6" stroke-linecap="round" stroke-linejoin="round"></path>
                <path d="M872.1992,56.328 L872.1992,197.47" id="Stroke-212" stroke="#D6D6D6" stroke-linecap="round" stroke-linejoin="round"></path>
                <path d="M877.4756,56.328 L877.4756,197.47" id="Stroke-213" stroke="#D6D6D6" stroke-linecap="round" stroke-linejoin="round"></path>
                <path d="M684.2246,195.3768 L683.0146,192.6788 L684.1306,188.6798 L683.2936,184.6808 L674.1796,179.5648 L662.7386,177.3328 L651.4846,175.9378 L642.8356,171.2868 L627.3966,165.8928 L611.6776,165.1488 L591.2146,168.2178 L575.8696,173.4268 L567.8706,174.0778 L566.8476,183.1918 L565.4526,187.5638 L566.0096,193.3298 L577.5446,196.9768 L583.2276,196.9768 C584.5686,198.2868 586.4026,199.0978 588.4246,199.0978 C590.4486,199.0978 592.2816,198.2868 593.6226,196.9768 L660.1386,196.9768 C661.4996,198.4618 663.4486,199.3978 665.6206,199.3978 C667.7936,199.3978 669.7426,198.4618 671.1036,196.9768 L678.6426,196.9768 L684.2246,195.3768 Z" id="Fill-214" fill="#FFFFFF"></path>
                <path d="M673.6992,197.0614 L676.2752,197.0654 C676.2752,197.0654 681.9572,196.5174 682.9802,195.7724 L684.0082,195.0304 C684.0082,195.0304 682.9842,193.3524 683.1742,192.5154 C683.3612,191.6764 684.0132,190.0934 684.0152,189.3494 C684.0172,188.6044 684.1152,186.0904 682.9082,184.8774 C681.6972,183.6674 678.0702,181.1464 673.2302,179.4624 C668.3902,177.7784 658.3372,176.5524 652.0072,176.1684 C652.0072,176.1684 635.1702,166.4584 622.6932,165.6004 C610.2192,164.7424 594.3872,166.5814 581.7172,171.2144 C569.0452,175.8514 567.7452,173.8934 567.7452,173.8934 C567.7452,173.8934 567.5472,182.1804 566.0502,185.1564 C564.5562,188.1334 566.2232,193.0714 566.2232,193.0714 C566.2232,193.0714 574.4142,196.6224 577.0192,196.7194 C577.9942,196.7544 579.9392,196.7534 580.5312,196.7354" id="Stroke-215" stroke="#D6D6D6" stroke-linecap="round" stroke-linejoin="round"></path>
                <path d="M596.3584,196.9379 L657.6664,197.0339" id="Stroke-216" stroke="#D6D6D6" stroke-linecap="round" stroke-linejoin="round"></path>
                <path d="M595.8867,191.6996 C595.8797,195.7796 592.5667,199.0826 588.4867,199.0766 C584.4077,199.0686 581.1077,195.7556 581.1127,191.6756 C581.1207,187.5976 584.4317,184.2956 588.5107,184.3016 C592.5897,184.3076 595.8937,187.6196 595.8867,191.6996 L595.8867,191.6996 Z" id="Stroke-217" stroke="#D6D6D6" stroke-linecap="round" stroke-linejoin="round"></path>
                <path d="M673.043,192.0106 C673.041,196.0906 669.729,199.3916 665.647,199.3866 C661.566,199.3786 658.266,196.0666 658.273,191.9856 C658.279,187.9076 661.592,184.6046 665.67,184.6106 C669.751,184.6176 673.052,187.9316 673.043,192.0106 L673.043,192.0106 Z" id="Stroke-218" stroke="#D6D6D6" stroke-linecap="round" stroke-linejoin="round"></path>
                <path d="M637.3389,176.2098 C631.9319,176.2218 626.1929,176.2288 622.3419,176.2228 C613.0329,176.2068 588.5139,174.3078 586.0369,169.7088" id="Stroke-219" stroke="#D6D6D6" stroke-linecap="round" stroke-linejoin="round"></path>
                <path d="M652.0068,176.1688 C652.0068,176.1688 648.6388,176.1808 644.0158,176.1938" id="Stroke-220" stroke="#D6D6D6" stroke-linecap="round" stroke-linejoin="round"></path>
                <path d="M616.7744,165.3505 C616.7744,165.3505 618.5024,171.9345 619.4254,176.2805 C620.3494,180.6265 619.9084,184.9725 619.9064,186.3375 C619.9044,187.7035 619.7634,196.9535 619.7634,196.9535" id="Stroke-221" stroke="#D6D6D6" stroke-linecap="round" stroke-linejoin="round"></path>
                <path d="M643.8828,175.8851 C643.8828,175.8851 643.0178,174.2691 641.5288,173.7101 C640.0428,173.1481 638.4258,173.2701 637.8688,173.9521 C637.3068,174.6331 637.4918,176.2481 637.4918,176.2481 L644.4428,177.3761 L643.8828,175.8851 L643.8828,175.8851 Z" id="Stroke-222" stroke="#D6D6D6" stroke-linecap="round" stroke-linejoin="round"></path>
                <path d="M669.1172,182.6722 C669.1172,182.6722 671.0232,181.3922 671.6452,181.3922 C672.2652,181.3942 676.7752,181.1532 678.4722,181.7762" id="Stroke-223" stroke="#D6D6D6" stroke-linecap="round" stroke-linejoin="round"></path>
                <path d="M672.8457,181.3124 C672.8457,181.3124 677.1857,184.3394 679.0887,184.8404 C680.9937,185.3394 681.5057,185.1994 682.9087,184.8774" id="Stroke-224" stroke="#D6D6D6" stroke-linecap="round" stroke-linejoin="round"></path>
                <path d="M567.5332,173.8378 C567.5332,173.8378 575.8442,178.6928 575.7192,179.2508 C575.5932,179.8098 570.8752,180.5488 567.2752,180.0458" id="Stroke-225" stroke="#D6D6D6" stroke-linecap="round" stroke-linejoin="round"></path>
                <path d="M439.8262,146.8031 L447.4932,139.1361" id="Stroke-226" stroke="#D6D6D6" stroke-linecap="round" stroke-linejoin="round"></path>
                <path d="M439.4941,151.1019 L432.8651,142.4419" id="Stroke-227" stroke="#D6D6D6" stroke-linecap="round" stroke-linejoin="round"></path>
            </g>
        </g>
    </g>
</svg>