<?xml version="1.0" encoding="UTF-8" standalone="no"?>
<svg width="200px" height="199px" viewBox="0 0 200 199" version="1.1" xmlns="http://www.w3.org/2000/svg" xmlns:xlink="http://www.w3.org/1999/xlink">
    <!-- Generator: Sketch 3.7.2 (28276) - http://www.bohemiancoding.com/sketch -->
    <title>icn_chauffeur</title>
    <desc>Created with Sketch.</desc>
    <defs>
        <rect id="path-1" x="0" y="0" width="200" height="200"></rect>
        <polygon id="path-3" points="16.8490518 13.1964964 16.8490518 0.268780813 0.482137737 0.268780813 0.482137737 13.1964964 16.8490518 13.1964964"></polygon>
    </defs>
    <g id="Page-1" stroke="none" stroke-width="1" fill="none" fill-rule="evenodd">
        <g id="Desktop-Copy-10" transform="translate(-157.000000, -1260.000000)">
            <g id="icn_chauffeur" transform="translate(157.000000, 1260.000000)">
                <mask id="mask-2" fill="white">
                    <use xlink:href="#path-1"></use>
                </mask>
                <g id="Mask"></g>
                <g id="Group-10" mask="url(#mask-2)">
                    <g transform="translate(0.000000, -1.000000)">
                        <ellipse id="Oval-171" fill="#F1F1F2" cx="100" cy="100" rx="100" ry="100"></ellipse>
                        <g id="Page-1" stroke-width="1" fill="none" transform="translate(31.067961, 35.922330)">
                            <path d="M68.6356955,51.6644766 L68.4437165,51.6644766 L68.4218129,51.6644766 L68.229834,51.6644766 L19.3383359,51.6644766 C20.93859,47.1132946 22.9537247,41.4819312 25.4919699,34.3712727 C29.759314,22.4120283 33.7122766,14.3756838 36.827747,9.30307936 C44.8212866,8.99537569 55.0644588,8.79195652 68.229834,8.79195652 L68.4218129,8.79195652 L68.4437165,8.79195652 L68.6356955,8.79195652 C81.4892659,8.79195652 91.557209,8.98765091 99.4669994,9.28119249 C102.604373,14.3434973 107.008293,22.2794196 111.324598,34.3712727 C113.861555,41.4819312 115.87669,47.1132946 117.475656,51.6644766 L68.6356955,51.6644766 Z M127.039815,56.6920198 C126.5618,55.1741009 126.033536,53.5171359 125.434407,51.6644766 C123.850903,47.1454812 121.820307,41.4780688 119.234389,34.2335141 C114.94643,22.2163339 111.167408,14.5597911 108.097033,9.68545589 L108.095744,9.68545589 C104.677488,4.26008653 102.139243,2.28511819 100.761891,1.60662516 C98.1579349,0.326886872 68.6872335,0.00244617982 68.4437165,-0.000128746306 L68.4334089,-0.000128746306 L68.4321205,-0.000128746306 L68.4218129,-0.000128746306 C68.178296,0.00244617982 38.7063061,0.326886872 36.1036385,1.60662516 C34.7378822,2.27868088 32.2331367,4.22789996 28.8625533,9.53997256 L28.8612649,9.53997256 C28.8599764,9.53997256 28.7684965,9.68545589 28.7684965,9.68545589 C25.6981218,14.5597911 21.9178115,22.2163339 17.6298521,34.2335141 C15.0439343,41.4780688 13.0146266,47.1454812 11.4311224,51.6644766 C10.830705,53.5171359 10.3024408,55.1741009 9.8244261,56.6920198 C7.1444515,65.2304749 6.30180564,68.8958822 6.30180564,71.9600443 C6.30180564,73.2565196 6.34690137,75.7696475 6.41518918,78.8119228 C6.61361038,87.6078704 6.99885673,100.882902 6.99885673,102.43687 C6.99885673,102.987904 9.08356773,103.83248 12.7157064,104.773615 L12.7157064,90.9321 C12.7157064,88.807786 14.4538245,87.0697108 16.5810544,87.0697108 L26.2444243,87.0697108 C28.3703657,87.0697108 30.1097723,88.807786 30.1097723,90.9321 L30.1097723,108.046347 C40.9237274,109.58229 54.4769259,110.79508 68.4218129,110.79508 L68.4321205,110.79508 L68.4334089,110.79508 L68.4437165,110.79508 C82.3886036,110.79508 95.9405136,109.58229 106.755757,108.046347 L106.755757,90.9321 C106.755757,88.807786 108.496452,87.0697108 110.621105,87.0697108 L120.284475,87.0697108 C122.409128,87.0697108 124.149823,88.807786 124.149823,90.9321 L124.149823,104.773615 C127.779385,103.83248 129.865384,102.987904 129.865384,102.43687 C129.865384,100.882902 130.250631,87.6078704 130.449052,78.8119228 C130.51734,75.7696475 130.562435,73.2565196 130.562435,71.9600443 C130.562435,68.8958822 129.719789,65.2304749 127.039815,56.6920198 L127.039815,56.6920198 Z" id="Fill-1" fill="#5FC1A6"></path>
                            <path d="M68.2293186,8.79221401 C50.1459323,8.79221401 37.5513402,9.17587801 28.7692696,9.68442592 C37.5513402,9.17587801 50.1459323,8.79221401 68.2293186,8.79221401" id="Fill-3" fill="#5FC1A6"></path>
                            <path d="M12.7153198,114.428301 C12.7153198,116.552615 14.4547264,118.29069 16.5806678,118.29069 L26.2440377,118.29069 C28.3699791,118.29069 30.1093857,116.552615 30.1093857,114.428301 L30.1093857,108.046347 C22.8206279,107.009939 16.7919735,105.830623 12.7153198,104.773615 L12.7153198,114.428301 Z" id="Fill-5" fill="#5FC1A6"></path>
                            <path d="M26.2440377,87.0697108 L16.5806678,87.0697108 C14.4547264,87.0697108 12.7153198,88.807786 12.7153198,90.9321 L12.7153198,104.773615 C16.7919735,105.830623 22.8206279,107.009939 30.1093857,108.046347 L30.1093857,90.9321 C30.1093857,88.807786 28.3699791,87.0697108 26.2440377,87.0697108" id="Fill-7" fill="#2DA87C"></path>
                            <path d="M114.166789,39.6673808 L112.895089,36.103683 C104.911857,13.7378746 99.0133364,8.46957577 97.5934652,7.35978261 C93.8685582,6.80874842 79.7535959,6.34268679 67.9410925,6.21265302 C56.1376082,6.34139932 42.0342419,6.80874842 38.2977389,7.35849515 C36.8417911,8.49661249 32.2832574,14.24771 23.9727593,36.1114078 L22.7010598,39.6751055 C21.0312295,44.347309 20.1769876,46.5141093 18.6205408,51.6768362 L118.43671,51.6691114 C117.24876,48.2946707 115.835331,44.3395842 114.166789,39.6673808" id="Fill-9" fill="#FFFFFF"></path>
                            <path d="M124.149823,114.428301 C124.149823,116.552615 122.409128,118.29069 120.284475,118.29069 L110.621105,118.29069 C108.496452,118.29069 106.755757,116.552615 106.755757,114.428301 L106.755757,108.046347 C114.044515,107.009939 120.073169,105.830623 124.149823,104.773615 L124.149823,114.428301 Z" id="Fill-11" fill="#5FC1A6"></path>
                            <path d="M110.621105,87.0697108 L120.284475,87.0697108 C122.409128,87.0697108 124.149823,88.807786 124.149823,90.9321 L124.149823,104.773615 C120.073169,105.830623 114.044515,107.009939 106.755757,108.046347 L106.755757,90.9321 C106.755757,88.807786 108.496452,87.0697108 110.621105,87.0697108" id="Fill-13" fill="#2DA87C"></path>
                            <path d="M94.6211415,18.5148776 L85.1536158,18.5148776 C82.2842392,20.1576805 80.3476998,23.242442 80.3476998,26.7842528 C80.3476998,32.0499768 84.6189094,36.3166294 89.8873786,36.3166294 C95.1558479,36.3166294 99.4270574,32.0499768 99.4270574,26.7842528 C99.4270574,23.242442 97.4918066,20.1576805 94.6211415,18.5148776" id="Fill-15" fill="#2DA87C"></path>
                            <path d="M89.8876363,39.21355 C79.7101751,39.21355 71.4589456,44.7895526 71.4589456,51.6658928 L108.315039,51.6658928 C108.315039,44.7895526 100.065098,39.21355 89.8876363,39.21355" id="Fill-17" fill="#2DA87C"></path>
                            <path d="M81.8989928,19.5847594 L86.5193721,21.6369755 C86.8427729,21.7798839 87.3980945,21.8983305 87.7524181,21.8983305 L91.6177661,21.8983305 C91.9695127,21.8983305 92.5261229,21.7798839 92.8508121,21.6369755 L97.4711914,19.5847594 C97.7945921,19.441851 98.0600127,19.0337252 98.0600127,18.6796729 C98.0600127,18.3243331 97.7675347,18.0359413 97.415788,18.0359413 L81.9543962,18.0359413 C81.6000726,18.0359413 81.3101715,18.3243331 81.3101715,18.6796729 C81.3101715,19.0337252 81.5743036,19.441851 81.8989928,19.5847594" id="Fill-19" fill="#5FC1A6"></path>
                            <path d="M81.0206569,16.1724673 C81.1791362,16.4891832 81.5991707,16.7479633 81.9547827,16.7479633 L89.041254,16.7479633 L90.3297033,16.7479633 L97.4161746,16.7479633 C97.7679212,16.7479633 98.1879557,16.4891832 98.346435,16.1724673 L99.0589475,14.7498206 C99.2174267,14.4318172 99.1414082,13.9683305 98.8927375,13.7185627 L97.2254841,12.0538729 C96.9768134,11.8028176 96.4794719,11.598111 96.1277253,11.598111 L90.3297033,11.598111 L89.041254,11.598111 L83.243232,11.598111 C82.88762,11.598111 82.391567,11.8028176 82.1428963,12.0538729 L80.4756429,13.7185627 C80.2269721,13.9683305 80.1496652,14.4318172 80.3081445,14.7498206 L81.0206569,16.1724673 Z" id="Fill-21" fill="#5FC1A6"></path>
                            <path d="M36.8611179,72.3870958 C36.47716,75.6855762 33.667052,78.0686703 30.5837928,77.7120431 L17.6451846,76.2082862 C14.5619254,75.8503715 12.3741385,72.8866315 12.7593848,69.5868637 C13.1420543,66.2883833 15.9508738,63.9040017 19.0354215,64.260629 L31.9740296,65.7643858 C35.0572888,66.1223005 37.2463642,69.087328 36.8611179,72.3870958" id="Fill-23" fill="#FFFFFF"></path>
                            <path d="M100.002092,72.3870958 C100.38605,75.6855762 103.196158,78.0686703 106.279417,77.7120431 L119.218026,76.2082862 C122.301285,75.8503715 124.489072,72.8866315 124.105114,69.5868637 C123.721156,66.2883833 120.912336,63.9040017 117.827789,64.260629 L104.889181,65.7643858 C101.805921,66.1223005 99.6181345,69.087328 100.002092,72.3870958" id="Fill-25" fill="#FFFFFF"></path>
                            <path d="M11.811215,46.5661228 L11.811215,41.5179802 C11.811215,39.7361313 10.259922,38.4808548 8.51149623,38.8542191 L3.02914436,40.0283854 C1.35802559,40.3875876 0,42.0677269 0,43.7736154 L0,48.4921676 C0,50.2675791 1.44564014,51.7108252 3.22112331,51.7108252 L7.84665638,51.7108252 L7.84665638,51.7159751 L16.3671718,51.7159751 L16.3671718,46.5661228 L11.811215,46.5661228 Z" id="Fill-27" fill="#5FC1A6"></path>
                            <g id="Group-31" transform="translate(119.825787, 38.467980)">
                                <mask id="mask-4" fill="white">
                                    <use xlink:href="#path-3"></use>
                                </mask>
                                <g id="Clip-30"></g>
                                <path d="M5.03809455,8.04664415 L5.03809455,2.99850148 C5.03809455,1.2166526 6.58938753,-0.0386238919 8.33781327,0.334740397 L13.8201651,1.50890671 C15.4912839,1.86810891 16.8493095,3.54824821 16.8493095,5.25413677 L16.8493095,9.9726889 C16.8493095,11.7481005 15.4036694,13.1913466 13.6281862,13.1913466 L9.00265312,13.1913466 L9.00265312,13.1964964 L0.482137737,13.1964964 L0.482137737,8.04664415 L5.03809455,8.04664415 Z" id="Fill-29" fill="#5FC1A6" mask="url(#mask-4)"></path>
                            </g>
                        </g>
                    </g>
                </g>
            </g>
        </g>
    </g>
</svg>