<?xml version="1.0" encoding="UTF-8" standalone="no"?>
<svg width="181px" height="152px" viewBox="0 0 181 152" version="1.1" xmlns="http://www.w3.org/2000/svg" xmlns:xlink="http://www.w3.org/1999/xlink">
    <!-- Generator: Sketch 3.7.2 (28276) - http://www.bohemiancoding.com/sketch -->
    <title>icn_easytopay</title>
    <desc>Created with Sketch.</desc>
    <defs>
        <polyline id="path-1" points="0 0.224878049 180.264323 0.224878049 180.264323 119 0 119"></polyline>
        <polyline id="path-3" points="0 0.224878049 180.264323 0.224878049 180.264323 119 0 119"></polyline>
    </defs>
    <g id="Page-1" stroke="none" stroke-width="1" fill="none" fill-rule="evenodd">
        <g id="Desktop-Copy-10" transform="translate(-734.000000, -3148.000000)">
            <g id="icn_easytopay" transform="translate(734.000000, 3148.000000)">
                <g id="Page-1-Copy-10" transform="translate(0.000000, 15.000000)">
                    <g id="Group-3">
                        <mask id="mask-2" fill="white">
                            <use xlink:href="#path-1"></use>
                        </mask>
                        <g id="Clip-2"></g>
                        <path d="M171.020331,17.0468293 L166.404831,17.0468293 L166.404831,92.9087805 C166.404831,98.0058537 162.243291,102.176585 157.160694,102.176585 L13.8597831,102.176585 L13.8597831,109.730732 C13.8597831,114.827805 18.0213234,119 23.1039202,119 L171.020331,119 C176.104388,119 180.264469,114.827805 180.264469,109.730732 L180.264469,26.3160976 C180.264469,21.2190244 176.104388,17.0468293 171.020331,17.0468293" id="Fill-1" fill="#2DA87C" mask="url(#mask-2)"></path>
                    </g>
                    <g id="Group-6">
                        <mask id="mask-4" fill="white">
                            <use xlink:href="#path-3"></use>
                        </mask>
                        <g id="Clip-5"></g>
                        <path d="M23.1039202,17.0468293 L166.404831,17.0468293 L166.404831,9.49414634 C166.404831,4.39560976 162.243291,0.224878049 157.160694,0.224878049 L9.24574274,0.224878049 C4.15876694,0.224878049 0.000145967742,4.39560976 0.000145967742,9.49414634 L0.000145967742,92.9087805 C0.000145967742,98.0058537 4.15876694,102.176585 9.24574274,102.176585 L13.8597831,102.176585 L13.8597831,26.3160976 C13.8597831,21.2190244 18.0213234,17.0468293 23.1039202,17.0468293" id="Fill-4" fill="#2DA87C" mask="url(#mask-4)"></path>
                    </g>
                    <path d="M152.384484,69.877561 L157.932718,69.877561 L157.932718,79.1453659 L152.384484,79.1453659 L152.384484,69.877561 Z M149.470968,79.1453659 L143.924194,79.1453659 L143.924194,69.877561 L149.470968,69.877561 L149.470968,79.1453659 Z M141.007758,79.1453659 L135.460984,79.1453659 L135.460984,69.877561 L141.007758,69.877561 L141.007758,79.1453659 Z M130.769581,79.1453659 L125.222806,79.1453659 L125.222806,69.877561 L130.769581,69.877561 L130.769581,79.1453659 Z M122.304911,79.1453659 L116.756677,79.1453659 L116.756677,69.877561 L122.304911,69.877561 L122.304911,79.1453659 Z M113.843161,79.1453659 L108.296387,79.1453659 L108.296387,69.877561 L113.843161,69.877561 L113.843161,79.1453659 Z M105.378492,79.1453659 L99.8302581,79.1453659 L99.8302581,69.877561 L105.378492,69.877561 L105.378492,79.1453659 Z M93.7901129,79.1453659 L88.2433387,79.1453659 L88.2433387,69.877561 L93.7901129,69.877561 L93.7901129,79.1453659 Z M85.662629,101.698049 L27.7280323,101.698049 L27.7280323,96.1370732 L85.662629,96.1370732 L85.662629,101.698049 Z M25.878621,69.877561 L31.4268548,69.877561 L31.4268548,79.1453659 L25.878621,79.1453659 L25.878621,69.877561 Z M39.8856855,79.1453659 L34.3389113,79.1453659 L34.3389113,69.877561 L39.8856855,69.877561 L39.8856855,79.1453659 Z M48.3503548,79.1453659 L42.8035806,79.1453659 L42.8035806,69.877561 L48.3503548,69.877561 L48.3503548,79.1453659 Z M28.6520081,46.244878 C28.6520081,44.2063415 30.3175,42.5365854 32.349371,42.5365854 L45.3784516,42.5365854 C47.4103226,42.5365854 49.0758145,44.2063415 49.0758145,46.244878 L49.0758145,53.8136585 C49.0758145,55.8521951 47.4103226,57.5204878 45.3784516,57.5204878 L32.349371,57.5204878 C30.3175,57.5204878 28.6520081,55.8521951 28.6520081,53.8136585 L28.6520081,46.244878 Z M51.26825,69.877561 L56.8164839,69.877561 L56.8164839,79.1453659 L51.26825,79.1453659 L51.26825,69.877561 Z M62.8580887,69.877561 L68.4048629,69.877561 L68.4048629,79.1453659 L62.8580887,79.1453659 L62.8580887,69.877561 Z M71.318379,69.877561 L76.8636935,69.877561 L76.8636935,79.1453659 L71.318379,79.1453659 L71.318379,69.877561 Z M79.7830484,69.877561 L85.3298226,69.877561 L85.3298226,79.1453659 L79.7830484,79.1453659 L79.7830484,69.877561 Z M160.850613,69.877561 L166.397387,69.877561 L166.397387,79.1453659 L160.850613,79.1453659 L160.850613,69.877561 Z M166.404685,92.9087805 L166.404685,17.0468293 L23.1037742,17.0468293 C18.0211774,17.0468293 13.8596371,21.2190244 13.8596371,26.3160976 L13.8596371,102.176585 L157.160548,102.176585 C162.243145,102.176585 166.404685,98.0058537 166.404685,92.9087805 L166.404685,92.9087805 Z" id="Fill-7" fill="#5FC1A6"></path>
                    <path d="M32.3495169,57.5209268 L45.3785976,57.5209268 C47.4104685,57.5209268 49.0759605,55.8511707 49.0759605,53.8140976 L49.0759605,46.2453171 C49.0759605,44.2053171 47.4104685,42.5370244 45.3785976,42.5370244 L32.3495169,42.5370244 C30.3161863,42.5370244 28.652154,44.2053171 28.652154,46.2453171 L28.652154,53.8140976 C28.652154,55.8511707 30.3161863,57.5209268 32.3495169,57.5209268" id="Fill-9" fill="#FFFFFF"></path>
                    <polygon id="Fill-10" fill="#FFFFFF" points="27.7265726 101.698049 85.6611694 101.698049 85.6611694 96.1370732 27.7265726 96.1370732"></polygon>
                    <polygon id="Fill-11" fill="#FFFFFF" points="31.4253952 69.877561 25.8771613 69.877561 25.8771613 79.1453659 31.4253952 79.1453659"></polygon>
                    <polygon id="Fill-12" fill="#FFFFFF" points="39.8856855 69.877561 34.3389113 69.877561 34.3389113 79.1453659 39.8856855 79.1453659"></polygon>
                    <polygon id="Fill-13" fill="#FFFFFF" points="42.8035806 79.1453659 48.3503548 79.1453659 48.3503548 69.877561 42.8035806 69.877561"></polygon>
                    <polygon id="Fill-14" fill="#FFFFFF" points="56.8164839 69.877561 51.26825 69.877561 51.26825 79.1453659 56.8164839 79.1453659"></polygon>
                    <polygon id="Fill-15" fill="#FFFFFF" points="68.4034032 69.877561 62.856629 69.877561 62.856629 79.1453659 68.4034032 79.1453659"></polygon>
                    <polygon id="Fill-16" fill="#FFFFFF" points="76.8636935 69.877561 71.318379 69.877561 71.318379 79.1453659 76.8636935 79.1453659"></polygon>
                    <polygon id="Fill-17" fill="#FFFFFF" points="85.3298226 69.877561 79.7830484 69.877561 79.7830484 79.1453659 85.3298226 79.1453659"></polygon>
                    <polygon id="Fill-18" fill="#FFFFFF" points="88.2433387 79.1453659 93.7901129 79.1453659 93.7901129 69.877561 88.2433387 69.877561"></polygon>
                    <polygon id="Fill-19" fill="#FFFFFF" points="99.8317177 79.1453659 105.379952 79.1453659 105.379952 69.877561 99.8317177 69.877561"></polygon>
                    <polygon id="Fill-20" fill="#FFFFFF" points="108.296387 79.1453659 113.843161 79.1453659 113.843161 69.877561 108.296387 69.877561"></polygon>
                    <polygon id="Fill-21" fill="#FFFFFF" points="116.756677 79.1453659 122.304911 79.1453659 122.304911 69.877561 116.756677 69.877561"></polygon>
                    <polygon id="Fill-22" fill="#FFFFFF" points="125.222806 79.1453659 130.769581 79.1453659 130.769581 69.877561 125.222806 69.877561"></polygon>
                    <polygon id="Fill-23" fill="#FFFFFF" points="135.460984 79.1453659 141.007758 79.1453659 141.007758 69.877561 135.460984 69.877561"></polygon>
                    <polygon id="Fill-24" fill="#FFFFFF" points="143.925653 79.1453659 149.472427 79.1453659 149.472427 69.877561 143.925653 69.877561"></polygon>
                    <polygon id="Fill-25" fill="#FFFFFF" points="157.932718 69.877561 152.384484 69.877561 152.384484 79.1453659 157.932718 79.1453659"></polygon>
                    <polygon id="Fill-26" fill="#FFFFFF" points="166.397387 69.877561 160.850613 69.877561 160.850613 79.1453659 166.397387 79.1453659"></polygon>
                </g>
            </g>
        </g>
    </g>
</svg>