<?xml version="1.0" encoding="UTF-8" standalone="no"?>
<svg width="170px" height="152px" viewBox="0 0 170 152" version="1.1" xmlns="http://www.w3.org/2000/svg" xmlns:xlink="http://www.w3.org/1999/xlink">
    <!-- Generator: Sketch 3.7.2 (28276) - http://www.bohemiancoding.com/sketch -->
    <title>icn_reliableservice</title>
    <desc>Created with Sketch.</desc>
    <defs>
        <polygon id="path-1" points="0.274568404 131.733333 131.684103 131.733333 131.684103 0.672853333 0.274568404 0.672853333 0.274568404 131.733333"></polygon>
    </defs>
    <g id="Page-1" stroke="none" stroke-width="1" fill="none" fill-rule="evenodd">
        <g id="Desktop-Copy-14" transform="translate(-588.000000, -1407.000000)">
            <g id="icn_reliableservice" transform="translate(588.000000, 1407.000000)">
                <g id="Page-1" transform="translate(10.000000, 8.000000)">
                    <path d="M74.9250939,14.5441559 L75.0292995,14.4402892 L73.1408908,12.5592892 C72.7596508,12.1792892 72.358078,11.8296892 71.9476096,11.5028892 C64.3075604,4.49822257 54.1132032,0.219422572 42.9149141,0.219422572 C19.2132244,0.219422572 0,19.3739559 0,42.9947559 C0,59.2802892 9.1319684,73.4390892 22.569407,80.6641559 L80.7059629,22.7154226 C79.1060257,19.7602892 77.1502646,17.0306226 74.9250939,14.5441559" id="Fill-1" fill="#FFFFFF"></path>
                    <g id="Group-5" transform="translate(17.791199, 0.029423)">
                        <mask id="mask-2" fill="white">
                            <use xlink:href="#path-1"></use>
                        </mask>
                        <g id="Clip-4"></g>
                        <path d="M88.7698239,0.672853333 C77.9934404,0.672853333 68.1714276,4.66032 60.6330423,11.2013867 C60.3801532,11.40532 60.114556,11.58012 59.879458,11.81572 L59.1309568,12.5630533 C58.6696564,13.0000533 58.2236057,13.44592 57.7839089,13.90572 L3.00988967,68.4990533 C-0.615702573,72.1153867 -0.639847772,77.9521867 2.95397447,81.5368533 C6.49823552,85.0670533 12.2206477,85.0784533 15.8602187,81.6229867 L52.0627675,45.5090533 C52.8709963,44.70472 54.1786494,44.70472 54.9868782,45.5090533 C55.7938362,46.3146533 55.7938362,47.61932 54.9868782,48.4198533 L17.668567,85.64592 C15.3417323,89.22552 15.7242431,94.0350533 18.8465986,97.1497867 C22.4340668,100.723053 28.2594138,100.70532 31.89136,97.1231867 L66.0593581,63.0675867 C66.8688577,62.2619867 68.1765108,62.2619867 68.9834688,63.0675867 C69.7904267,63.8731867 69.7904267,65.1765867 68.9834688,65.9783867 L59.9010616,75.0299867 C59.9036032,75.0350533 59.9061448,75.0375867 59.9086864,75.0388533 L34.7964087,100.06692 C31.1708164,103.683253 31.1454004,109.520053 34.7392227,113.10472 C38.3203369,116.671653 44.1253511,116.656453 47.7598389,113.099653 L82.0078974,78.9642533 C82.8148554,78.1573867 84.1237793,78.1573867 84.9320081,78.9642533 C85.738966,79.7685867 85.738966,81.0732533 84.9320081,81.87252 L81.267021,85.5268533 C81.2721042,85.52812 81.2784582,85.5306533 81.2835414,85.5306533 L50.6903036,116.02312 C47.0647113,119.64072 47.0392953,125.476253 50.6331176,129.06092 C54.232023,132.645587 60.0853276,132.62152 63.716003,129.005187 L120.58303,72.32312 C121.102787,71.8037867 121.527234,71.23252 121.899578,70.6346533 C128.013397,63.2436533 131.684738,53.7740533 131.684738,43.4481867 C131.684738,19.82612 112.470243,0.672853333 88.7698239,0.672853333" id="Fill-3" fill="#2DA87C" mask="url(#mask-2)"></path>
                    </g>
                    <path d="M91.400761,50.7604359 C96.9427196,45.2377692 96.9427196,36.2735692 91.400761,30.7547026 L75.0290454,14.4400359 L54.9542186,34.4495692 L71.3233927,50.7667692 C76.8704345,56.2894359 85.8588025,56.2894359 91.400761,50.7604359" id="Fill-6" fill="#5FC1A6"></path>
                </g>
            </g>
        </g>
    </g>
</svg>