<?xml version="1.0" encoding="UTF-8" standalone="no"?>
<svg width="200px" height="200px" viewBox="0 0 200 200" version="1.1" xmlns="http://www.w3.org/2000/svg" xmlns:xlink="http://www.w3.org/1999/xlink">
    <!-- Generator: Sketch 3.7.2 (28276) - http://www.bohemiancoding.com/sketch -->
    <title>icn_shuttle</title>
    <desc>Created with Sketch.</desc>
    <defs>
        <rect id="path-1" x="0" y="0" width="200" height="200"></rect>
        <polygon id="path-3" points="0 107.081553 145.235922 107.081553 145.235922 0 0 0"></polygon>
    </defs>
    <g id="Page-1" stroke="none" stroke-width="1" fill="none" fill-rule="evenodd">
        <g id="Desktop-Copy-10" transform="translate(-667.000000, -1259.000000)">
            <g id="icn_shuttle" transform="translate(667.000000, 1259.000000)">
                <mask id="mask-2" fill="white">
                    <use xlink:href="#path-1"></use>
                </mask>
                <g id="Mask"></g>
                <g id="Group-14" mask="url(#mask-2)">
                    <ellipse id="Oval-171-Copy" fill="#F1F1F2" cx="100" cy="100" rx="100" ry="100"></ellipse>
                    <g id="Page-1" transform="translate(27.184466, 46.601942)">
                        <path d="M4.71883495,104.168932 C4.71883495,105.770874 6.02951456,107.081553 7.63145631,107.081553 L14.9130097,107.081553 C16.5149515,107.081553 17.8256311,105.770874 17.8256311,104.168932 L17.8256311,99.3563107 C12.3333981,98.5747573 7.79067961,97.6854369 4.71883495,96.8883495 L4.71883495,104.168932 L4.71883495,104.168932 Z" id="Fill-1" fill="#5FC1A6"></path>
                        <path d="M14.9130097,83.5378641 L7.63145631,83.5378641 C6.02951456,83.5378641 4.71883495,84.8485437 4.71883495,86.4504854 L4.71883495,96.8883495 C7.79067961,97.6854369 12.3333981,98.5747573 17.8256311,99.3563107 L17.8256311,86.4504854 C17.8256311,84.8485437 16.5149515,83.5378641 14.9130097,83.5378641" id="Fill-3" fill="#2DA87C"></path>
                        <path d="M87.5853398,104.168932 C87.5853398,105.770874 86.2736893,107.081553 84.6727184,107.081553 L77.391165,107.081553 C75.7901942,107.081553 74.4785437,105.770874 74.4785437,104.168932 L74.4785437,99.3563107 C79.9707767,98.5747573 84.5134951,97.6854369 87.5853398,96.8883495 L87.5853398,104.168932 Z" id="Fill-5" fill="#5FC1A6"></path>
                        <path d="M77.3916505,83.5378641 L84.6732039,83.5378641 C86.2741748,83.5378641 87.5858252,84.8485437 87.5858252,86.4504854 L87.5858252,96.8883495 C84.5139806,97.6854369 79.9712621,98.5747573 74.4790291,99.3563107 L74.4790291,86.4504854 C74.4790291,84.8485437 75.7906796,83.5378641 77.3916505,83.5378641" id="Fill-7" fill="#2DA87C"></path>
                        <mask id="mask-4" fill="white">
                            <use xlink:href="#path-3"></use>
                        </mask>
                        <g id="Clip-10"></g>
                        <polygon id="Fill-9" fill="#5FC1A6" mask="url(#mask-4)" points="119.5 102.714563 124.354369 102.714563 124.354369 41.8718447 119.5 41.8718447"></polygon>
                        <path d="M6.15145631,60.6300971 L85.7533981,60.6300971 L85.7533981,18.7747573 L6.15145631,18.7747573 L6.15145631,60.6300971 Z M92.1679612,94.884466 L92.1291262,12.6126214 C92.1291262,12.6126214 81.1378641,0.0116504854 45.6737864,0.000970873786 L45.6737864,0 L45.6533981,0 L45.631068,0 L45.631068,0.000970873786 C10.1640777,0.0116504854 0,12.6126214 0,12.6126214 L0.0174757282,94.9854369 L0.0262135922,94.9854369 C0.0223300971,95.031068 0.013592233,95.0932039 0.013592233,95.1262136 C0.013592233,95.5417476 1.98252427,96.1786408 4.7184466,96.8883495 L4.7184466,86.4504854 C4.7184466,84.8485437 6.02912621,83.5378641 7.63106796,83.5378641 L14.9126214,83.5378641 C16.5145631,83.5378641 17.8252427,84.8485437 17.8252427,86.4504854 L17.8252427,99.3563107 C25.9747573,100.514563 35.3601942,101.429126 45.868932,101.429126 L45.8757282,101.429126 L45.876699,101.429126 L45.884466,101.429126 C56.392233,101.429126 66.3291262,100.514563 74.4786408,99.3563107 L74.4786408,86.4504854 C74.4786408,84.8485437 75.7893204,83.5378641 77.3912621,83.5378641 L84.6728155,83.5378641 C86.2737864,83.5378641 87.5854369,84.8485437 87.5854369,86.4504854 L87.5854369,96.8883495 C90.3203883,96.1786408 92.1194175,95.538835 92.1679612,95.1262136 C92.1737864,95.0747573 92.1737864,94.9932039 92.1679612,94.884466 L92.1679612,94.884466 Z" id="Fill-11" fill="#5FC1A6" mask="url(#mask-4)"></path>
                        <polygon id="Fill-12" fill="#5FC1A6" mask="url(#mask-4)" points="114.037864 104.178641 129.817476 104.178641 129.817476 98.8864078 114.037864 98.8864078"></polygon>
                        <path d="M20.2523301,73.0203883 C20.2523301,74.7631068 18.9028155,76.1757282 17.2387379,76.1757282 L7.73194175,76.1757282 C6.06786408,76.1757282 4.71834951,74.7631068 4.71834951,73.0203883 C4.71834951,71.2776699 6.06786408,69.8650485 7.73194175,69.8650485 L17.2387379,69.8650485 C18.9028155,69.8650485 20.2523301,71.2776699 20.2523301,73.0203883" id="Fill-13" fill="#FFFFFF" mask="url(#mask-4)"></path>
                        <path d="M87.5858252,73.0203883 C87.5858252,74.7631068 86.2363107,76.1757282 84.572233,76.1757282 L75.0654369,76.1757282 C73.4013592,76.1757282 72.0518447,74.7631068 72.0518447,73.0203883 C72.0518447,71.2776699 73.4013592,69.8650485 75.0654369,69.8650485 L84.572233,69.8650485 C86.2363107,69.8650485 87.5858252,71.2776699 87.5858252,73.0203883" id="Fill-14" fill="#FFFFFF" mask="url(#mask-4)"></path>
                        <polygon id="Fill-15" fill="#FFFFFF" mask="url(#mask-4)" points="6.23883495 60.4805825 85.6883495 60.4805825 85.6883495 18.7330097 6.23883495 18.7330097"></polygon>
                        <polygon id="Fill-16" fill="#FFFFFF" mask="url(#mask-4)" points="121.929029 42.3401942 103.481456 23.8945631 121.928058 5.44699029 140.37466 23.8945631"></polygon>
                        <path d="M136.943883,25.2275728 L123.309903,38.8605825 C122.941942,39.2285437 122.45165,39.4304854 121.92835,39.4304854 C121.404078,39.4304854 120.913786,39.2285437 120.547767,38.8605825 L106.912816,25.2275728 C106.545825,24.8605825 106.343883,24.3702913 106.343883,23.8460194 C106.343883,23.3227184 106.545825,22.8324272 106.912816,22.4654369 L120.547767,8.83048544 C121.282718,8.09553398 122.573981,8.09553398 123.309903,8.83048544 L136.943883,22.4654369 C137.311845,22.8324272 137.512816,23.3227184 137.512816,23.8460194 C137.512816,24.3702913 137.311845,24.8605825 136.943883,25.2275728 M144.339029,21.6838835 L124.099223,1.4431068 C123.520583,0.864466019 122.749709,0.546990291 121.92835,0.546990291 C121.106019,0.546990291 120.336117,0.864466019 119.756505,1.4431068 L99.516699,21.6838835 C98.9380583,22.2615534 98.6205825,23.0324272 98.6205825,23.8547573 C98.6205825,24.6770874 98.9380583,25.4479612 99.516699,26.0256311 L119.756505,46.2664078 C120.336117,46.8431068 121.106019,47.1625243 121.92835,47.1625243 C122.749709,47.1625243 123.520583,46.8431068 124.099223,46.2664078 L144.339029,26.0256311 C144.91767,25.4479612 145.236117,24.6770874 145.236117,23.8547573 C145.236117,23.0324272 144.91767,22.2615534 144.339029,21.6838835" id="Fill-17" fill="#2DA87C" mask="url(#mask-4)"></path>
                    </g>
                </g>
            </g>
        </g>
    </g>
</svg>