<?xml version="1.0" encoding="UTF-8" standalone="no"?>
<svg width="181px" height="152px" viewBox="0 0 181 152" version="1.1" xmlns="http://www.w3.org/2000/svg" xmlns:xlink="http://www.w3.org/1999/xlink">
    <!-- Generator: Sketch 3.7.2 (28276) - http://www.bohemiancoding.com/sketch -->
    <title>Rectangle 329</title>
    <desc>Created with Sketch.</desc>
    <defs>
        <path d="M0.903544715,62.2615824 C0.903544715,96.2926742 28.6593089,123.977139 62.7914472,123.977139 C96.9211301,123.977139 124.676894,96.2926742 124.676894,62.2615824 C124.676894,28.228042 96.9211301,0.539904 62.7914472,0.539904 C28.6593089,0.539904 0.903544715,28.228042 0.903544715,62.2615824 L0.903544715,62.2615824 Z M65.3965041,11.004982 C68.3109268,11.1469976 71.1541463,11.5461103 73.921252,12.1619191 C81.1176911,17.2879464 86.9551301,27.2167933 90.1911951,39.7349756 L65.3965041,39.7349756 L65.3965041,11.004982 L65.3965041,11.004982 Z M51.6505935,12.1631434 C54.4213821,11.5461103 57.2682846,11.1469976 60.183935,11.004982 L60.183935,39.7349756 L35.3806504,39.7349756 C38.6142602,27.2216903 44.4541545,17.2879464 51.6505935,12.1631434 L51.6505935,12.1631434 Z M84.6508455,15.8126986 C95.2453984,20.790589 103.870813,29.2625519 109.020772,39.7349756 L95.4995203,39.7349756 C93.1571789,30.2860434 89.3907724,22.0577106 84.6508455,15.8126986 L84.6508455,15.8126986 Z M40.9160894,15.8175956 C36.1737073,22.0613834 32.4097561,30.288492 30.0710976,39.7349756 L16.5596667,39.7349756 C21.7108537,29.2650005 30.3289024,20.795486 40.9160894,15.8175956 L40.9160894,15.8175956 Z M98.1708699,62.2615824 C98.1708699,56.2344908 97.628252,50.4130769 96.6191301,44.9332349 L111.229301,44.9332349 C113.181252,50.3494147 114.255439,56.1830713 114.255439,62.2615824 C114.255439,68.3351963 113.181252,74.1700772 111.230528,79.5813599 L96.6191301,79.5813599 C97.628252,74.0990694 98.1708699,68.2850011 98.1708699,62.2615824 L98.1708699,62.2615824 Z M65.3965041,44.9332349 L91.3537724,44.9332349 C92.3886748,50.3739002 92.9607561,56.2026597 92.9607561,62.2615824 C92.9607561,68.3180565 92.3899024,74.1406946 91.3537724,79.5813599 L65.3965041,79.5813599 L65.3965041,44.9332349 L65.3965041,44.9332349 Z M32.6086341,62.2615824 C32.6086341,56.2026597 33.1819431,50.3739002 34.2180732,44.9332349 L60.183935,44.9332349 L60.183935,79.5813599 L34.2168455,79.5813599 C33.1819431,74.1406946 32.6086341,68.3180565 32.6086341,62.2615824 L32.6086341,62.2615824 Z M11.325,62.2615824 C11.325,56.1830713 12.3979593,50.3494147 14.3523659,44.9332349 L28.9502602,44.9332349 C27.9435935,50.4130769 27.3972927,56.2344908 27.3972927,62.2615824 C27.3972927,68.2850011 27.9423659,74.0990694 28.9502602,79.5813599 L14.3499106,79.5813599 C12.3979593,74.1700772 11.325,68.3351963 11.325,62.2615824 L11.325,62.2615824 Z M95.500748,84.7796193 L109.022,84.7796193 C103.873268,95.2557157 95.246626,103.730127 84.6508455,108.709242 C89.3944553,102.463006 93.1608618,94.235897 95.500748,84.7796193 L95.500748,84.7796193 Z M65.3965041,84.7796193 L90.1924228,84.7796193 C86.9575854,97.2990259 81.1189187,107.233994 73.9237073,112.36247 C71.155374,112.972157 68.3109268,113.370046 65.3965041,113.518183 L65.3965041,84.7796193 L65.3965041,84.7796193 Z M51.6481382,112.355124 C44.4516992,107.23277 38.6118049,97.2965773 35.3769675,84.7796193 L60.183935,84.7796193 L60.183935,113.518183 C57.2682846,113.370046 54.4201545,112.969709 51.6481382,112.355124 L51.6481382,112.355124 Z M16.5559837,84.7796193 L30.0698699,84.7796193 C32.4085285,94.2309999 36.1737073,102.458109 40.9160894,108.704345 C30.3276748,103.726454 21.7059431,95.2483701 16.5559837,84.7796193 L16.5559837,84.7796193 Z" id="path-1"></path>
    </defs>
    <g id="Page-1" stroke="none" stroke-width="1" fill="none" fill-rule="evenodd">
        <g id="Desktop-Copy-14" transform="translate(-173.000000, -1403.000000)">
            <g id="icn_multilanguage" transform="translate(173.000000, 1403.000000)">
                <g id="Page-1-Copy" transform="translate(15.000000, 0.000000)">
                    <g id="Group-7" transform="translate(0.000000, 0.173847)">
                        <path d="M79.0750171,41.4818961 C79.0750171,44.8486444 76.312822,47.6032566 72.9368057,47.6032566 L6.13833415,47.6032566 C2.76231789,47.6032566 0.000122764227,44.8486444 0.000122764227,41.4818961 L0.000122764227,6.13838454 C0.000122764227,2.77163624 2.76231789,0.017024 6.13833415,0.017024 L72.9368057,0.017024 C76.312822,0.017024 79.0750171,2.77163624 79.0750171,6.13838454 L79.0750171,41.4818961 Z" id="Fill-1" fill="#2DA87C"></path>
                        <path d="M150.47015,88.3784962 C150.47015,122.442643 122.780678,150.056101 88.6227593,150.056101 C54.4672959,150.056101 26.7765967,122.442643 26.7765967,88.3784962 C26.7765967,54.3167976 54.4672959,26.7033401 88.6227593,26.7033401 C122.780678,26.7033401 150.47015,54.3167976 150.47015,88.3784962" id="Fill-3" fill="#5FC1A6"></path>
                        <path d="M42.3368398,110.679592 L55.850726,110.679592 C58.1893846,120.130973 61.9533358,128.358081 66.6969455,134.604318 C56.1085309,129.626427 47.4855715,121.148343 42.3368398,110.679592 L42.3368398,110.679592 Z M66.6969455,41.7175684 C61.9533358,47.9613562 58.1906122,56.1872405 55.8519537,65.6349484 L42.3405228,65.6349484 C47.4904821,55.1649733 56.1097585,46.6954588 66.6969455,41.7175684 L66.6969455,41.7175684 Z M122.399986,105.481333 C123.409108,99.9990422 123.950498,94.1849739 123.950498,88.1603309 C123.950498,82.1344636 123.409108,76.3130497 122.399986,70.8332077 L137.008929,70.8332077 C138.962108,76.2493875 140.035067,82.0842684 140.035067,88.1603309 C140.035067,94.2351691 138.962108,100.07005 137.011385,105.481333 L122.399986,105.481333 Z M121.281604,110.679592 L134.802856,110.679592 C129.654124,121.156913 121.027482,129.6301 110.431702,134.609215 C115.174084,128.362978 118.94049,120.13587 121.281604,110.679592 L121.281604,110.679592 Z M117.134628,70.8332077 C118.169531,76.273873 118.740385,82.1014082 118.740385,88.1603309 C118.740385,94.2180293 118.169531,100.041892 117.134628,105.481333 L91.1761325,105.481333 L91.1761325,70.8332077 L117.134628,70.8332077 Z M110.431702,41.7126713 C121.026254,46.6905617 129.650441,55.1625247 134.801628,65.6349484 L121.280376,65.6349484 C118.938035,56.1847919 115.171628,47.9589076 110.431702,41.7126713 L110.431702,41.7126713 Z M91.1761325,36.9037305 C94.0905553,37.0457461 96.9350024,37.4473073 99.7021081,38.0618919 C106.898547,43.1879192 112.735986,53.116766 115.970824,65.6349484 L91.1761325,65.6349484 L91.1761325,36.9037305 Z M91.1761325,139.418156 L91.1761325,110.679592 L115.972051,110.679592 C112.738441,123.198999 106.899775,133.133967 99.7033358,138.261218 C96.9350024,138.87213 94.0905553,139.271243 91.1761325,139.418156 L91.1761325,139.418156 Z M77.4314496,38.0643405 C80.2022382,37.4473073 83.0491407,37.0457461 85.9635634,36.9037305 L85.9635634,65.6349484 L61.1602789,65.6349484 C64.3951163,53.1204389 70.2350106,43.1879192 77.4314496,38.0643405 L77.4314496,38.0643405 Z M58.3894902,88.1603309 C58.3894902,82.1014082 58.9615715,76.273873 59.9989293,70.8332077 L85.9635634,70.8332077 L85.9635634,105.481333 L59.9977016,105.481333 C58.9615715,100.041892 58.3894902,94.2180293 58.3894902,88.1603309 L58.3894902,88.1603309 Z M37.1046285,88.1603309 C37.1046285,82.0842684 38.1775878,76.2493875 40.1319943,70.8332077 L54.7311163,70.8332077 C53.723222,76.3130497 53.1781488,82.1344636 53.1781488,88.1603309 C53.1781488,94.1849739 53.7219943,99.9990422 54.7311163,105.481333 L40.129539,105.481333 C38.1775878,100.07005 37.1046285,94.2351691 37.1046285,88.1603309 L37.1046285,88.1603309 Z M61.1578236,110.679592 L85.9635634,110.679592 L85.9635634,139.418156 C83.0491407,139.271243 80.2010106,138.868457 77.4289943,138.255097 C70.2325553,133.132743 64.3914333,123.19655 61.1578236,110.679592 L61.1578236,110.679592 Z M88.5710756,26.4398768 C54.4389374,26.4398768 26.6844008,54.1280148 26.6844008,88.1603309 C26.6844008,122.192647 54.4389374,149.877112 88.5710756,149.877112 C122.700759,149.877112 150.45775,122.192647 150.45775,88.1603309 C150.45775,54.1280148 122.700759,26.4398768 88.5710756,26.4398768 L88.5710756,26.4398768 Z" id="Fill-5" fill="#2DA87C"></path>
                    </g>
                    <g id="Group-11" transform="translate(25.780488, 26.073819)">
                        <mask id="mask-2" fill="white">
                            <use xlink:href="#path-1"></use>
                        </mask>
                        <g id="Clip-9"></g>
                        <polygon id="Fill-8" fill="#2DA87C" mask="url(#mask-2)" points="0.903544715 124.132622 124.683033 124.132622 124.683033 0.510521469 0.903544715 0.510521469"></polygon>
                        <polygon id="Fill-10" fill="#2DA87C" mask="url(#mask-2)" points="0.00122764228 124.875755 125.577984 124.875755 125.577984 -0.356263184 0.00122764228 -0.356263184"></polygon>
                    </g>
                    <g id="Group-24" transform="translate(13.504065, 18.728187)">
                        <path d="M28.7368959,29.0489165 L59.4328634,29.0489165 C62.8088797,29.0489165 65.5710748,26.2943042 65.5710748,22.9275559 L65.5710748,8.88270629 C50.9756358,11.1378155 38.0767984,18.4907938 28.7368959,29.0489165" id="Fill-12" fill="#FFFFFF"></path>
                        <polygon id="Fill-14" fill="#2DA87C" points="3.47791057 25.3331282 11.5607073 44.2077313 18.6196504 25.3331282"></polygon>
                        <path d="M28.4743033,29.0489165 L43.5865797,29.0489165 C46.5501081,26.7570791 49.7665309,24.7749825 53.1928805,23.1626162 C51.8277423,24.9610719 50.5534496,26.9407199 49.3614089,29.0489165 L55.2172626,29.0489165 C57.7768967,25.0443224 60.7158724,21.7951042 63.9273846,19.5093882 C64.4712301,19.386961 65.0212138,19.2816736 65.5711976,19.1776104 L65.5711976,8.61336642 C50.8566772,10.8819426 37.8522626,18.3463297 28.4743033,29.0489165" id="Fill-16" fill="#5FC1A6"></path>
                        <path d="M9.74023659,4.93773427 C9.74023659,7.38750276 7.74777317,9.37572066 5.29003333,9.37572066 C2.8322935,9.37572066 0.839830081,7.38750276 0.839830081,4.93773427 C0.839830081,2.48796578 2.8322935,0.499747875 5.29003333,0.499747875 C7.74777317,0.499747875 9.74023659,2.48796578 9.74023659,4.93773427" id="Fill-18" fill="#FFFFFF"></path>
                        <path d="M30.9937935,4.93773427 C30.9937935,7.38750276 29.0001024,9.37572066 26.5435902,9.37572066 C24.0858504,9.37572066 22.093387,7.38750276 22.093387,4.93773427 C22.093387,2.48796578 24.0858504,0.499747875 26.5435902,0.499747875 C29.0001024,0.499747875 30.9937935,2.48796578 30.9937935,4.93773427" id="Fill-20" fill="#FFFFFF"></path>
                        <path d="M52.2467366,4.93773427 C52.2467366,7.38750276 50.2542732,9.37572066 47.7965333,9.37572066 C45.3400211,9.37572066 43.3463301,7.38750276 43.3463301,4.93773427 C43.3463301,2.48796578 45.3400211,0.499747875 47.7965333,0.499747875 C50.2542732,0.499747875 52.2467366,2.48796578 52.2467366,4.93773427" id="Fill-22" fill="#FFFFFF"></path>
                    </g>
                </g>
            </g>
        </g>
    </g>
</svg>